<svg width="192" height="139" viewBox="0 0 192 139" fill="none" xmlns="http://www.w3.org/2000/svg">
<g clip-path="url(#clip0)">
<path d="M108.73 17.06V46.35C108.73 53.59 118.39 59.46 130.31 59.46C142.23 59.46 151.89 53.59 151.89 46.35V17.06H108.73Z" fill="#333333"/>
<path d="M130.31 39.11C118.39 39.11 108.73 33.25 108.73 26.01V43.27C108.73 50.51 118.39 56.37 130.31 56.37C142.23 56.37 151.89 50.51 151.89 43.27V26C151.89 33.25 142.23 39.11 130.31 39.11Z" fill="url(#paint0_linear)"/>
<path d="M152.34 13.79C149.87 7.78998 140.95 3.34998 130.34 3.34998C119.73 3.34998 110.78 7.78998 108.34 13.79H107.66V17.14C107.66 24.76 117.83 30.93 130.37 30.93C142.91 30.93 153 24.76 153 17.14V13.79H152.34Z" fill="#006CB5"/>
<path d="M130.31 27.58C142.852 27.58 153.02 21.406 153.02 13.79C153.02 6.17399 142.852 0 130.31 0C117.768 0 107.6 6.17399 107.6 13.79C107.6 21.406 117.768 27.58 130.31 27.58Z" fill="#158BDA"/>
<path d="M111.41 13.79C112.131 12.6439 112.976 11.5809 113.93 10.62C120.11 4.39997 128.93 4.52997 131.72 4.61997C135.24 4.61997 140.93 4.75997 145.72 8.82997C147.357 10.2296 148.714 11.926 149.72 13.83C149.631 12.5683 149.309 11.3341 148.77 10.19C145.54 3.34997 135.22 1.86997 129.14 2.23997C127.49 2.33997 115.54 3.23997 112.2 10.88C111.796 11.8063 111.53 12.7866 111.41 13.79Z" fill="#025F93"/>
<path d="M156.69 86.86L146.01 80.7L95.64 51.62L45.28 80.7H45.29L6.29004 103.22L16.97 109.39H16.96L67.33 138.47L117.7 109.39L117.69 109.38L156.69 86.86Z" fill="#666666"/>
<path d="M156.69 86.1L146.01 79.94L95.64 50.86L45.28 79.94H45.29L6.29004 102.46L16.97 108.63H16.96L67.33 137.71L117.7 108.63L117.69 108.62L156.69 86.1Z" fill="url(#paint1_linear)"/>
<path d="M12.8596 103.735C16.8276 101.882 18.0659 96.1441 15.6255 90.9202C13.1851 85.6963 7.99007 82.9641 4.02208 84.8178C0.0540922 86.6715 -1.18426 92.409 1.25614 97.633C3.69655 102.857 8.89157 105.589 12.8596 103.735Z" fill="black"/>
<path d="M10.8787 99.4952C13.0704 98.4714 13.7556 95.3049 12.4091 92.4228C11.0627 89.5406 8.19453 88.0341 6.00288 89.058C3.81123 90.0818 3.12604 93.2483 4.47247 96.1304C5.8189 99.0126 8.68708 100.519 10.8787 99.4952Z" fill="#C69C6D"/>
<path d="M101.14 41.78C98.7 36.55 93.51 33.78 89.54 35.68C89.2528 35.811 88.9783 35.9684 88.72 36.15L4 84.82C8 82.97 13.17 85.7 15.61 90.92C17.87 95.77 16.96 101.05 13.61 103.27L98.31 54.59C102.34 52.74 103.58 47 101.14 41.78Z" fill="url(#paint2_linear)"/>
<path d="M146.79 36.88V66.18C146.79 73.41 156.45 79.28 168.37 79.28C180.29 79.28 190 73.41 190 66.18V36.88H146.79Z" fill="#333333"/>
<path d="M168.37 58.94C156.45 58.94 146.79 53.07 146.79 45.83V63.09C146.79 70.33 156.45 76.2 168.37 76.2C180.29 76.2 190 70.33 190 63.09V45.83C190 53.07 180.29 58.94 168.37 58.94Z" fill="url(#paint3_linear)"/>
<path d="M190.4 33.61C187.93 27.61 179 23.18 168.4 23.18C157.8 23.18 148.84 27.62 146.4 33.61H145.72V37C145.72 44.62 155.89 50.79 168.43 50.79C180.97 50.79 191.13 44.62 191.13 37V33.61H190.4Z" fill="#006CB5"/>
<path d="M168.37 47.4C180.912 47.4 191.08 41.226 191.08 33.61C191.08 25.994 180.912 19.82 168.37 19.82C155.828 19.82 145.66 25.994 145.66 33.61C145.66 41.226 155.828 47.4 168.37 47.4Z" fill="#158BDA"/>
<path d="M149.47 33.61C150.194 32.4663 151.042 31.4064 152 30.45C158.18 24.22 167 24.36 169.8 24.4C173.32 24.46 179 24.55 183.8 28.61C185.436 30.0101 186.793 31.7065 187.8 33.61C187.706 32.3492 187.384 31.1158 186.85 29.97C183.62 23.13 173.3 21.66 167.22 22.02C165.56 22.12 153.62 23.02 150.28 30.66C149.868 31.5987 149.595 32.5925 149.47 33.61Z" fill="#025F93"/>
</g>
<defs>
<linearGradient id="paint0_linear" x1="108.73" y1="41.19" x2="151.89" y2="41.19" gradientUnits="userSpaceOnUse">
<stop stop-color="#00629F"/>
<stop offset="1" stop-color="#0374BD"/>
</linearGradient>
<linearGradient id="paint1_linear" x1="6.29004" y1="94.28" x2="156.69" y2="94.28" gradientUnits="userSpaceOnUse">
<stop/>
<stop offset="1" stop-color="#444444"/>
</linearGradient>
<linearGradient id="paint2_linear" x1="49.41" y1="58.62" x2="59.92" y2="76.82" gradientUnits="userSpaceOnUse">
<stop stop-color="#666666"/>
<stop offset="1" stop-color="#444444"/>
</linearGradient>
<linearGradient id="paint3_linear" x1="6489.59" y1="1898.7" x2="8354.53" y2="1898.7" gradientUnits="userSpaceOnUse">
<stop stop-color="#00629F"/>
<stop offset="1" stop-color="#0374BD"/>
</linearGradient>
<clipPath id="clip0">
<rect width="191.07" height="138.47" fill="white"/>
</clipPath>
</defs>
</svg>
