<svg width="207" height="115" viewBox="0 0 207 115" fill="none" xmlns="http://www.w3.org/2000/svg">
<g clip-path="url(#clip0)">
<path d="M20.58 33.38L0 43V45.23L68.47 84.8L89.06 72.92V70.69L20.58 33.38Z" fill="#CE9843"/>
<path d="M20.58 31.16L0 43.04L68.47 82.58L89.06 70.69L20.58 31.16Z" fill="#FECF70"/>
<path d="M64.6 7.66998L44 17.44V19.56L185.6 101.3L206.18 89.41V87.3L64.6 7.66998Z" fill="#CE9843"/>
<path d="M64.6 5.54999L44.02 17.44L185.6 99.18L206.18 87.3L64.6 5.54999Z" fill="#FECF70"/>
<path d="M64.6 4.89001L44 14.66V16.78L185.6 98.52L206.18 86.64V84.52L64.6 4.89001Z" fill="#CE9843"/>
<path d="M64.6 2.78003L44.02 14.66L185.6 96.4L206.18 84.52L64.6 2.78003Z" fill="#FECF70"/>
<path d="M64.6 2.12L44 11.88V14L185.6 95.74L206.18 83.86V81.74L64.6 2.12Z" fill="#CE9843"/>
<path d="M64.6 0L44.02 11.88L185.6 93.63L206.18 81.74L64.6 0Z" fill="#FECF70"/>
<path d="M42.67 20.46L22.09 30.23V32.35L163.67 114.09L184.26 102.21V100.09L42.67 20.46Z" fill="#CE9843"/>
<path d="M42.67 18.34L22.09 30.23L163.67 111.97L184.26 100.09L42.67 18.34Z" fill="#FECF70"/>
<path d="M42.67 17.69L22.09 27.45V29.57L163.67 111.31L184.26 99.43V97.31L42.67 17.69Z" fill="#CE9843"/>
<path d="M42.67 15.57L22.09 27.45L163.67 109.19L184.26 97.31L42.67 15.57Z" fill="#FECF70"/>
<path d="M42.67 14.91L22.09 24.68V26.79L163.67 108.54L184.26 96.65V94.53L42.67 14.91Z" fill="#CE9843"/>
<path d="M42.67 12.79L22.09 24.68L163.67 106.42L184.26 94.53L42.67 12.79Z" fill="#FECF70"/>
<path d="M20.58 30.71L0 40.37V42.59L68.47 82.13L89.06 70.24V68L20.58 30.71Z" fill="#CE9843"/>
<path d="M20.58 28.48L0 40.37L68.47 79.9L89.06 68.02L20.58 28.48Z" fill="#FECF70"/>
<path d="M20.58 27.88L0 37.66V39.76L48.12 67.55L68.71 55.66V53.56L20.58 27.88Z" fill="#CE9843"/>
<path d="M20.58 25.78L0 37.66L48.12 65.45L68.71 53.56L20.58 25.78Z" fill="#FECF70"/>
</g>
<defs>
<clipPath id="clip0">
<rect width="206.18" height="114.09" fill="white"/>
</clipPath>
</defs>
</svg>
