<svg width="207" height="174" viewBox="0 0 207 174" fill="none" xmlns="http://www.w3.org/2000/svg">
<path d="M25.7471 168.24C23.4911 168.24 21.7151 167.688 20.4191 166.584C19.1231 165.48 18.4351 163.856 18.3551 161.712C18.3391 161.248 18.3311 160.56 18.3311 159.648C18.3311 158.72 18.3391 158.024 18.3551 157.56C18.4351 155.448 19.1311 153.824 20.4431 152.688C21.7711 151.536 23.5391 150.96 25.7471 150.96C27.9551 150.96 29.7231 151.536 31.0511 152.688C32.3791 153.824 33.0751 155.448 33.1391 157.56C33.1711 158.488 33.1871 159.184 33.1871 159.648C33.1871 160.096 33.1711 160.784 33.1391 161.712C33.0591 163.856 32.3711 165.48 31.0751 166.584C29.7791 167.688 28.0031 168.24 25.7471 168.24ZM25.7471 164.784C26.6271 164.784 27.3231 164.52 27.8351 163.992C28.3631 163.464 28.6431 162.656 28.6751 161.568C28.7071 160.64 28.7231 159.984 28.7231 159.6C28.7231 159.184 28.7071 158.528 28.6751 157.632C28.6431 156.544 28.3631 155.736 27.8351 155.208C27.3071 154.68 26.6111 154.416 25.7471 154.416C24.8831 154.416 24.1871 154.68 23.6591 155.208C23.1471 155.736 22.8671 156.544 22.8191 157.632C22.8031 158.08 22.7951 158.736 22.7951 159.6C22.7951 160.448 22.8031 161.104 22.8191 161.568C22.8671 162.656 23.1471 163.464 23.6591 163.992C24.1711 164.52 24.8671 164.784 25.7471 164.784ZM44.0571 168.24C41.7691 168.24 39.9771 167.688 38.6811 166.584C37.4011 165.464 36.7211 163.848 36.6411 161.736C36.6251 161.304 36.6171 160.6 36.6171 159.624C36.6171 158.632 36.6251 157.912 36.6411 157.464C36.7211 155.384 37.4171 153.784 38.7291 152.664C40.0411 151.528 41.8171 150.96 44.0571 150.96C45.4651 150.96 46.7291 151.2 47.8491 151.68C48.9691 152.144 49.8491 152.816 50.4891 153.696C51.1451 154.56 51.4811 155.576 51.4971 156.744V156.792C51.4971 156.92 51.4411 157.032 51.3291 157.128C51.2331 157.208 51.1211 157.248 50.9931 157.248H47.7531C47.5451 157.248 47.3851 157.208 47.2731 157.128C47.1611 157.032 47.0651 156.864 46.9851 156.624C46.7611 155.808 46.4091 155.24 45.9291 154.92C45.4491 154.584 44.8171 154.416 44.0331 154.416C42.1451 154.416 41.1691 155.472 41.1051 157.584C41.0891 158.016 41.0811 158.68 41.0811 159.576C41.0811 160.472 41.0891 161.152 41.1051 161.616C41.1691 163.728 42.1451 164.784 44.0331 164.784C44.8171 164.784 45.4571 164.616 45.9531 164.28C46.4491 163.928 46.7931 163.36 46.9851 162.576C47.0491 162.336 47.1371 162.176 47.2491 162.096C47.3611 162 47.5291 161.952 47.7531 161.952H50.9931C51.1371 161.952 51.2571 162 51.3531 162.096C51.4651 162.192 51.5131 162.312 51.4971 162.456C51.4811 163.624 51.1451 164.648 50.4891 165.528C49.8491 166.392 48.9691 167.064 47.8491 167.544C46.7291 168.008 45.4651 168.24 44.0571 168.24ZM55.8206 168C55.6446 168 55.5006 167.944 55.3886 167.832C55.2766 167.72 55.2206 167.576 55.2206 167.4V151.8C55.2206 151.624 55.2766 151.48 55.3886 151.368C55.5166 151.256 55.6606 151.2 55.8206 151.2H69.1406C69.3166 151.2 69.4606 151.256 69.5726 151.368C69.6846 151.48 69.7406 151.624 69.7406 151.8V167.4C69.7406 167.576 69.6846 167.72 69.5726 167.832C69.4606 167.944 69.3166 168 69.1406 168H66.0446C65.8686 168 65.7246 167.944 65.6126 167.832C65.5006 167.72 65.4446 167.576 65.4446 167.4V155.04H59.5406V167.4C59.5406 167.576 59.4766 167.72 59.3486 167.832C59.2366 167.944 59.0926 168 58.9166 168H55.8206ZM73.8011 169.8C73.6731 169.8 73.5611 169.744 73.4651 169.632C73.3691 169.536 73.3291 169.416 73.3451 169.272L74.0891 164.568C74.1211 164.344 74.2091 164.152 74.3531 163.992C74.4971 163.832 74.6971 163.752 74.9531 163.752H77.7611C77.8891 163.752 77.9931 163.8 78.0731 163.896C78.1691 163.976 78.2171 164.08 78.2171 164.208C78.2171 164.32 78.2011 164.408 78.1691 164.472L76.3691 169.128C76.2731 169.336 76.1611 169.496 76.0331 169.608C75.9051 169.736 75.7211 169.8 75.4811 169.8H73.8011ZM96.3182 168.768C96.1422 168.768 95.9982 168.712 95.8862 168.6C95.7742 168.488 95.7182 168.344 95.7182 168.168V166.512C93.3022 166.512 91.4302 165.976 90.1022 164.904C88.7902 163.832 88.0542 162.248 87.8942 160.152C87.8782 160.056 87.8702 159.816 87.8702 159.432C87.8702 158.856 87.8782 158.504 87.8942 158.376C88.0062 156.328 88.7502 154.752 90.1262 153.648C91.5182 152.528 93.3822 151.968 95.7182 151.968V150.576C95.7182 150.4 95.7742 150.256 95.8862 150.144C95.9982 150.032 96.1422 149.976 96.3182 149.976H99.4142C99.5902 149.976 99.7342 150.032 99.8462 150.144C99.9582 150.256 100.014 150.4 100.014 150.576V151.968C102.366 151.968 104.23 152.528 105.606 153.648C106.998 154.752 107.742 156.328 107.838 158.376C107.87 158.856 107.886 159.152 107.886 159.264C107.886 159.376 107.87 159.672 107.838 160.152C107.678 162.248 106.934 163.832 105.606 164.904C104.294 165.976 102.43 166.512 100.014 166.512V168.168C100.014 168.344 99.9582 168.488 99.8462 168.6C99.7342 168.712 99.5902 168.768 99.4142 168.768H96.3182ZM95.7422 155.424C94.6862 155.424 93.8702 155.672 93.2942 156.168C92.7342 156.648 92.4142 157.408 92.3342 158.448C92.3182 158.688 92.3182 158.888 92.3342 159.048C92.3342 159.224 92.3342 159.368 92.3342 159.48V160.008C92.3982 161.048 92.7102 161.816 93.2702 162.312C93.8462 162.792 94.6702 163.032 95.7422 163.032V155.424ZM99.9902 163.032C101.062 163.032 101.878 162.792 102.438 162.312C103.014 161.816 103.334 161.048 103.398 160.008C103.414 159.896 103.422 159.632 103.422 159.216C103.422 158.8 103.414 158.544 103.398 158.448C103.302 157.408 102.974 156.648 102.414 156.168C101.854 155.672 101.046 155.424 99.9902 155.424V163.032ZM110.928 168C110.8 168 110.68 167.952 110.568 167.856C110.472 167.744 110.424 167.624 110.424 167.496C110.424 167.4 110.432 167.328 110.448 167.28L116.088 151.872C116.136 151.68 116.24 151.52 116.4 151.392C116.56 151.264 116.768 151.2 117.024 151.2H120.576C120.832 151.2 121.04 151.264 121.2 151.392C121.36 151.52 121.464 151.68 121.512 151.872L127.128 167.28L127.176 167.496C127.176 167.624 127.12 167.744 127.008 167.856C126.912 167.952 126.792 168 126.648 168H123.696C123.312 168 123.056 167.832 122.928 167.496L121.992 165.048H115.584L114.672 167.496C114.544 167.832 114.28 168 113.88 168H110.928ZM121.032 161.592L118.8 155.256L116.568 161.592H121.032ZM130.868 168C130.692 168 130.548 167.944 130.436 167.832C130.324 167.72 130.268 167.576 130.268 167.4V151.8C130.268 151.624 130.324 151.48 130.436 151.368C130.564 151.256 130.708 151.2 130.868 151.2H133.964C134.14 151.2 134.284 151.256 134.396 151.368C134.524 151.48 134.588 151.624 134.588 151.8V157.584H140.492V151.8C140.492 151.624 140.548 151.48 140.66 151.368C140.772 151.256 140.916 151.2 141.092 151.2H144.188C144.364 151.2 144.508 151.256 144.62 151.368C144.732 151.48 144.788 151.624 144.788 151.8V167.4C144.788 167.576 144.732 167.72 144.62 167.832C144.508 167.944 144.364 168 144.188 168H141.092C140.916 168 140.772 167.944 140.66 167.832C140.548 167.72 140.492 167.576 140.492 167.4V161.424H134.588V167.4C134.588 167.576 134.524 167.72 134.396 167.832C134.284 167.944 134.14 168 133.964 168H130.868ZM149.95 168C149.79 168 149.646 167.944 149.518 167.832C149.406 167.704 149.35 167.56 149.35 167.4V151.8C149.35 151.624 149.406 151.48 149.518 151.368C149.646 151.256 149.79 151.2 149.95 151.2H161.158C161.334 151.2 161.478 151.256 161.59 151.368C161.702 151.48 161.758 151.624 161.758 151.8V154.056C161.758 154.216 161.702 154.36 161.59 154.488C161.478 154.6 161.334 154.656 161.158 154.656H153.502V157.896H160.63C160.806 157.896 160.95 157.96 161.062 158.088C161.174 158.2 161.23 158.344 161.23 158.52V160.608C161.23 160.768 161.174 160.912 161.062 161.04C160.95 161.152 160.806 161.208 160.63 161.208H153.502V164.544H161.35C161.526 164.544 161.67 164.6 161.782 164.712C161.894 164.824 161.95 164.968 161.95 165.144V167.4C161.95 167.56 161.894 167.704 161.782 167.832C161.67 167.944 161.526 168 161.35 168H149.95ZM166.478 168C166.318 168 166.174 167.944 166.046 167.832C165.934 167.704 165.878 167.56 165.878 167.4V151.8C165.878 151.624 165.934 151.48 166.046 151.368C166.174 151.256 166.318 151.2 166.478 151.2H173.198C175.246 151.2 176.854 151.672 178.022 152.616C179.206 153.56 179.798 154.936 179.798 156.744C179.798 158.536 179.214 159.888 178.046 160.8C176.878 161.696 175.262 162.144 173.198 162.144H170.342V167.4C170.342 167.576 170.278 167.72 170.15 167.832C170.038 167.944 169.894 168 169.718 168H166.478ZM173.078 158.832C173.782 158.832 174.334 158.656 174.734 158.304C175.134 157.936 175.334 157.4 175.334 156.696C175.334 156.04 175.142 155.52 174.758 155.136C174.39 154.736 173.83 154.536 173.078 154.536H170.27V158.832H173.078ZM182.337 168C182.209 168 182.089 167.952 181.977 167.856C181.881 167.744 181.833 167.624 181.833 167.496C181.833 167.4 181.841 167.328 181.857 167.28L187.497 151.872C187.545 151.68 187.649 151.52 187.809 151.392C187.969 151.264 188.177 151.2 188.433 151.2H191.985C192.241 151.2 192.449 151.264 192.609 151.392C192.769 151.52 192.873 151.68 192.921 151.872L198.537 167.28L198.585 167.496C198.585 167.624 198.529 167.744 198.417 167.856C198.321 167.952 198.201 168 198.057 168H195.105C194.721 168 194.465 167.832 194.337 167.496L193.401 165.048H186.993L186.081 167.496C185.953 167.832 185.689 168 185.289 168H182.337ZM192.441 161.592L190.209 155.256L187.977 161.592H192.441Z" fill="white"/>
<g clip-path="url(#clip0)">
<path d="M20.58 33.38L0 43V45.23L68.47 84.8L89.06 72.92V70.69L20.58 33.38Z" fill="#CE9843"/>
<path d="M20.58 31.16L0 43.04L68.47 82.58L89.06 70.69L20.58 31.16Z" fill="#FECF70"/>
<path d="M64.6 7.66998L44 17.44V19.56L185.6 101.3L206.18 89.41V87.3L64.6 7.66998Z" fill="#CE9843"/>
<path d="M64.6 5.54999L44.02 17.44L185.6 99.18L206.18 87.3L64.6 5.54999Z" fill="#FECF70"/>
<path d="M64.6 4.89001L44 14.66V16.78L185.6 98.52L206.18 86.64V84.52L64.6 4.89001Z" fill="#CE9843"/>
<path d="M64.6 2.78003L44.02 14.66L185.6 96.4L206.18 84.52L64.6 2.78003Z" fill="#FECF70"/>
<path d="M64.6 2.12L44 11.88V14L185.6 95.74L206.18 83.86V81.74L64.6 2.12Z" fill="#CE9843"/>
<path d="M64.6 0L44.02 11.88L185.6 93.63L206.18 81.74L64.6 0Z" fill="#FECF70"/>
<path d="M42.67 20.46L22.09 30.23V32.35L163.67 114.09L184.26 102.21V100.09L42.67 20.46Z" fill="#CE9843"/>
<path d="M42.67 18.34L22.09 30.23L163.67 111.97L184.26 100.09L42.67 18.34Z" fill="#FECF70"/>
<path d="M42.67 17.69L22.09 27.45V29.57L163.67 111.31L184.26 99.43V97.31L42.67 17.69Z" fill="#CE9843"/>
<path d="M42.67 15.57L22.09 27.45L163.67 109.19L184.26 97.31L42.67 15.57Z" fill="#FECF70"/>
<path d="M42.67 14.91L22.09 24.68V26.79L163.67 108.54L184.26 96.65V94.53L42.67 14.91Z" fill="#CE9843"/>
<path d="M42.67 12.79L22.09 24.68L163.67 106.42L184.26 94.53L42.67 12.79Z" fill="#FECF70"/>
<path d="M20.58 30.71L0 40.37V42.59L68.47 82.13L89.06 70.24V68L20.58 30.71Z" fill="#CE9843"/>
<path d="M20.58 28.48L0 40.37L68.47 79.9L89.06 68.02L20.58 28.48Z" fill="#FECF70"/>
<path d="M20.58 27.88L0 37.66V39.76L48.12 67.55L68.71 55.66V53.56L20.58 27.88Z" fill="#CE9843"/>
<path d="M20.58 25.78L0 37.66L48.12 65.45L68.71 53.56L20.58 25.78Z" fill="#FECF70"/>
</g>
<defs>
<clipPath id="clip0">
<rect width="206.18" height="114.09" fill="white"/>
</clipPath>
</defs>
</svg>
