<svg width="175" height="145" viewBox="0 0 175 145" fill="none" xmlns="http://www.w3.org/2000/svg">
<path d="M93.9425 125.023V127.94L51.3164 103.184V100.259L93.9425 125.023Z" fill="#D19642"/>
<path d="M82.3375 131.741V134.666L39.7191 109.902V106.985L82.3375 131.741Z" fill="#D19642"/>
<path d="M111.724 114.65V117.575L69.1055 92.8186V89.8938L111.724 114.65Z" fill="#D19642"/>
<path d="M172.463 79.3349V82.2598L129.837 57.4957V54.5786L172.463 79.3349Z" fill="#D19642"/>
<path d="M124.964 107.063V109.987L82.3375 85.2311V82.3063L124.964 107.063Z" fill="#D19642"/>
<path d="M154.674 89.6766V92.6014L112.048 67.8451V64.9203L154.674 89.6766Z" fill="#D19642"/>
<path d="M15.4682 112.431L10.4869 109.537L67.7175 76.2938L72.6988 79.1876L15.4682 112.431Z" fill="#FEC169"/>
<path d="M25.1069 118.033L20.1256 115.139L77.3563 81.8951L82.3376 84.7889L25.1069 118.033Z" fill="#FEC169"/>
<path d="M34.7456 123.626L29.7643 120.732L86.995 87.4888L91.9762 90.3826L34.7456 123.626Z" fill="#FEC169"/>
<path d="M44.3842 129.228L39.403 126.334L96.6336 93.0901L101.615 95.9839L44.3842 129.228Z" fill="#FEC169"/>
<path d="M54.0229 134.829L49.0416 131.935L106.272 98.6916L111.254 101.585L54.0229 134.829Z" fill="#FEC169"/>
<path d="M64.4944 140.911L58.6803 137.529L115.911 104.285L121.725 107.668L64.4944 140.911Z" fill="#FEC169"/>
<path d="M5.83719 106.83L0 103.447L57.2307 70.2036L63.0601 73.5861L5.83719 106.83Z" fill="#FEC169"/>
<path d="M10.5177 108.521L5.86804 105.821L63.091 72.5776L67.7484 75.2774L10.5177 108.521Z" fill="#FEC169"/>
<path d="M20.1564 114.123L15.5067 111.415L72.7297 78.1712L77.3871 80.8788L20.1564 114.123Z" fill="#FEC169"/>
<path d="M29.7874 119.716L25.13 117.009L82.3607 83.7649L87.0181 86.4725L29.7874 119.716Z" fill="#FEC169"/>
<path d="M39.4261 125.318L34.7687 122.61L91.9993 89.3662L96.6567 92.0661L39.4261 125.318Z" fill="#FEC169"/>
<path d="M49.0648 130.911L44.4073 128.204L101.638 94.9599L106.288 97.6675L49.0648 130.911Z" fill="#FEC169"/>
<path d="M58.6957 136.505L54.0383 133.797L111.269 100.554L115.926 103.261L58.6957 136.505Z" fill="#FEC169"/>
<path d="M126.305 105.03L110.86 113.998L95.4153 122.967L64.533 140.911V145L67.0621 143.534V140.655L93.9348 125.046V127.924L95.4153 127.063L96.9035 126.202V123.324L110.86 115.216L124.817 107.109V109.98L126.305 109.118L127.786 108.257V105.387L154.659 89.7696V92.6479L157.188 91.1816V87.0853L126.305 105.03Z" fill="#E4AE54"/>
<path d="M144.11 94.6883L128.673 103.665L113.228 112.633L82.3375 130.57V134.666L84.8667 133.2V130.322L111.739 114.712V117.583L113.228 116.721L114.708 115.86V112.982L128.673 104.875L142.629 96.7675V99.6458L144.11 98.7846L145.598 97.9235V95.0452L172.471 79.4358V82.3063L175 80.84V76.7515L144.11 94.6883Z" fill="#E4AE54"/>
<path d="M58.6962 137.521V136.513L54.0388 133.805V134.821L49.0652 131.928V130.911L44.4078 128.211V129.22L39.4265 126.326V125.318L34.7691 122.61V123.626L29.7956 120.732V119.724L25.1381 117.016V118.025L20.1569 115.139V114.123L15.5072 111.423V112.431L10.5259 109.537V108.529L5.86848 105.821V106.838L0.0390015 103.447V107.536L64.5334 145V140.911L58.6962 137.521Z" fill="#D19642"/>
<path d="M10.5255 109.537V108.513L67.733 75.2542L68.8742 75.9214L10.5255 109.537Z" fill="#E6AE54"/>
<path d="M20.1256 115.139V114.115L77.3486 80.8711L78.4975 81.5305L20.1256 115.139Z" fill="#E6AE54"/>
<path d="M29.7951 120.732V119.716L87.0181 86.4724L88.167 87.1319L29.7951 120.732Z" fill="#E6AE54"/>
<path d="M39.4261 126.326V125.31L96.649 92.0661L97.798 92.7333L39.4261 126.326Z" fill="#E6AE54"/>
<path d="M49.0416 131.935C49.0416 131.594 49.0416 131.253 49.0416 130.911L106.265 97.6675L107.414 98.3269L49.0416 131.935Z" fill="#E6AE54"/>
<path d="M58.6957 137.521V136.544L115.919 103.3L117.068 103.959L58.6957 137.521Z" fill="#E6AE54"/>
<path d="M159.524 67.8063L164.505 70.7001L107.282 103.944L102.293 101.05L159.524 67.8063Z" fill="#FEC169"/>
<path d="M149.885 62.2049L154.867 65.0987L97.6437 98.3424L92.6625 95.4486L149.885 62.2049Z" fill="#FEC169"/>
<path d="M140.247 56.6035L145.228 59.4973L88.0051 92.7411L83.0238 89.8473L140.247 56.6035Z" fill="#FEC169"/>
<path d="M130.608 51.0099L135.589 53.9037L78.3664 87.1474L73.3851 84.2536L130.608 51.0099Z" fill="#FEC169"/>
<path d="M120.969 45.4085L125.951 48.3023L68.7277 81.546L63.7464 78.6522L120.969 45.4085Z" fill="#FEC169"/>
<path d="M110.506 39.3261L116.32 42.7009L59.089 75.9446L53.275 72.5698L110.506 39.3261Z" fill="#FEC169"/>
<path d="M169.163 73.4L175 76.7903L117.769 110.034L111.932 106.644L169.163 73.4Z" fill="#FEC169"/>
<path d="M164.475 71.7087L169.132 74.4163L111.901 107.66L107.252 104.952L164.475 71.7087Z" fill="#FEC169"/>
<path d="M154.836 66.1151L159.493 68.8149L102.263 102.059L97.6052 99.3588L154.836 66.1151Z" fill="#FEC169"/>
<path d="M145.205 60.5214L149.862 63.2212L92.6393 96.4649L87.9819 93.7651L145.205 60.5214Z" fill="#FEC169"/>
<path d="M135.566 54.92L140.224 57.6276L83.0007 90.8713L78.3433 88.1637L135.566 54.92Z" fill="#FEC169"/>
<path d="M125.935 49.3264L130.593 52.0262L73.362 85.2699L68.7046 82.5701L125.935 49.3264Z" fill="#FEC169"/>
<path d="M116.304 43.7328L120.962 46.4326L63.731 79.6763L59.0736 76.9765L116.304 43.7328Z" fill="#FEC169"/>
<path d="M164.475 70.6924V71.7164L107.244 104.96L106.103 104.301L164.475 70.6924Z" fill="#E6AE54"/>
<path d="M154.867 65.0987V66.1228L97.6361 99.3665L96.4949 98.6993L154.867 65.0987Z" fill="#E6AE54"/>
<path d="M145.205 59.5051V60.5214L87.9742 93.7651L86.833 93.0979L145.205 59.5051Z" fill="#E6AE54"/>
<path d="M135.566 53.9037V54.92L78.3356 88.1637L77.1943 87.5043L135.566 53.9037Z" fill="#E6AE54"/>
<path d="M125.958 48.3023C125.958 48.6437 125.958 48.985 125.958 49.3264L68.7123 82.5701L67.571 81.9029L125.958 48.3023Z" fill="#E6AE54"/>
<path d="M116.304 42.7087V43.725L59.0736 76.9687L57.9324 76.3015L116.304 42.7087Z" fill="#E6AE54"/>
<path d="M169.271 78.7221L68.7508 137.11L11.1346 103.641V102.765L13.1857 102.447L111.655 45.2534L168.137 78.0626L169.271 77.8376V78.7221Z" fill="#EAE6DF"/>
<path d="M169.271 77.8376L68.7508 136.233L11.7283 103.114L11.1346 102.765L111.655 44.3767L169.271 77.8376Z" fill="#C8B990"/>
<path d="M169.271 77.5816L68.7508 135.962L11.1346 102.493V101.632L13.1857 101.314L111.655 44.1051L168.137 76.9144L169.271 76.6894V77.5816Z" fill="#EAE6DF"/>
<path d="M169.271 76.6894L68.7508 135.085C66.7537 133.929 40.2203 118.529 11.7283 101.958L11.1346 101.616L111.655 43.2207L169.271 76.6894Z" fill="#C8B990"/>
<path d="M169.271 76.4179L68.7508 134.814L11.1346 101.345V100.468L13.1857 100.15L111.655 42.9569L168.137 75.7662L169.271 75.5412V76.4179Z" fill="#EAE6DF"/>
<path d="M169.271 75.5412L68.7508 133.937L11.7283 100.81L11.1346 100.468L111.655 42.0725L169.271 75.5412Z" fill="#C8B990"/>
<path d="M169.271 75.2542L68.7508 133.665L11.1346 100.197V99.3044L13.1857 98.9864L111.655 41.801L168.137 74.618L169.271 74.393V75.2542Z" fill="#EAE6DF"/>
<path d="M169.271 74.393L68.7508 132.781L11.7283 99.6613L11.1346 99.32L111.655 40.9243L169.271 74.393Z" fill="#C8B990"/>
<path d="M169.271 74.1215L68.7508 132.517L11.1346 99.0484V98.164L13.1857 97.8537L111.655 40.6528L168.137 73.4698L169.271 73.2448V74.1215Z" fill="#EAE6DF"/>
<path d="M169.271 73.2448L68.7508 131.633L11.7283 98.5286L11.1346 98.1795L111.655 39.7761L169.271 73.2448Z" fill="#C8B990"/>
<path d="M169.271 72.9732L68.7508 131.361L11.1346 97.8925V97.0158L13.1857 96.7055L111.655 39.5045L168.137 72.3138L169.271 72.0966V72.9732Z" fill="#EAE6DF"/>
<path d="M169.271 72.0966L68.7508 130.484L11.7283 97.3649L11.1346 97.0158L111.655 38.6279L169.271 72.0966Z" fill="#C8B990"/>
<path d="M169.271 71.8251L68.7508 130.213L11.1346 96.7443V95.8676L13.1857 95.5573L111.655 38.3564L168.137 71.1656L169.271 70.9484V71.8251Z" fill="#EAE6DF"/>
<path d="M169.271 70.9484L68.7508 129.336L11.7283 96.2012L11.1346 95.8521L111.655 37.4797L169.271 70.9484Z" fill="#C8B990"/>
<path d="M169.271 70.6768L68.7508 129.065L11.1346 95.596V94.7194L13.1857 94.409L111.655 37.2392L168.137 70.0484L169.271 69.8312V70.6768Z" fill="#EAE6DF"/>
<path d="M169.271 69.8234L68.7508 128.188L11.7283 95.0685L11.1346 94.7194L111.655 36.3315L169.271 69.8234Z" fill="#C8B990"/>
<path d="M169.271 69.5286L68.7508 127.917L11.1346 94.4478V93.5712L13.1857 93.2531L111.655 36.0599L168.137 68.8692L169.271 68.6442V69.5286Z" fill="#EAE6DF"/>
<path d="M169.271 68.6442L68.7508 127.04C66.7537 125.884 40.2203 110.484 11.7283 93.9125L11.1346 93.5712L111.655 35.1755L169.271 68.6442Z" fill="#C8B990"/>
<path d="M169.271 68.3804L68.7508 126.768L11.1346 93.2996V92.4229L13.1857 92.1049L111.655 34.9117L168.137 67.721L169.271 67.496V68.3804Z" fill="#EAE6DF"/>
<path d="M169.271 67.496L68.7508 125.892C66.7537 124.736 40.2203 109.336 11.7283 92.7643L11.1346 92.4229L111.655 34.0273L169.271 67.496Z" fill="#C8B990"/>
<path d="M169.271 67.2244L68.7508 125.62L11.1346 92.1514V91.2747L13.1857 90.9566L111.655 33.7557L168.137 66.5728L169.271 66.3478V67.2244Z" fill="#EAE6DF"/>
<path d="M169.271 66.3478L68.7508 124.743L11.7283 91.6161L11.1346 91.2748L111.655 32.8791L169.271 66.3478Z" fill="#C8B990"/>
<path d="M169.271 66.0762L68.7508 124.472L11.1346 91.0032V90.1188L13.1857 89.8084L111.655 32.5843L168.137 65.4013L169.271 65.1763V66.0762Z" fill="#EAE6DF"/>
<path d="M169.271 65.1685L68.7508 123.587L11.7283 90.4679L11.1346 90.1188L111.655 31.7309L169.271 65.1685Z" fill="#C8B990"/>
<path d="M169.271 64.9281L68.7508 123.355L11.1346 89.855V88.9706L13.1857 88.6603L111.655 31.4594L168.137 64.2764L169.271 64.0514V64.9281Z" fill="#EAE6DF"/>
<path d="M169.271 64.0514L68.7508 122.439L11.7283 89.3197L11.1346 88.9706L111.655 30.5827L169.271 64.0514Z" fill="#C8B990"/>
<path d="M169.271 63.7798L68.7508 122.168L11.1346 88.699V87.8224L13.1857 87.512L111.655 30.3111L168.137 63.1204L169.271 62.9032V63.7798Z" fill="#EAE6DF"/>
<path d="M169.271 62.9032L68.7508 121.291L11.7283 88.1715L11.1346 87.8224L111.655 29.4344L169.271 62.9032Z" fill="#C8B990"/>
<path d="M169.271 62.6316L68.7508 121.027L11.1346 87.5508V86.6742L13.1857 86.3638L111.655 29.1629L168.137 61.9722L169.271 61.755V62.6316Z" fill="#EAE6DF"/>
<path d="M169.271 61.755L68.7508 120.143L11.7283 87.0233L11.1346 86.6742L111.655 28.2863L169.271 61.755Z" fill="#C8B990"/>
<path d="M169.271 61.4834L68.7508 119.871L11.1346 86.4026V85.5259L13.1857 85.2079L111.655 28.0147L168.137 60.824L169.271 60.6067V61.4834Z" fill="#EAE6DF"/>
<path d="M169.271 60.6068L68.7508 118.995L11.7283 85.8751L11.1346 85.526L111.655 27.1536L169.271 60.6068Z" fill="#C8B990"/>
<path d="M169.271 60.3352L68.7508 118.7L11.1346 85.2544V84.3778L13.1857 84.0597L111.655 26.8665L168.137 59.6758L169.271 59.4508V60.3352Z" fill="#EAE6DF"/>
<path d="M169.271 59.4508L68.7508 117.846C66.7537 116.69 40.2203 101.291 11.7283 84.7191L11.1346 84.3778L111.655 25.9821L169.271 59.4508Z" fill="#C8B990"/>
<path d="M169.271 59.187L68.7508 117.575L11.1346 84.1062V83.2295L13.1857 82.9114L111.655 25.7183L168.137 58.5275L169.271 58.3026V59.187Z" fill="#EAE6DF"/>
<path d="M169.271 58.3026L68.7508 116.698L11.7283 83.5709L11.1346 83.2295L111.655 24.8261L169.271 58.3026Z" fill="#C8B990"/>
<path d="M169.271 58.031L68.7508 116.427L11.1346 82.958V82.0813L13.1857 81.7633L111.655 24.5623L168.137 57.4104L169.271 57.1854V58.031Z" fill="#EAE6DF"/>
<path d="M169.271 57.1544L68.7508 115.55L11.7283 82.4227L11.1346 82.0813L111.655 23.6857L169.271 57.1544Z" fill="#C8B990"/>
<path d="M169.271 56.8828L68.7508 115.279L11.1346 81.8098V80.9254L13.1857 80.615L111.655 23.4141L168.137 56.2311L169.271 56.0062V56.8828Z" fill="#EAE6DF"/>
<path d="M169.271 56.0061L68.7508 114.394L11.7283 81.2745L11.1346 80.9254L111.655 22.5374L169.271 56.0061Z" fill="#C8B990"/>
<path d="M169.271 55.7346L68.7508 114.13L11.1346 80.6849V79.8004L13.1857 79.4901L111.655 22.2659L168.137 55.0829L169.271 54.858V55.7346Z" fill="#EAE6DF"/>
<path d="M169.271 54.858L68.7508 113.269L11.7283 80.1263L11.1346 79.7772L111.655 21.3893L169.271 54.858Z" fill="#C8B990"/>
<path d="M169.271 54.5864L68.7508 112.974L11.1346 79.5056V78.6289L13.1857 78.3186L111.655 21.1177L168.137 53.927L169.271 53.7097V54.5864Z" fill="#EAE6DF"/>
<path d="M169.271 53.7097L68.7508 112.098L11.7283 78.9781L11.1346 78.6289L111.655 20.241L169.271 53.7097Z" fill="#C8B990"/>
<path d="M169.271 53.4382L68.7508 111.826L11.1346 78.3574V77.4808L13.1857 77.1704L111.655 19.9695L168.137 52.7555L169.271 52.5383V53.4382Z" fill="#EAE6DF"/>
<path d="M169.271 52.5615L68.7508 110.942L11.7283 77.8299L11.1346 77.4807L111.655 19.0928L169.271 52.5615Z" fill="#C8B990"/>
<path d="M169.271 52.29L68.7508 110.678L11.1346 77.2092V76.3325L13.1857 76.03L111.655 18.8213L168.137 51.6305L169.271 51.4056V52.29Z" fill="#EAE6DF"/>
<path d="M169.271 51.4056L68.7508 109.801L11.7283 76.6816L11.1346 76.3325L111.655 17.9446L169.271 51.4056Z" fill="#C8B990"/>
<path d="M169.271 51.1418L68.7508 109.53L11.1346 76.03V75.1843L13.1857 74.8662L111.655 17.6731L168.137 50.4824L169.271 50.2574V51.1418Z" fill="#EAE6DF"/>
<path d="M169.271 50.2574L68.7508 108.653C66.7537 107.497 40.2203 92.0971 11.7283 75.5257L11.1346 75.1843L111.655 16.7887L169.271 50.2574Z" fill="#C8B990"/>
<path d="M169.271 49.9858L68.7508 108.381L11.1346 74.9128V74.0361L13.1857 73.7025L111.655 16.5249L168.137 49.3341L169.271 49.1091V49.9858Z" fill="#EAE6DF"/>
<path d="M169.271 49.1091L68.7508 107.505L11.7283 74.3775L11.1346 74.0361L111.655 15.6404L169.271 49.1091Z" fill="#C8B990"/>
<path d="M169.271 48.8764L68.7508 107.233L11.1346 73.7646V72.9267L13.1857 72.6086L111.655 15.3689L168.137 48.1859L169.271 47.961V48.8764Z" fill="#EAE6DF"/>
<path d="M169.271 47.9609L68.7508 106.349L11.7283 73.2293L11.1346 72.9267L111.655 14.4922L169.271 47.9609Z" fill="#C8B990"/>
<path d="M169.271 47.6894L68.7508 106.085L11.1346 72.6164V71.7319L13.1857 71.4216L111.655 14.2207L168.137 47.0377L169.271 46.8127V47.6894Z" fill="#EAE6DF"/>
<path d="M169.271 46.8127L68.7508 105.201L11.7283 72.0811L11.1346 71.7319L111.655 13.344L169.271 46.8127Z" fill="#C8B990"/>
<path d="M169.271 46.549L68.7508 104.929L11.1346 71.4682V70.5993L13.1857 70.2889L111.655 13.0725L168.137 45.8818L169.271 45.6645V46.549Z" fill="#EAE6DF"/>
<path d="M169.271 45.6645L68.7508 104.052L11.7283 70.9329L11.1346 70.5993L111.655 12.1958L169.271 45.6645Z" fill="#C8B990"/>
<path d="M169.271 45.393L68.7508 103.781L11.1346 70.3122V69.4355L13.1857 69.1252L111.655 11.9243L168.137 44.7335L169.271 44.5163V45.393Z" fill="#EAE6DF"/>
<path d="M169.271 44.5163L68.7508 102.904L11.7283 69.8234L11.1346 69.4743L111.655 11.0476L169.271 44.5163Z" fill="#C8B990"/>
<path d="M169.271 44.2215L68.7508 102.633L11.1346 69.164V68.2718L13.1857 67.9615L111.655 10.7761L168.137 43.5853L169.271 43.3681V44.2215Z" fill="#EAE6DF"/>
<path d="M169.271 43.3681L68.7508 101.756L11.7283 68.6364L11.1346 68.2718L111.655 9.89941L169.271 43.3681Z" fill="#C8B990"/>
<path d="M169.271 43.0966L68.7508 101.484L11.1346 68.0158V67.1391L13.1857 66.821L111.655 9.62787L168.137 42.4371L169.271 42.2121V43.0966Z" fill="#EAE6DF"/>
<path d="M169.271 42.2121L68.7508 100.608C66.7537 99.4518 40.2203 84.0519 11.7283 67.4805L11.1346 67.1391L111.655 8.74344L169.271 42.2121Z" fill="#C8B990"/>
<path d="M169.271 41.9484L68.7508 100.336L11.1346 66.8676V65.9909L13.1857 65.6728L111.655 8.47968L168.137 41.2889L169.271 41.0639V41.9484Z" fill="#EAE6DF"/>
<path d="M169.271 41.0639L68.7508 99.4596C66.7537 98.3036 40.2203 82.9037 11.7283 66.3323L11.1346 65.9909L111.655 7.59525L169.271 41.0639Z" fill="#C8B990"/>
<path d="M169.271 40.7924L68.7508 99.1881L11.1346 65.7194V64.8427L13.1857 64.5246L111.655 7.3237L168.137 40.1407L169.271 39.9157V40.7924Z" fill="#EAE6DF"/>
<path d="M169.271 39.9157L68.7508 98.3114L11.7283 65.1685L11.1346 64.8272L111.655 6.44702L169.271 39.9157Z" fill="#C8B990"/>
<path d="M169.271 39.6442L68.7508 98.0399L11.1346 64.5712V63.6867L13.1857 63.3764L111.655 6.20654L168.137 39.0236L169.271 38.7986V39.6442Z" fill="#EAE6DF"/>
<path d="M169.271 38.7908L68.7508 97.1554L11.7283 64.0359L11.1346 63.6867L111.655 5.29883L169.271 38.7908Z" fill="#C8B990"/>
<path d="M87.6349 21.8935L126.282 0L127.323 0.46549L157.234 112.377L120.16 134.635L119.126 134.17C108.624 96.7443 98.1269 59.3189 87.6349 21.8935Z" fill="#EAE6DF"/>
<path d="M88.6682 22.359L127.323 0.465485L158.267 112.842L120.16 134.635L88.6682 22.359Z" fill="#C8B990"/>
<path d="M103.018 77.2247C102.887 76.767 80.9419 64.8117 80.9419 64.8117L96.9421 55.5019L103.018 77.2247Z" fill="#AF9A6B"/>
</svg>
