<svg width="204" height="173" viewBox="0 0 204 173" fill="none" xmlns="http://www.w3.org/2000/svg">
<path d="M109.511 149.755V153.155L59.8224 124.362V120.962L109.511 149.755Z" fill="#D19642"/>
<path d="M95.9837 157.572V160.972L46.2947 132.179V128.779L95.9837 157.572Z" fill="#D19642"/>
<path d="M130.239 137.699V141.099L80.5569 112.306V108.906L130.239 137.699Z" fill="#D19642"/>
<path d="M201.045 96.6288V100.029L151.356 71.2357V67.8358L201.045 96.6288Z" fill="#D19642"/>
<path d="M145.673 128.879V132.279L95.9838 103.486V100.086L145.673 128.879Z" fill="#D19642"/>
<path d="M180.303 108.657V112.057L130.614 83.2636V79.8636L180.303 108.657Z" fill="#D19642"/>
<path d="M18.0346 135.117L12.2238 131.752L78.9412 93.0936L84.752 96.458L18.0346 135.117Z" fill="#FEC169"/>
<path d="M29.2735 141.632L23.4627 138.261L90.173 99.6019L95.9838 102.966L29.2735 141.632Z" fill="#FEC169"/>
<path d="M40.5052 148.14L34.7015 144.776L101.412 106.117L107.223 109.482L40.5052 148.14Z" fill="#FEC169"/>
<path d="M51.744 154.656L45.9333 151.284L112.651 112.626L118.454 115.99L51.744 154.656Z" fill="#FEC169"/>
<path d="M62.9759 161.164L57.1722 157.8L123.882 119.134L129.693 122.498L62.9759 161.164Z" fill="#FEC169"/>
<path d="M75.1784 168.234L68.4039 164.308L135.121 125.649L141.896 129.576L75.1784 168.234Z" fill="#FEC169"/>
<path d="M6.80283 128.608L0 124.668L66.7103 86.0021L73.5131 89.9426L6.80283 128.608Z" fill="#FEC169"/>
<path d="M12.2664 130.572L6.83826 127.428L73.5486 88.7619L78.9766 91.9129L12.2664 130.572Z" fill="#FEC169"/>
<path d="M23.4981 137.08L18.07 133.936L84.7874 95.2773L90.2155 98.4212L23.4981 137.08Z" fill="#FEC169"/>
<path d="M34.7228 143.588L29.2947 140.444L96.0121 101.779L101.44 104.93L34.7228 143.588Z" fill="#FEC169"/>
<path d="M45.9617 150.104L40.5336 146.953L107.244 108.294L112.672 111.438L45.9617 150.104Z" fill="#FEC169"/>
<path d="M57.1934 156.612L51.7653 153.461L118.476 114.802L123.904 117.946L57.1934 156.612Z" fill="#FEC169"/>
<path d="M68.4181 163.113L62.99 159.969L129.707 121.311L135.135 124.454L68.4181 163.113Z" fill="#FEC169"/>
<path d="M147.232 126.51L129.233 136.945L111.226 147.372L75.228 168.241V173L78.1688 171.293V167.95L109.497 149.791V153.134L111.226 152.131L112.963 151.128V147.785L129.233 138.353L145.503 128.928V132.272L147.232 131.269L148.961 130.266V126.923L180.289 108.763V112.106L183.237 110.399V105.641L147.232 126.51Z" fill="#E4AE54"/>
<path d="M167.995 114.489L149.988 124.917L131.989 135.351L95.9838 156.214V160.972L98.9317 159.265V155.922L130.26 137.77V141.113L131.989 140.11L133.718 139.107V135.764L149.988 126.332L166.266 116.901V120.251L167.995 119.248L169.724 118.245V114.895L201.052 96.7426V100.086L204 98.3785V93.62L167.995 114.489Z" fill="#E4AE54"/>
<path d="M68.4252 164.301V163.12L62.9971 159.976V161.15L57.1934 157.793V156.612L51.7653 153.468V154.642L45.9617 151.284V150.104L40.5336 146.96V148.133L34.7299 144.776V143.595L29.3018 140.451V141.625L23.4981 138.268V137.087L18.0701 133.943V135.117L12.2735 131.759V130.579L6.84538 127.435V128.608L0.0425415 124.668V129.426L75.228 173V168.241L68.4252 164.301Z" fill="#D19642"/>
<path d="M12.2735 131.759C12.2735 131.361 12.2735 130.963 12.238 130.564L78.9554 91.8987L80.2876 92.674L12.2735 131.759Z" fill="#E6AE54"/>
<path d="M23.4627 138.261V137.073L90.173 98.4141L91.5052 99.1823L23.4627 138.261Z" fill="#E6AE54"/>
<path d="M34.7228 144.776V143.588L101.44 104.922L102.751 105.698L34.7228 144.776Z" fill="#E6AE54"/>
<path d="M45.9617 151.284V150.096L112.672 111.438L114.004 112.206L45.9617 151.284Z" fill="#E6AE54"/>
<path d="M57.1722 157.8C57.1722 157.401 57.1722 157.003 57.1722 156.612L123.89 117.946L125.222 118.721L57.1722 157.8Z" fill="#E6AE54"/>
<path d="M68.4252 164.308C68.4252 163.91 68.4252 163.518 68.4252 163.127L135.128 124.476L136.468 125.244L68.4252 164.308Z" fill="#E6AE54"/>
<path d="M185.965 83.2139L191.769 86.5854L125.059 125.244L119.248 121.88L185.965 83.2139Z" fill="#FEC169"/>
<path d="M174.727 76.7056L180.537 80.07L113.82 118.736L108.016 115.364L174.727 76.7056Z" fill="#FEC169"/>
<path d="M163.495 70.1972L169.298 73.5616L102.588 112.22L96.7774 108.856L163.495 70.1972Z" fill="#FEC169"/>
<path d="M152.256 63.6818L158.067 67.0462L91.3493 105.712L85.5457 102.34L152.256 63.6818Z" fill="#FEC169"/>
<path d="M141.017 57.1735L146.828 60.5379L80.1176 99.1965L74.3068 95.8321L141.017 57.1735Z" fill="#FEC169"/>
<path d="M128.814 50.0962L135.589 54.0225L68.8787 92.6882L62.1042 88.7619L128.814 50.0962Z" fill="#FEC169"/>
<path d="M197.197 89.7292L204 93.6698L137.283 132.328L130.487 128.388L197.197 89.7292Z" fill="#FEC169"/>
<path d="M191.734 87.7661L197.162 90.91L130.451 129.569L125.023 126.425L191.734 87.7661Z" fill="#FEC169"/>
<path d="M180.502 81.2507L185.93 84.3946L119.213 123.06L113.784 119.916L180.502 81.2507Z" fill="#FEC169"/>
<path d="M169.27 74.7424L174.698 77.8934L107.988 116.552L102.56 113.408L169.27 74.7424Z" fill="#FEC169"/>
<path d="M158.038 68.2341L163.466 71.378L96.7491 110.044L91.321 106.893L158.038 68.2341Z" fill="#FEC169"/>
<path d="M146.807 61.7258L152.235 64.8697L85.5173 103.535L80.0892 100.384L146.807 61.7258Z" fill="#FEC169"/>
<path d="M135.582 55.2175L141.01 58.3685L74.2926 97.0271L68.8645 93.8832L135.582 55.2175Z" fill="#FEC169"/>
<path d="M191.727 86.5782C191.727 86.9766 191.727 87.3749 191.762 87.7732L125.045 126.432L123.712 125.664L191.727 86.5782Z" fill="#E6AE54"/>
<path d="M180.537 80.0699V81.2578L113.813 119.924L112.481 119.148L180.537 80.0699Z" fill="#E6AE54"/>
<path d="M169.263 73.5616V74.7495L102.553 113.408L101.221 112.64L169.263 73.5616Z" fill="#E6AE54"/>
<path d="M158.024 67.0533V68.2341L91.3068 106.9L89.9958 106.125L158.024 67.0533Z" fill="#E6AE54"/>
<path d="M146.828 60.5379C146.828 60.9362 146.828 61.3274 146.828 61.7258L80.075 100.384L78.7428 99.6162L146.828 60.5379Z" fill="#E6AE54"/>
<path d="M135.575 54.058C135.575 54.4493 135.575 54.8405 135.575 55.2388L68.8645 93.8903L67.5323 93.115L135.575 54.058Z" fill="#E6AE54"/>
<path d="M120.113 69.1232V79.8779L97.4577 66.7475V55.9928L120.113 69.1232Z" fill="#BDB7B7"/>
<path d="M130.827 62.9634L120.113 69.173L97.4577 56.0426L108.165 49.833L130.827 62.9634Z" fill="#F3F1F2"/>
<path d="M120.113 69.1232L130.827 62.9136V73.6683L120.113 79.8779V69.1232Z" fill="#E2DCDC"/>
<path d="M144.525 83.2707V94.0183L121.863 80.8879V70.1403L144.525 83.2707Z" fill="#BDB7B7"/>
<path d="M155.239 77.111L144.525 83.3205L121.863 70.1901L132.577 63.9805L155.239 77.111Z" fill="#F3F1F2"/>
<path d="M144.525 83.2707L155.239 77.0612V87.8159L144.525 94.0183V83.2707Z" fill="#E2DCDC"/>
<path d="M168.625 97.0555V107.81L145.97 94.6798V83.9251L168.625 97.0555Z" fill="#BDB7B7"/>
<path d="M179.34 90.9029L168.625 97.1054L145.97 83.9749L156.678 77.7654L179.34 90.9029Z" fill="#F3F1F2"/>
<path d="M168.625 97.0555L179.34 90.8531V101.601L168.625 107.81V97.0555Z" fill="#E2DCDC"/>
<path d="M106.84 63.2053V73.96L84.1851 87.0904V76.3357L106.84 63.2053Z" fill="#E2DCDC"/>
<path d="M73.4493 70.119L84.1567 76.3285V87.0761L73.4493 80.8737V70.119Z" fill="#BDB7B7"/>
<path d="M84.1567 76.3357L73.4493 70.1261L96.1042 56.9957L106.819 63.2052L84.1567 76.3357Z" fill="#F3F1F2"/>
<path d="M120.113 83.2707V94.0183L97.4577 80.8879V70.1403L120.113 83.2707Z" fill="#BDB7B7"/>
<path d="M130.827 77.111L120.113 83.3205L97.4577 70.1901L108.165 63.9805L130.827 77.111Z" fill="#F3F1F2"/>
<path d="M120.113 83.2707L130.827 77.0612V87.8159L120.113 94.0183V83.2707Z" fill="#E2DCDC"/>
<path d="M144.213 97.0555V107.81L121.558 94.6798V83.9251L144.213 97.0555Z" fill="#BDB7B7"/>
<path d="M154.927 90.9029L144.213 97.1054L121.558 83.9749L132.265 77.7654L154.927 90.9029Z" fill="#F3F1F2"/>
<path d="M144.213 97.0555L154.927 90.8531V101.601L144.213 107.81V97.0555Z" fill="#E2DCDC"/>
<path d="M131.139 62.9634L120.424 69.173L97.7624 56.0426L108.477 49.833L131.139 62.9634Z" fill="#F3F1F2"/>
<path d="M84.1709 76.3357L73.4564 70.1261L96.1184 56.9957L106.826 63.2052L84.1709 76.3357Z" fill="#F3F1F2"/>
<path d="M59.6594 104.503L48.952 98.3003L71.6069 85.1699L82.3213 91.3724L59.6594 104.503Z" fill="#F3F1F2"/>
<path d="M83.9158 90.4548L73.2014 84.2452L95.8633 71.1148L106.571 77.3173L83.9158 90.4548Z" fill="#F3F1F2"/>
<path d="M71.7132 111.488L60.9987 105.278L83.6607 92.1476L94.3751 98.3572L71.7132 111.488Z" fill="#F3F1F2"/>
<path d="M95.9625 97.4325L85.2551 91.2301L107.91 78.0925L118.624 84.3021L95.9625 97.4325Z" fill="#F3F1F2"/>
<path d="M83.7599 118.472L73.0526 112.263L95.7074 99.1325L106.422 105.342L83.7599 118.472Z" fill="#F3F1F2"/>
<path d="M108.016 104.417L97.3018 98.2078L119.964 85.0774L130.678 91.287L108.016 104.417Z" fill="#F3F1F2"/>
<path d="M95.8137 125.457L85.0992 119.248L107.761 106.117L118.476 112.327L95.8137 125.457Z" fill="#F3F1F2"/>
<path d="M120.063 111.402L109.356 105.193L132.01 92.0623L142.725 98.2718L120.063 111.402Z" fill="#F3F1F2"/>
<path d="M59.865 90.4263L49.1505 84.2168L71.8124 71.0864L82.5198 77.2888L59.865 90.4263Z" fill="#F3F1F2"/>
<path d="M35.559 104.51L24.8445 98.3003L47.5065 85.1699L58.2139 91.3795L35.559 104.51Z" fill="#F3F1F2"/>
<path d="M144.319 111.196L133.605 104.986L156.267 91.856L166.974 98.0656L144.319 111.196Z" fill="#F3F1F2"/>
<path d="M120.013 125.28L109.299 119.07L131.961 105.94L142.668 112.149L120.013 125.28Z" fill="#F3F1F2"/>
<path d="M95.7074 139.37L84.9929 133.161L107.655 120.03L118.362 126.233L95.7074 139.37Z" fill="#F3F1F2"/>
<path d="M155.239 76.9332L144.525 83.1427L121.863 70.0123L132.577 63.8027L155.239 76.9332Z" fill="#F3F1F2"/>
<path d="M179.34 90.9029L168.625 97.1054L145.97 83.9749L156.678 77.7654L179.34 90.9029Z" fill="#F3F1F2"/>
<path d="M130.827 77.111L120.113 83.3205L97.4577 70.1901L108.165 63.9805L130.827 77.111Z" fill="#F3F1F2"/>
<path d="M154.927 91.0807L144.213 97.2903L121.558 84.1528L132.265 77.9503L154.927 91.0807Z" fill="#F3F1F2"/>
<path d="M70.2676 112.206L59.5532 118.416L36.8983 105.285L47.6057 99.0756L70.2676 112.206Z" fill="#F3F1F2"/>
<path d="M94.368 126.176L83.6536 132.385L60.9987 119.255L71.7061 113.045L94.368 126.176Z" fill="#F3F1F2"/>
<path d="M45.8553 112.384L35.1409 118.593L12.486 105.463L23.1934 99.2534L45.8553 112.384Z" fill="#F3F1F2"/>
<path d="M69.9558 126.354L59.2484 132.563L36.5865 119.433L47.301 113.223L69.9558 126.354Z" fill="#F3F1F2"/>
<path d="M94.0563 140.323L83.3489 146.526L60.687 133.395L71.4014 127.193L94.0563 140.323Z" fill="#F3F1F2"/>
<path d="M82.5339 77.6089V88.3565L59.872 101.487V90.7393L82.5339 77.6089Z" fill="#E2DCDC"/>
<path d="M49.1434 84.5155L59.8507 90.7251V101.48L49.1434 95.2702V84.5155Z" fill="#BDB7B7"/>
<path d="M59.8508 90.7322L49.1434 84.5297L71.7982 71.3993L82.5127 77.6017L59.8508 90.7322Z" fill="#F3F1F2"/>
<path d="M58.228 91.7493V102.504L35.566 115.634V104.88L58.228 91.7493Z" fill="#E2DCDC"/>
<path d="M24.8375 98.6631L35.5448 104.873V115.62L24.8375 109.418V98.6631Z" fill="#BDB7B7"/>
<path d="M35.5448 104.88L24.8375 98.6701L47.4923 85.5397L58.2068 91.7493L35.5448 104.88Z" fill="#F3F1F2"/>
<path d="M106.436 77.6089V88.3565L83.774 101.487V90.7393L106.436 77.6089Z" fill="#E2DCDC"/>
<path d="M73.0383 84.5155L83.7528 90.7251V101.48L73.0383 95.2702V84.5155Z" fill="#BDB7B7"/>
<path d="M83.7528 90.7322L73.0383 84.5297L95.7003 71.3993L106.408 77.6017L83.7528 90.7322Z" fill="#F3F1F2"/>
<path d="M82.5198 91.3795V102.134L59.8649 115.265V104.51L82.5198 91.3795Z" fill="#E2DCDC"/>
<path d="M49.1292 98.2932L59.8366 104.503V115.25L49.1292 109.048V98.2932Z" fill="#BDB7B7"/>
<path d="M59.8366 104.51L49.1292 98.3003L71.7911 85.1699L82.4985 91.3795L59.8366 104.51Z" fill="#F3F1F2"/>
<path d="M118.738 84.1599V94.9146L96.0829 108.045V97.2903L118.738 84.1599Z" fill="#E2DCDC"/>
<path d="M85.3472 91.0736L96.0617 97.2832V108.031L85.3472 101.828V91.0736Z" fill="#BDB7B7"/>
<path d="M96.0617 97.2903L85.3472 91.0807L108.009 77.9503L118.717 84.1599L96.0617 97.2903Z" fill="#F3F1F2"/>
<path d="M130.685 91.1163V101.864L108.023 115.001V104.247L130.685 91.1163Z" fill="#E2DCDC"/>
<path d="M97.2947 98.03L108.002 104.232V114.987L97.2947 108.778V98.03Z" fill="#BDB7B7"/>
<path d="M108.002 104.247L97.2947 98.0372L119.95 84.9067L130.664 91.1092L108.002 104.247Z" fill="#F3F1F2"/>
<path d="M94.0705 98.3074V109.055L71.4085 122.193V111.438L94.0705 98.3074Z" fill="#E2DCDC"/>
<path d="M60.6728 105.221L71.3872 111.431V122.178L60.6728 115.969V105.221Z" fill="#BDB7B7"/>
<path d="M71.3873 111.438L60.6728 105.228L83.3347 92.0978L94.0492 98.3074L71.3873 111.438Z" fill="#F3F1F2"/>
<path d="M59.5532 118.544V129.298L36.8983 116.168V105.413L59.5532 118.544Z" fill="#BDB7B7"/>
<path d="M70.2676 112.384L59.5532 118.593L36.8983 105.463L47.6057 99.2534L70.2676 112.384Z" fill="#F3F1F2"/>
<path d="M59.5532 118.544L70.2676 112.341V123.089L59.5532 129.298V118.544Z" fill="#E2DCDC"/>
<path d="M106.422 105.342V116.097L83.7599 129.227V118.473L106.422 105.342Z" fill="#E2DCDC"/>
<path d="M73.0312 112.256L83.7386 118.465V129.213L73.0312 123.011V112.256Z" fill="#BDB7B7"/>
<path d="M83.7386 118.472L73.0312 112.263L95.6861 99.1325L106.401 105.342L83.7386 118.472Z" fill="#F3F1F2"/>
<path d="M142.81 98.3572V109.112L120.148 122.242V111.495L142.81 98.3572Z" fill="#E2DCDC"/>
<path d="M109.412 105.271L120.127 111.48V122.235L109.412 116.026V105.271Z" fill="#BDB7B7"/>
<path d="M120.127 111.488L109.412 105.278L132.074 92.1476L142.782 98.3572L120.127 111.488Z" fill="#F3F1F2"/>
<path d="M118.539 112.59V123.338L95.8845 136.468V125.721L118.539 112.59Z" fill="#E2DCDC"/>
<path d="M85.1488 119.504L95.8633 125.706V136.461L85.1488 130.251V119.504Z" fill="#BDB7B7"/>
<path d="M95.8633 125.721L85.1488 119.511L107.811 106.381L118.518 112.583L95.8633 125.721Z" fill="#F3F1F2"/>
<path d="M83.6961 132.513V143.261L61.0413 130.131V119.383L83.6961 132.513Z" fill="#BDB7B7"/>
<path d="M94.4106 126.354L83.6961 132.563L61.0413 119.433L71.7486 113.223L94.4106 126.354Z" fill="#F3F1F2"/>
<path d="M83.6961 132.513L94.4106 126.304V137.059L83.6961 143.261V132.513Z" fill="#E2DCDC"/>
<path d="M35.1409 118.423V129.177L12.486 116.047V105.292L35.1409 118.423Z" fill="#BDB7B7"/>
<path d="M45.8553 112.263L35.1409 118.472L12.486 105.342L23.1934 99.1325L45.8553 112.263Z" fill="#F3F1F2"/>
<path d="M35.1409 118.423L45.8553 112.213V122.968L35.1409 129.177V118.423Z" fill="#E2DCDC"/>
<path d="M166.988 98.3074V109.055L144.333 122.193V111.438L166.988 98.3074Z" fill="#E2DCDC"/>
<path d="M133.598 105.221L144.305 111.431V122.178L133.598 115.969V105.221Z" fill="#BDB7B7"/>
<path d="M144.305 111.438L133.598 105.228L156.253 92.0978L166.967 98.3074L144.305 111.438Z" fill="#F3F1F2"/>
<path d="M59.2484 132.513V143.261L36.5865 130.131V119.383L59.2484 132.513Z" fill="#BDB7B7"/>
<path d="M69.9558 126.354L59.2484 132.563L36.5865 119.433L47.301 113.223L69.9558 126.354Z" fill="#F3F1F2"/>
<path d="M59.2484 132.513L69.9558 126.304V137.059L59.2484 143.261V132.513Z" fill="#E2DCDC"/>
<path d="M142.888 111.978V122.733L120.233 135.864V125.109L142.888 111.978Z" fill="#E2DCDC"/>
<path d="M109.497 118.892L120.212 125.102V135.856L109.497 129.647V118.892Z" fill="#BDB7B7"/>
<path d="M120.212 125.109L109.497 118.899L132.159 105.769L142.867 111.978L120.212 125.109Z" fill="#F3F1F2"/>
<path d="M118.738 126.24V136.987L96.0829 150.118V139.37L118.738 126.24Z" fill="#E2DCDC"/>
<path d="M85.3472 133.146L96.0546 139.356V150.111L85.3472 143.901V133.146Z" fill="#BDB7B7"/>
<path d="M96.0546 139.37L85.3472 133.161L108.002 120.03L118.717 126.233L96.0546 139.37Z" fill="#F3F1F2"/>
<path d="M83.6961 146.476V157.231L61.0413 144.1V133.346L83.6961 146.476Z" fill="#BDB7B7"/>
<path d="M94.4106 140.323L83.6961 146.526L61.0413 133.395L71.7486 127.193L94.4106 140.323Z" fill="#F3F1F2"/>
<path d="M83.6961 146.476L94.4106 140.274V151.021L83.6961 157.231V146.476Z" fill="#E2DCDC"/>
<path d="M120.113 56.6685V67.4161L97.4577 54.2857V43.5309L120.113 56.6685Z" fill="#BDB7B7"/>
<path d="M130.827 50.5087L120.113 56.7183L97.4577 43.5807L108.165 37.3783L130.827 50.5087Z" fill="#F3F1F2"/>
<path d="M120.113 56.6685L130.827 50.4589V61.2065L120.113 67.4161V56.6685Z" fill="#E2DCDC"/>
<path d="M144.525 70.8089V81.5637L121.863 68.4332V57.6785L144.525 70.8089Z" fill="#BDB7B7"/>
<path d="M155.239 64.6563L144.525 70.8588L121.863 57.7283L132.577 51.5259L155.239 64.6563Z" fill="#F3F1F2"/>
<path d="M144.525 70.809L155.239 64.6065V75.3541L144.525 81.5637V70.809Z" fill="#E2DCDC"/>
<path d="M168.625 84.6009V95.3485L145.97 82.218V71.4705L168.625 84.6009Z" fill="#BDB7B7"/>
<path d="M179.34 78.4411L168.625 84.6507L145.97 71.5202L156.678 65.3107L179.34 78.4411Z" fill="#F3F1F2"/>
<path d="M168.625 84.6009L179.34 78.3913V89.146L168.625 95.3485V84.6009Z" fill="#E2DCDC"/>
<path d="M106.84 50.7505V61.4981L84.1851 74.6286V63.881L106.84 50.7505Z" fill="#E2DCDC"/>
<path d="M73.4493 57.6643L84.1567 63.8668V74.6215L73.4493 68.4119V57.6643Z" fill="#BDB7B7"/>
<path d="M84.1567 63.881L73.4493 57.6714L96.1042 44.541L106.819 50.7435L84.1567 63.881Z" fill="#F3F1F2"/>
<path d="M120.113 70.8089V81.5637L97.4577 68.4332V57.6785L120.113 70.8089Z" fill="#BDB7B7"/>
<path d="M130.827 64.6563L120.113 70.8588L97.4577 57.7283L108.165 51.5259L130.827 64.6563Z" fill="#F3F1F2"/>
<path d="M120.113 70.809L130.827 64.6065V75.3541L120.113 81.5637V70.809Z" fill="#E2DCDC"/>
<path d="M144.213 84.6009V95.3485L121.558 82.218V71.4705L144.213 84.6009Z" fill="#BDB7B7"/>
<path d="M154.927 78.4411L144.213 84.6507L121.558 71.5202L132.265 65.3107L154.927 78.4411Z" fill="#F3F1F2"/>
<path d="M144.213 84.6009L154.927 78.3913V89.146L144.213 95.3485V84.6009Z" fill="#E2DCDC"/>
<path d="M131.139 50.5087L120.424 56.7183L97.7624 43.5807L108.477 37.3783L131.139 50.5087Z" fill="#F3F1F2"/>
<path d="M84.1709 63.881L73.4564 57.6714L96.1184 44.541L106.826 50.7435L84.1709 63.881Z" fill="#F3F1F2"/>
<path d="M59.6594 92.048L48.952 85.8385L71.6069 72.7081L82.3213 78.9176L59.6594 92.048Z" fill="#F3F1F2"/>
<path d="M83.9158 77.9929L73.2014 71.7834L95.8633 58.653L106.571 64.8625L83.9158 77.9929Z" fill="#F3F1F2"/>
<path d="M71.7132 99.033L60.9987 92.8234L83.6607 79.693L94.3751 85.9026L71.7132 99.033Z" fill="#F3F1F2"/>
<path d="M95.9625 84.9778L85.2551 78.7682L107.91 65.6378L118.624 71.8474L95.9625 84.9778Z" fill="#F3F1F2"/>
<path d="M83.7599 106.011L73.0526 99.8083L95.7074 86.6779L106.422 92.8803L83.7599 106.011Z" fill="#F3F1F2"/>
<path d="M108.016 91.9556L97.3018 85.7532L119.964 72.6227L130.678 78.8252L108.016 91.9556Z" fill="#F3F1F2"/>
<path d="M95.8137 112.996L85.0992 106.786L107.761 93.6556L118.476 99.8651L95.8137 112.996Z" fill="#F3F1F2"/>
<path d="M120.063 98.9405L109.356 92.738L132.01 79.6076L142.725 85.8101L120.063 98.9405Z" fill="#F3F1F2"/>
<path d="M59.865 77.9645L49.1505 71.7549L71.8124 58.6245L82.5198 64.8341L59.865 77.9645Z" fill="#F3F1F2"/>
<path d="M35.559 92.048L24.8445 85.8456L47.5065 72.7081L58.2139 78.9176L35.559 92.048Z" fill="#F3F1F2"/>
<path d="M144.319 98.7342L133.605 92.5247L156.267 79.3942L166.974 85.6038L144.319 98.7342Z" fill="#F3F1F2"/>
<path d="M120.013 112.825L109.299 106.615L131.961 93.4849L142.668 99.6873L120.013 112.825Z" fill="#F3F1F2"/>
<path d="M95.7074 126.908L84.9929 120.699L107.655 107.568L118.362 113.778L95.7074 126.908Z" fill="#F3F1F2"/>
<path d="M155.239 64.4714L144.525 70.6809L121.863 57.5505L132.577 51.3409L155.239 64.4714Z" fill="#F3F1F2"/>
<path d="M179.34 78.4411L168.625 84.6507L145.97 71.5202L156.678 65.3107L179.34 78.4411Z" fill="#F3F1F2"/>
<path d="M130.827 64.6563L120.113 70.8588L97.4577 57.7283L108.165 51.5259L130.827 64.6563Z" fill="#F3F1F2"/>
<path d="M154.927 78.6189L144.213 84.8284L121.558 71.698L132.265 65.4885L154.927 78.6189Z" fill="#F3F1F2"/>
<path d="M70.2676 99.7513L59.5532 105.961L36.8983 92.8234L47.6057 86.6209L70.2676 99.7513Z" fill="#F3F1F2"/>
<path d="M94.368 113.714L83.6536 119.924L60.9987 106.793L71.7061 100.584L94.368 113.714Z" fill="#F3F1F2"/>
<path d="M45.8553 99.9291L35.1409 106.139L12.486 93.0012L23.1934 86.7987L45.8553 99.9291Z" fill="#F3F1F2"/>
<path d="M69.9558 113.899L59.2484 120.101L36.5865 106.971L47.301 100.761L69.9558 113.899Z" fill="#F3F1F2"/>
<path d="M94.0563 127.861L83.3489 134.071L60.687 120.941L71.4014 114.731L94.0563 127.861Z" fill="#F3F1F2"/>
<path d="M82.5339 65.1471V75.8947L59.872 89.0322V78.2775L82.5339 65.1471Z" fill="#E2DCDC"/>
<path d="M49.1434 72.0608L59.8507 78.2632V89.018L49.1434 82.8084V72.0608Z" fill="#BDB7B7"/>
<path d="M59.8508 78.2775L49.1434 72.0679L71.7982 58.9375L82.5127 65.1471L59.8508 78.2775Z" fill="#F3F1F2"/>
<path d="M58.228 79.2946V90.0422L35.566 103.173V92.425L58.228 79.2946Z" fill="#E2DCDC"/>
<path d="M24.8375 86.2084L35.5448 92.4108V103.166L24.8375 96.956V86.2084Z" fill="#BDB7B7"/>
<path d="M35.5448 92.4251L24.8375 86.2155L47.4923 73.0851L58.2068 79.2875L35.5448 92.4251Z" fill="#F3F1F2"/>
<path d="M106.436 65.1471V75.8947L83.774 89.0322V78.2775L106.436 65.1471Z" fill="#E2DCDC"/>
<path d="M73.0383 72.0608L83.7528 78.2632V89.018L73.0383 82.8084V72.0608Z" fill="#BDB7B7"/>
<path d="M83.7528 78.2775L73.0383 72.0679L95.7003 58.9375L106.408 65.1471L83.7528 78.2775Z" fill="#F3F1F2"/>
<path d="M82.5198 78.9177V89.6724L59.8649 102.803V92.0481L82.5198 78.9177Z" fill="#E2DCDC"/>
<path d="M49.1292 85.8314L59.8366 92.041V102.796L49.1292 96.5861V85.8314Z" fill="#BDB7B7"/>
<path d="M59.8366 92.048L49.1292 85.8456L71.7911 72.7081L82.4985 78.9176L59.8366 92.048Z" fill="#F3F1F2"/>
<path d="M118.738 71.7051V82.4527L96.0829 95.5832V84.8356L118.738 71.7051Z" fill="#E2DCDC"/>
<path d="M85.3472 78.6189L96.0617 84.8213V95.576L85.3472 89.3665V78.6189Z" fill="#BDB7B7"/>
<path d="M96.0617 84.8356L85.3472 78.626L108.009 65.4956L118.717 71.6981L96.0617 84.8356Z" fill="#F3F1F2"/>
<path d="M130.685 78.6545V89.4092L108.023 102.54V91.7849L130.685 78.6545Z" fill="#E2DCDC"/>
<path d="M97.2947 85.5682L108.002 91.7778V102.525L97.2947 96.3229V85.5682Z" fill="#BDB7B7"/>
<path d="M108.002 91.7849L97.2947 85.5753L119.95 72.4449L130.664 78.6545L108.002 91.7849Z" fill="#F3F1F2"/>
<path d="M94.0705 85.8456V96.6003L71.4085 109.731V98.9831L94.0705 85.8456Z" fill="#E2DCDC"/>
<path d="M60.6728 92.7593L71.3872 98.9689V109.716L60.6728 103.514V92.7593Z" fill="#BDB7B7"/>
<path d="M71.3873 98.976L60.6728 92.7736L83.3347 79.636L94.0492 85.8456L71.3873 98.976Z" fill="#F3F1F2"/>
<path d="M59.5532 106.089V116.836L36.8983 103.706V92.9585L59.5532 106.089Z" fill="#BDB7B7"/>
<path d="M70.2676 99.9291L59.5532 106.139L36.8983 93.0012L47.6057 86.7987L70.2676 99.9291Z" fill="#F3F1F2"/>
<path d="M59.5532 106.089L70.2676 99.8794V110.627L59.5532 116.837V106.089Z" fill="#E2DCDC"/>
<path d="M106.422 92.8874V103.635L83.7599 116.765V106.018L106.422 92.8874Z" fill="#E2DCDC"/>
<path d="M73.0312 99.8011L83.7386 106.004V116.758L73.0312 110.549V99.8011Z" fill="#BDB7B7"/>
<path d="M83.7386 106.011L73.0312 99.8083L95.6861 86.6779L106.401 92.8803L83.7386 106.011Z" fill="#F3F1F2"/>
<path d="M142.81 85.9025V96.6501L120.148 109.781V99.0329L142.81 85.9025Z" fill="#E2DCDC"/>
<path d="M109.412 92.8163L120.127 99.0187V109.773L109.412 103.564V92.8163Z" fill="#BDB7B7"/>
<path d="M120.127 99.033L109.412 92.8234L132.074 79.693L142.782 85.9026L120.127 99.033Z" fill="#F3F1F2"/>
<path d="M118.539 100.128V110.883L95.8845 124.013V113.259L118.539 100.128Z" fill="#E2DCDC"/>
<path d="M85.1488 107.042L95.8633 113.252V123.999L85.1488 117.797V107.042Z" fill="#BDB7B7"/>
<path d="M95.8633 113.259L85.1488 107.049L107.811 93.9188L118.518 100.128L95.8633 113.259Z" fill="#F3F1F2"/>
<path d="M83.6961 120.052V130.806L61.0413 117.676V106.921L83.6961 120.052Z" fill="#BDB7B7"/>
<path d="M94.4106 113.899L83.6961 120.101L61.0413 106.971L71.7486 100.761L94.4106 113.899Z" fill="#F3F1F2"/>
<path d="M83.6961 120.052L94.4106 113.849V124.597L83.6961 130.806V120.052Z" fill="#E2DCDC"/>
<path d="M35.1409 105.961V116.716L12.486 103.585V92.8304L35.1409 105.961Z" fill="#BDB7B7"/>
<path d="M45.8553 99.8083L35.1409 106.011L12.486 92.8803L23.1934 86.6779L45.8553 99.8083Z" fill="#F3F1F2"/>
<path d="M35.1409 105.961L45.8553 99.7584V110.506L35.1409 116.716V105.961Z" fill="#E2DCDC"/>
<path d="M166.988 85.8456V96.6003L144.333 109.731V98.9831L166.988 85.8456Z" fill="#E2DCDC"/>
<path d="M133.598 92.7593L144.305 98.9689V109.716L133.598 103.514V92.7593Z" fill="#BDB7B7"/>
<path d="M144.305 98.976L133.598 92.7736L156.253 79.636L166.967 85.8456L144.305 98.976Z" fill="#F3F1F2"/>
<path d="M59.2484 120.052V130.806L36.5865 117.676V106.921L59.2484 120.052Z" fill="#BDB7B7"/>
<path d="M69.9558 113.899L59.2484 120.101L36.5865 106.971L47.301 100.761L69.9558 113.899Z" fill="#F3F1F2"/>
<path d="M59.2484 120.052L69.9558 113.849V124.597L59.2484 130.806V120.052Z" fill="#E2DCDC"/>
<path d="M142.888 99.5237V110.271L120.233 123.402V112.654L142.888 99.5237Z" fill="#E2DCDC"/>
<path d="M109.497 106.437L120.212 112.64V123.395L109.497 117.185V106.437Z" fill="#BDB7B7"/>
<path d="M120.212 112.654L109.497 106.445L132.159 93.3141L142.867 99.5166L120.212 112.654Z" fill="#F3F1F2"/>
<path d="M118.738 113.778V124.533L96.0829 137.663V126.908L118.738 113.778Z" fill="#E2DCDC"/>
<path d="M85.3472 120.692L96.0546 126.901V137.649L85.3472 131.439V120.692Z" fill="#BDB7B7"/>
<path d="M96.0546 126.908L85.3472 120.699L108.002 107.568L118.717 113.778L96.0546 126.908Z" fill="#F3F1F2"/>
<path d="M83.6961 134.021V144.769L61.0413 131.638V120.891L83.6961 134.021Z" fill="#BDB7B7"/>
<path d="M94.4106 127.861L83.6961 134.071L61.0413 120.941L71.7486 114.731L94.4106 127.861Z" fill="#F3F1F2"/>
<path d="M83.6961 134.021L94.4106 127.812V138.566L83.6961 144.769V134.021Z" fill="#E2DCDC"/>
<path d="M120.113 44.2067V54.9614L97.4577 41.8239V31.0763L120.113 44.2067Z" fill="#BDB7B7"/>
<path d="M130.827 38.0469L120.113 44.2565L97.4577 31.1261L108.165 24.9165L130.827 38.0469Z" fill="#F3F1F2"/>
<path d="M120.113 44.2067L130.827 37.9971V48.7518L120.113 54.9614V44.2067Z" fill="#E2DCDC"/>
<path d="M144.525 58.3542V69.1018L121.863 55.9714V45.2238L144.525 58.3542Z" fill="#BDB7B7"/>
<path d="M155.239 52.1945L144.525 58.4041L121.863 45.2737L132.577 39.0641L155.239 52.1945Z" fill="#F3F1F2"/>
<path d="M144.525 58.3542L155.239 52.1447V62.8994L144.525 69.1018V58.3542Z" fill="#E2DCDC"/>
<path d="M168.625 72.139V82.8937L145.97 69.7633V59.0086L168.625 72.139Z" fill="#BDB7B7"/>
<path d="M179.34 65.9864L168.625 72.1889L145.97 59.0584L156.678 52.8489L179.34 65.9864Z" fill="#F3F1F2"/>
<path d="M168.625 72.1391L179.34 65.9295V76.6842L168.625 82.8938V72.1391Z" fill="#E2DCDC"/>
<path d="M106.84 38.2888V49.0435L84.1851 62.1739V51.4192L106.84 38.2888Z" fill="#E2DCDC"/>
<path d="M73.4493 45.2025L84.1567 51.4121V62.1597L73.4493 55.9572V45.2025Z" fill="#BDB7B7"/>
<path d="M84.1567 51.4192L73.4493 45.2096L96.1042 32.0792L106.819 38.2888L84.1567 51.4192Z" fill="#F3F1F2"/>
<path d="M120.113 58.3542V69.1018L97.4577 55.9714V45.2238L120.113 58.3542Z" fill="#BDB7B7"/>
<path d="M130.827 52.1945L120.113 58.4041L97.4577 45.2737L108.165 39.0641L130.827 52.1945Z" fill="#F3F1F2"/>
<path d="M120.113 58.3542L130.827 52.1447V62.8994L120.113 69.1018V58.3542Z" fill="#E2DCDC"/>
<path d="M144.213 72.139V82.8937L121.558 69.7633V59.0086L144.213 72.139Z" fill="#BDB7B7"/>
<path d="M154.927 65.9864L144.213 72.1889L121.558 59.0584L132.265 52.8489L154.927 65.9864Z" fill="#F3F1F2"/>
<path d="M144.213 72.1391L154.927 65.9295V76.6842L144.213 82.8938V72.1391Z" fill="#E2DCDC"/>
<path d="M131.139 38.0469L120.424 44.2565L97.7624 31.1261L108.477 24.9165L131.139 38.0469Z" fill="#F3F1F2"/>
<path d="M84.1709 51.4192L73.4564 45.2096L96.1184 32.0792L106.826 38.2888L84.1709 51.4192Z" fill="#F3F1F2"/>
<path d="M59.6594 79.5863L48.952 73.3838L71.6069 60.2463L82.3213 66.4558L59.6594 79.5863Z" fill="#F3F1F2"/>
<path d="M83.9158 65.5311L73.2014 59.3287L95.8633 46.1912L106.571 52.4007L83.9158 65.5311Z" fill="#F3F1F2"/>
<path d="M71.7132 86.5711L60.9987 80.3616L83.6607 67.2311L94.3751 73.4407L71.7132 86.5711Z" fill="#F3F1F2"/>
<path d="M95.9625 72.516L85.2551 66.3064L107.91 53.176L118.624 59.3856L95.9625 72.516Z" fill="#F3F1F2"/>
<path d="M83.7599 93.556L73.0526 87.3464L95.7074 74.216L106.422 80.4256L83.7599 93.556Z" fill="#F3F1F2"/>
<path d="M108.016 79.5009L97.3018 73.2914L119.964 60.1609L130.678 66.3705L108.016 79.5009Z" fill="#F3F1F2"/>
<path d="M95.8137 100.541L85.0992 94.3313L107.761 81.2009L118.476 87.4104L95.8137 100.541Z" fill="#F3F1F2"/>
<path d="M120.063 86.4858L109.356 80.2762L132.01 67.1458L142.725 73.3554L120.063 86.4858Z" fill="#F3F1F2"/>
<path d="M59.865 65.5027L49.1505 59.3003L71.8124 46.1699L82.5198 52.3723L59.865 65.5027Z" fill="#F3F1F2"/>
<path d="M35.559 79.5933L24.8445 73.3838L47.5065 60.2534L58.2139 66.4629L35.559 79.5933Z" fill="#F3F1F2"/>
<path d="M144.319 86.2795L133.605 80.0699L156.267 66.9395L166.974 73.142L144.319 86.2795Z" fill="#F3F1F2"/>
<path d="M120.013 100.363L109.299 94.1535L131.961 81.0231L142.668 87.2326L120.013 100.363Z" fill="#F3F1F2"/>
<path d="M95.7074 114.447L84.9929 108.244L107.655 95.1138L118.362 101.316L95.7074 114.447Z" fill="#F3F1F2"/>
<path d="M155.239 52.0166L144.525 58.2262L121.863 45.0958L132.577 38.8862L155.239 52.0166Z" fill="#F3F1F2"/>
<path d="M179.34 65.9864L168.625 72.1889L145.97 59.0584L156.678 52.8489L179.34 65.9864Z" fill="#F3F1F2"/>
<path d="M130.827 52.1945L120.113 58.4041L97.4577 45.2737L108.165 39.0641L130.827 52.1945Z" fill="#F3F1F2"/>
<path d="M154.927 66.1642L144.213 72.3667L121.558 59.2363L132.265 53.0338L154.927 66.1642Z" fill="#F3F1F2"/>
<path d="M70.2676 87.2895L59.5532 93.4991L36.8983 80.3687L47.6057 74.1591L70.2676 87.2895Z" fill="#F3F1F2"/>
<path d="M94.368 101.259L83.6536 107.469L60.9987 94.3313L71.7061 88.1288L94.368 101.259Z" fill="#F3F1F2"/>
<path d="M45.8553 87.4673L35.1409 93.6769L12.486 80.5465L23.1934 74.3369L45.8553 87.4673Z" fill="#F3F1F2"/>
<path d="M69.9558 101.437L59.2484 107.647L36.5865 94.5162L47.301 88.3066L69.9558 101.437Z" fill="#F3F1F2"/>
<path d="M94.0563 115.407L83.3489 121.609L60.687 108.479L71.4014 102.269L94.0563 115.407Z" fill="#F3F1F2"/>
<path d="M82.5339 52.6852V63.44L59.872 76.5704V65.8157L82.5339 52.6852Z" fill="#E2DCDC"/>
<path d="M49.1434 59.599L59.8507 65.8086V76.5633L49.1434 70.3537V59.599Z" fill="#BDB7B7"/>
<path d="M59.8508 65.8157L49.1434 59.6132L71.7982 46.4757L82.5127 52.6853L59.8508 65.8157Z" fill="#F3F1F2"/>
<path d="M58.228 66.8328V77.5875L35.566 90.7179V79.9632L58.228 66.8328Z" fill="#E2DCDC"/>
<path d="M24.8375 73.7466L35.5448 79.9561V90.7037L24.8375 84.5013V73.7466Z" fill="#BDB7B7"/>
<path d="M35.5448 79.9633L24.8375 73.7537L47.4923 60.6233L58.2068 66.8329L35.5448 79.9633Z" fill="#F3F1F2"/>
<path d="M106.436 52.6852V63.44L83.774 76.5704V65.8157L106.436 52.6852Z" fill="#E2DCDC"/>
<path d="M73.0383 59.599L83.7528 65.8086V76.5633L73.0383 70.3537V59.599Z" fill="#BDB7B7"/>
<path d="M83.7528 65.8157L73.0383 59.6132L95.7003 46.4757L106.408 52.6853L83.7528 65.8157Z" fill="#F3F1F2"/>
<path d="M82.5198 66.463V77.2105L59.8649 90.3481V79.5934L82.5198 66.463Z" fill="#E2DCDC"/>
<path d="M49.1292 73.3767L59.8366 79.5792V90.3339L49.1292 84.1243V73.3767Z" fill="#BDB7B7"/>
<path d="M59.8366 79.5933L49.1292 73.3838L71.7911 60.2534L82.4985 66.4629L59.8366 79.5933Z" fill="#F3F1F2"/>
<path d="M118.738 59.2433V69.9981L96.0829 83.1285V72.3738L118.738 59.2433Z" fill="#E2DCDC"/>
<path d="M85.3472 66.1571L96.0617 72.3667V83.1143L85.3472 76.9118V66.1571Z" fill="#BDB7B7"/>
<path d="M96.0617 72.3738L85.3472 66.1642L108.009 53.0338L118.717 59.2434L96.0617 72.3738Z" fill="#F3F1F2"/>
<path d="M130.685 66.1998V76.9474L108.023 90.0778V79.3302L130.685 66.1998Z" fill="#E2DCDC"/>
<path d="M97.2947 73.1064L108.002 79.316V90.0707L97.2947 83.8611V73.1064Z" fill="#BDB7B7"/>
<path d="M108.002 79.3302L97.2947 73.1207L119.95 59.9902L130.664 66.1927L108.002 79.3302Z" fill="#F3F1F2"/>
<path d="M94.0705 73.3909V84.1385L71.4085 97.2689V86.5213L94.0705 73.3909Z" fill="#E2DCDC"/>
<path d="M60.6728 80.3047L71.3872 86.5071V97.2619L60.6728 91.0523V80.3047Z" fill="#BDB7B7"/>
<path d="M71.3873 86.5213L60.6728 80.3118L83.3347 67.1813L94.0492 73.3838L71.3873 86.5213Z" fill="#F3F1F2"/>
<path d="M59.5532 93.6271V104.382L36.8983 91.2443V80.4967L59.5532 93.6271Z" fill="#BDB7B7"/>
<path d="M70.2676 87.4673L59.5532 93.6769L36.8983 80.5465L47.6057 74.3369L70.2676 87.4673Z" fill="#F3F1F2"/>
<path d="M59.5532 93.6271L70.2676 87.4175V98.1722L59.5532 104.382V93.6271Z" fill="#E2DCDC"/>
<path d="M106.422 80.4256V91.1803L83.7599 104.311V93.556L106.422 80.4256Z" fill="#E2DCDC"/>
<path d="M73.0312 87.3394L83.7386 93.5489V104.297L73.0312 98.0941V87.3394Z" fill="#BDB7B7"/>
<path d="M83.7386 93.556L73.0312 87.3464L95.6861 74.216L106.401 80.4256L83.7386 93.556Z" fill="#F3F1F2"/>
<path d="M142.81 73.4407V84.1954L120.148 97.3259V86.5711L142.81 73.4407Z" fill="#E2DCDC"/>
<path d="M109.412 80.3545L120.127 86.5641V97.3116L109.412 91.1092V80.3545Z" fill="#BDB7B7"/>
<path d="M120.127 86.5711L109.412 80.3616L132.074 67.2311L142.782 73.4407L120.127 86.5711Z" fill="#F3F1F2"/>
<path d="M118.539 87.6736V98.4212L95.8845 111.552V100.804L118.539 87.6736Z" fill="#E2DCDC"/>
<path d="M85.1488 94.5803L95.8633 100.79V111.545L85.1488 105.335V94.5803Z" fill="#BDB7B7"/>
<path d="M95.8633 100.804L85.1488 94.5945L107.811 81.4641L118.518 87.6665L95.8633 100.804Z" fill="#F3F1F2"/>
<path d="M83.6961 107.597V118.344L61.0413 105.214V94.4664L83.6961 107.597Z" fill="#BDB7B7"/>
<path d="M94.4106 101.437L83.6961 107.647L61.0413 94.5162L71.7486 88.3066L94.4106 101.437Z" fill="#F3F1F2"/>
<path d="M83.6961 107.597L94.4106 101.387V112.142L83.6961 118.344V107.597Z" fill="#E2DCDC"/>
<path d="M35.1409 93.5062V104.254L12.486 91.1234V80.3758L35.1409 93.5062Z" fill="#BDB7B7"/>
<path d="M45.8553 87.3464L35.1409 93.556L12.486 80.4256L23.1934 74.216L45.8553 87.3464Z" fill="#F3F1F2"/>
<path d="M35.1409 93.5062L45.8553 87.2966V98.0513L35.1409 104.254V93.5062Z" fill="#E2DCDC"/>
<path d="M166.988 73.3909V84.1385L144.333 97.2689V86.5213L166.988 73.3909Z" fill="#E2DCDC"/>
<path d="M133.598 80.3047L144.305 86.5071V97.2619L133.598 91.0523V80.3047Z" fill="#BDB7B7"/>
<path d="M144.305 86.5213L133.598 80.3118L156.253 67.1813L166.967 73.3838L144.305 86.5213Z" fill="#F3F1F2"/>
<path d="M59.2484 107.597V118.344L36.5865 105.214V94.4664L59.2484 107.597Z" fill="#BDB7B7"/>
<path d="M69.9558 101.437L59.2484 107.647L36.5865 94.5162L47.301 88.3066L69.9558 101.437Z" fill="#F3F1F2"/>
<path d="M59.2484 107.597L69.9558 101.387V112.142L59.2484 118.344V107.597Z" fill="#E2DCDC"/>
<path d="M142.888 87.0619V97.8166L120.233 110.947V100.192L142.888 87.0619Z" fill="#E2DCDC"/>
<path d="M109.497 93.9756L120.212 100.185V110.933L109.497 104.73V93.9756Z" fill="#BDB7B7"/>
<path d="M120.212 100.192L109.497 93.9828L132.159 80.8524L142.867 87.0619L120.212 100.192Z" fill="#F3F1F2"/>
<path d="M118.738 101.316V112.071L96.0829 125.201V114.454L118.738 101.316Z" fill="#E2DCDC"/>
<path d="M85.3472 108.23L96.0546 114.439V125.194L85.3472 118.985V108.23Z" fill="#BDB7B7"/>
<path d="M96.0546 114.447L85.3472 108.244L108.002 95.1138L118.717 101.316L96.0546 114.447Z" fill="#F3F1F2"/>
<path d="M83.6961 121.559V132.314L61.0413 119.184V108.429L83.6961 121.559Z" fill="#BDB7B7"/>
<path d="M94.4106 115.407L83.6961 121.609L61.0413 108.479L71.7486 102.269L94.4106 115.407Z" fill="#F3F1F2"/>
<path d="M83.6961 121.56L94.4106 115.357V126.105L83.6961 132.314V121.56Z" fill="#E2DCDC"/>
<path d="M120.113 31.7449V42.4996L97.4577 29.3691V18.6144L120.113 31.7449Z" fill="#BDB7B7"/>
<path d="M130.827 25.5922L120.113 31.7947L97.4577 18.6642L108.165 12.4618L130.827 25.5922Z" fill="#F3F1F2"/>
<path d="M120.113 31.7449L130.827 25.5424V36.29L120.113 42.4996V31.7449Z" fill="#E2DCDC"/>
<path d="M144.525 45.8924V56.6471L121.863 43.5167V32.762L144.525 45.8924Z" fill="#BDB7B7"/>
<path d="M155.239 39.7398L144.525 45.9422L121.863 32.8118L132.577 26.6022L155.239 39.7398Z" fill="#F3F1F2"/>
<path d="M144.525 45.8924L155.239 39.6829V50.4376L144.525 56.6471V45.8924Z" fill="#E2DCDC"/>
<path d="M168.625 59.6843V70.4319L145.97 57.3015V46.5468L168.625 59.6843Z" fill="#BDB7B7"/>
<path d="M179.34 53.5246L168.625 59.7341L145.97 46.6037L156.678 40.3942L179.34 53.5246Z" fill="#F3F1F2"/>
<path d="M168.625 59.6844L179.34 53.4748V64.2224L168.625 70.4319V59.6844Z" fill="#E2DCDC"/>
<path d="M106.84 25.827V36.5817L84.1851 49.7121V38.9645L106.84 25.827Z" fill="#E2DCDC"/>
<path d="M73.4493 32.7407L84.1567 38.9502V49.7049L73.4493 43.4954V32.7407Z" fill="#BDB7B7"/>
<path d="M84.1567 38.9574L73.4493 32.7549L96.1042 19.6245L106.819 25.827L84.1567 38.9574Z" fill="#F3F1F2"/>
<path d="M120.113 45.8924V56.6471L97.4577 43.5167V32.762L120.113 45.8924Z" fill="#BDB7B7"/>
<path d="M130.827 39.7398L120.113 45.9422L97.4577 32.8118L108.165 26.6022L130.827 39.7398Z" fill="#F3F1F2"/>
<path d="M120.113 45.8924L130.827 39.6829V50.4376L120.113 56.6471V45.8924Z" fill="#E2DCDC"/>
<path d="M144.213 59.6843V70.4319L121.558 57.3015V46.5468L144.213 59.6843Z" fill="#BDB7B7"/>
<path d="M154.927 53.5246L144.213 59.7341L121.558 46.6037L132.265 40.3942L154.927 53.5246Z" fill="#F3F1F2"/>
<path d="M144.213 59.6844L154.927 53.4748V64.2224L144.213 70.4319V59.6844Z" fill="#E2DCDC"/>
<path d="M131.139 25.5922L120.424 31.7947L97.7624 18.6642L108.477 12.4618L131.139 25.5922Z" fill="#F3F1F2"/>
<path d="M84.1709 38.9574L73.4564 32.7549L96.1184 19.6245L106.826 25.827L84.1709 38.9574Z" fill="#F3F1F2"/>
<path d="M59.6594 67.1315L48.952 60.922L71.6069 47.7916L82.3213 54.0011L59.6594 67.1315Z" fill="#F3F1F2"/>
<path d="M83.9158 53.0765L73.2014 46.8669L95.8633 33.7365L106.571 39.9461L83.9158 53.0765Z" fill="#F3F1F2"/>
<path d="M71.7132 74.1094L60.9987 67.9069L83.6607 54.7765L94.3751 60.9789L71.7132 74.1094Z" fill="#F3F1F2"/>
<path d="M95.9625 60.0614L85.2551 53.8518L107.91 40.7214L118.624 46.9238L95.9625 60.0614Z" fill="#F3F1F2"/>
<path d="M83.7599 81.0942L73.0526 74.8918L95.7074 61.7614L106.422 67.9638L83.7599 81.0942Z" fill="#F3F1F2"/>
<path d="M108.016 67.0391L97.3018 60.8366L119.964 47.6991L130.678 53.9087L108.016 67.0391Z" fill="#F3F1F2"/>
<path d="M95.8137 88.0791L85.0992 81.8695L107.761 68.7391L118.476 74.9486L95.8137 88.0791Z" fill="#F3F1F2"/>
<path d="M120.063 74.0239L109.356 67.8144L132.01 54.684L142.725 60.8935L120.063 74.0239Z" fill="#F3F1F2"/>
<path d="M59.865 53.048L49.1505 46.8384L71.8124 33.708L82.5198 39.9176L59.865 53.048Z" fill="#F3F1F2"/>
<path d="M35.559 67.1315L24.8445 60.922L47.5065 47.7916L58.2139 54.0011L35.559 67.1315Z" fill="#F3F1F2"/>
<path d="M144.319 73.8177L133.605 67.6081L156.267 54.4777L166.974 60.6873L144.319 73.8177Z" fill="#F3F1F2"/>
<path d="M120.013 87.9013L109.299 81.6988L131.961 68.5613L142.668 74.7708L120.013 87.9013Z" fill="#F3F1F2"/>
<path d="M95.7074 101.992L84.9929 95.7823L107.655 82.6519L118.362 88.8615L95.7074 101.992Z" fill="#F3F1F2"/>
<path d="M155.239 39.5549L144.525 45.7644L121.863 32.634L132.577 26.4244L155.239 39.5549Z" fill="#F3F1F2"/>
<path d="M179.34 53.5246L168.625 59.7341L145.97 46.6037L156.678 40.3942L179.34 53.5246Z" fill="#F3F1F2"/>
<path d="M130.827 39.7398L120.113 45.9422L97.4577 32.8118L108.165 26.6022L130.827 39.7398Z" fill="#F3F1F2"/>
<path d="M154.927 53.7024L144.213 59.912L121.558 46.7816L132.265 40.572L154.927 53.7024Z" fill="#F3F1F2"/>
<path d="M70.2676 74.8348L59.5532 81.0373L36.8983 67.9069L47.6057 61.7044L70.2676 74.8348Z" fill="#F3F1F2"/>
<path d="M94.368 88.7975L83.6536 95.007L60.9987 81.8766L71.7061 75.6671L94.368 88.7975Z" fill="#F3F1F2"/>
<path d="M45.8553 75.0127L35.1409 81.2222L12.486 68.0847L23.1934 61.8823L45.8553 75.0127Z" fill="#F3F1F2"/>
<path d="M69.9558 88.9753L59.2484 95.1848L36.5865 82.0544L47.301 75.8448L69.9558 88.9753Z" fill="#F3F1F2"/>
<path d="M94.0563 102.945L83.3489 109.155L60.687 96.0241L71.4014 89.8146L94.0563 102.945Z" fill="#F3F1F2"/>
<path d="M82.5339 40.2306V50.9782L59.872 64.1086V53.361L82.5339 40.2306Z" fill="#E2DCDC"/>
<path d="M49.1434 47.1443L59.8507 53.3467V64.1014L49.1434 57.8919V47.1443Z" fill="#BDB7B7"/>
<path d="M59.8508 53.361L49.1434 47.1514L71.7982 34.021L82.5127 40.2234L59.8508 53.361Z" fill="#F3F1F2"/>
<path d="M58.228 54.371V65.1257L35.566 78.2562V67.5086L58.228 54.371Z" fill="#E2DCDC"/>
<path d="M24.8375 61.2848L35.5448 67.4943V78.2491L24.8375 72.0395V61.2848Z" fill="#BDB7B7"/>
<path d="M35.5448 67.5014L24.8375 61.299L47.4923 48.1686L58.2068 54.371L35.5448 67.5014Z" fill="#F3F1F2"/>
<path d="M106.436 40.2306V50.9782L83.774 64.1086V53.361L106.436 40.2306Z" fill="#E2DCDC"/>
<path d="M73.0383 47.1443L83.7528 53.3467V64.1014L73.0383 57.8919V47.1443Z" fill="#BDB7B7"/>
<path d="M83.7528 53.361L73.0383 47.1514L95.7003 34.021L106.408 40.2234L83.7528 53.361Z" fill="#F3F1F2"/>
<path d="M82.5198 54.0012V64.7559L59.8649 77.8863V67.1316L82.5198 54.0012Z" fill="#E2DCDC"/>
<path d="M49.1292 60.9149L59.8366 67.1245V77.8721L49.1292 71.6696V60.9149Z" fill="#BDB7B7"/>
<path d="M59.8366 67.1315L49.1292 60.922L71.7911 47.7916L82.4985 54.0011L59.8366 67.1315Z" fill="#F3F1F2"/>
<path d="M118.738 46.7816V57.5363L96.0829 70.6667V59.912L118.738 46.7816Z" fill="#E2DCDC"/>
<path d="M85.3472 53.6953L96.0617 59.9049V70.6596L85.3472 64.45V53.6953Z" fill="#BDB7B7"/>
<path d="M96.0617 59.912L85.3472 53.7095L108.009 40.5791L118.717 46.7815L96.0617 59.912Z" fill="#F3F1F2"/>
<path d="M130.685 53.738V64.4927L108.023 77.6231V66.8684L130.685 53.738Z" fill="#E2DCDC"/>
<path d="M97.2947 60.6517L108.002 66.8613V77.6089L97.2947 71.4064V60.6517Z" fill="#BDB7B7"/>
<path d="M108.002 66.8684L97.2947 60.6588L119.95 47.5284L130.664 53.7379L108.002 66.8684Z" fill="#F3F1F2"/>
<path d="M94.0705 60.9291V71.6838L71.4085 84.8143V74.0596L94.0705 60.9291Z" fill="#E2DCDC"/>
<path d="M60.6728 67.8428L71.3872 74.0524V84.8L60.6728 78.5975V67.8428Z" fill="#BDB7B7"/>
<path d="M71.3873 74.0595L60.6728 67.85L83.3347 54.7195L94.0492 60.9291L71.3873 74.0595Z" fill="#F3F1F2"/>
<path d="M59.5532 81.1653V91.92L36.8983 78.7896V68.0349L59.5532 81.1653Z" fill="#BDB7B7"/>
<path d="M70.2676 75.0127L59.5532 81.2222L36.8983 68.0847L47.6057 61.8823L70.2676 75.0127Z" fill="#F3F1F2"/>
<path d="M59.5532 81.1653L70.2676 74.9629V85.7105L59.5532 91.92V81.1653Z" fill="#E2DCDC"/>
<path d="M106.422 67.9638V78.7185L83.7599 91.8489V81.1013L106.422 67.9638Z" fill="#E2DCDC"/>
<path d="M73.0312 74.8775L83.7386 81.0871V91.8418L73.0312 85.6322V74.8775Z" fill="#BDB7B7"/>
<path d="M83.7386 81.0942L73.0312 74.8918L95.6861 61.7614L106.401 67.9638L83.7386 81.0942Z" fill="#F3F1F2"/>
<path d="M142.81 60.986V71.7336L120.148 84.864V74.1164L142.81 60.986Z" fill="#E2DCDC"/>
<path d="M109.412 67.8926L120.127 74.1022V84.8569L109.412 78.6474V67.8926Z" fill="#BDB7B7"/>
<path d="M120.127 74.1094L109.412 67.9069L132.074 54.7765L142.782 60.9789L120.127 74.1094Z" fill="#F3F1F2"/>
<path d="M118.539 75.2118V85.9665L95.8845 99.0969V88.3422L118.539 75.2118Z" fill="#E2DCDC"/>
<path d="M85.1488 82.1255L95.8633 88.3351V99.0827L85.1488 92.8731V82.1255Z" fill="#BDB7B7"/>
<path d="M95.8633 88.3422L85.1488 82.1327L107.811 69.0023L118.518 75.2118L95.8633 88.3422Z" fill="#F3F1F2"/>
<path d="M83.6961 95.1351V105.89L61.0413 92.7593V82.0046L83.6961 95.1351Z" fill="#BDB7B7"/>
<path d="M94.4106 88.9753L83.6961 95.1848L61.0413 82.0544L71.7486 75.8448L94.4106 88.9753Z" fill="#F3F1F2"/>
<path d="M83.6961 95.135L94.4106 88.9255V99.6802L83.6961 105.89V95.135Z" fill="#E2DCDC"/>
<path d="M35.1409 81.0444V91.7991L12.486 78.6687V67.914L35.1409 81.0444Z" fill="#BDB7B7"/>
<path d="M45.8553 74.8918L35.1409 81.0942L12.486 67.9638L23.1934 61.7614L45.8553 74.8918Z" fill="#F3F1F2"/>
<path d="M35.1409 81.0444L45.8553 74.842V85.5896L35.1409 91.7991V81.0444Z" fill="#E2DCDC"/>
<path d="M166.988 60.9291V71.6838L144.333 84.8143V74.0596L166.988 60.9291Z" fill="#E2DCDC"/>
<path d="M133.598 67.8428L144.305 74.0524V84.8L133.598 78.5975V67.8428Z" fill="#BDB7B7"/>
<path d="M144.305 74.0595L133.598 67.85L156.253 54.7195L166.967 60.9291L144.305 74.0595Z" fill="#F3F1F2"/>
<path d="M59.2484 95.1351V105.89L36.5865 92.7593V82.0046L59.2484 95.1351Z" fill="#BDB7B7"/>
<path d="M69.9558 88.9753L59.2484 95.1848L36.5865 82.0544L47.301 75.8448L69.9558 88.9753Z" fill="#F3F1F2"/>
<path d="M59.2484 95.135L69.9558 88.9255V99.6802L59.2484 105.89V95.135Z" fill="#E2DCDC"/>
<path d="M142.888 74.6072V85.3548L120.233 98.4853V87.7377L142.888 74.6072Z" fill="#E2DCDC"/>
<path d="M109.497 81.5139L120.212 87.7234V98.4781L109.497 92.2686V81.5139Z" fill="#BDB7B7"/>
<path d="M120.212 87.7305L109.497 81.5281L132.159 68.3976L142.867 74.6001L120.212 87.7305Z" fill="#F3F1F2"/>
<path d="M118.738 88.8615V99.609L96.0829 112.739V101.992L118.738 88.8615Z" fill="#E2DCDC"/>
<path d="M85.3472 95.7752L96.0546 101.985V112.732L85.3472 106.523V95.7752Z" fill="#BDB7B7"/>
<path d="M96.0546 101.992L85.3472 95.7823L108.002 82.6519L118.717 88.8615L96.0546 101.992Z" fill="#F3F1F2"/>
<path d="M83.6961 109.105V119.852L61.0413 106.722V95.9744L83.6961 109.105Z" fill="#BDB7B7"/>
<path d="M94.4106 102.945L83.6961 109.155L61.0413 96.0241L71.7486 89.8146L94.4106 102.945Z" fill="#F3F1F2"/>
<path d="M83.6961 109.105L94.4106 102.895V113.65L83.6961 119.852V109.105Z" fill="#E2DCDC"/>
<path d="M120.113 19.2902V30.0378L97.4577 16.9074V6.15979L120.113 19.2902Z" fill="#BDB7B7"/>
<path d="M130.827 13.1304L120.113 19.34L97.4577 6.20956L108.165 0L130.827 13.1304Z" fill="#F3F1F2"/>
<path d="M120.113 19.2902L130.827 13.0806V23.8353L120.113 30.0378V19.2902Z" fill="#E2DCDC"/>
<path d="M144.525 33.4378V44.1854L121.863 31.0549V20.3002L144.525 33.4378Z" fill="#BDB7B7"/>
<path d="M155.239 27.278L144.525 33.4876L121.863 20.35L132.577 14.1476L155.239 27.278Z" fill="#F3F1F2"/>
<path d="M144.525 33.4377L155.239 27.2281V37.9757L144.525 44.1853V33.4377Z" fill="#E2DCDC"/>
<path d="M168.625 47.2226V57.9702L145.97 44.8398V34.0922L168.625 47.2226Z" fill="#BDB7B7"/>
<path d="M179.34 41.0628L168.625 47.2724L145.97 34.1419L156.678 27.9324L179.34 41.0628Z" fill="#F3F1F2"/>
<path d="M168.625 47.2226L179.34 41.013V51.7677L168.625 57.9702V47.2226Z" fill="#E2DCDC"/>
<path d="M106.84 13.3723V24.1198L84.1851 37.2574V26.5027L106.84 13.3723Z" fill="#E2DCDC"/>
<path d="M73.4493 20.286L84.1567 26.4885V37.2432L73.4493 31.0336V20.286Z" fill="#BDB7B7"/>
<path d="M84.1567 26.5027L73.4493 20.2931L96.1042 7.16272L106.819 13.3723L84.1567 26.5027Z" fill="#F3F1F2"/>
<path d="M120.113 33.4378V44.1854L97.4577 31.0549V20.3002L120.113 33.4378Z" fill="#BDB7B7"/>
<path d="M130.827 27.278L120.113 33.4876L97.4577 20.35L108.165 14.1476L130.827 27.278Z" fill="#F3F1F2"/>
<path d="M120.113 33.4377L130.827 27.2281V37.9757L120.113 44.1853V33.4377Z" fill="#E2DCDC"/>
<path d="M144.213 47.2226V57.9702L121.558 44.8398V34.0922L144.213 47.2226Z" fill="#BDB7B7"/>
<path d="M154.927 41.0628L144.213 47.2724L121.558 34.1419L132.265 27.9324L154.927 41.0628Z" fill="#F3F1F2"/>
<path d="M144.213 47.2226L154.927 41.013V51.7677L144.213 57.9702V47.2226Z" fill="#E2DCDC"/>
<path d="M131.139 13.1304L120.424 19.34L97.7624 6.20956L108.477 0L131.139 13.1304Z" fill="#F3F1F2"/>
<path d="M84.1709 26.5027L73.4564 20.2931L96.1184 7.16272L106.826 13.3723L84.1709 26.5027Z" fill="#F3F1F2"/>
<path d="M59.6594 54.6698L48.952 48.4602L71.6069 35.3298L82.3213 41.5393L59.6594 54.6698Z" fill="#F3F1F2"/>
<path d="M83.9158 40.6147L73.2014 34.4051L95.8633 21.2747L106.571 27.4843L83.9158 40.6147Z" fill="#F3F1F2"/>
<path d="M71.7132 61.6546L60.9987 55.4451L83.6607 42.3146L94.3751 48.5242L71.7132 61.6546Z" fill="#F3F1F2"/>
<path d="M95.9625 47.5996L85.2551 41.39L107.91 28.2596L118.624 34.4691L95.9625 47.5996Z" fill="#F3F1F2"/>
<path d="M83.7599 68.6395L73.0526 62.4299L95.7074 49.2995L106.422 55.5091L83.7599 68.6395Z" fill="#F3F1F2"/>
<path d="M108.016 54.5844L97.3018 48.3749L119.964 35.2444L130.678 41.454L108.016 54.5844Z" fill="#F3F1F2"/>
<path d="M95.8137 75.6172L85.0992 69.4148L107.761 56.2844L118.476 62.4868L95.8137 75.6172Z" fill="#F3F1F2"/>
<path d="M120.063 61.5693L109.356 55.3597L132.01 42.2293L142.725 48.4318L120.063 61.5693Z" fill="#F3F1F2"/>
<path d="M59.865 40.5862L49.1505 34.3837L71.8124 21.2462L82.5198 27.4558L59.865 40.5862Z" fill="#F3F1F2"/>
<path d="M35.559 54.6698L24.8445 48.4673L47.5065 35.3369L58.2139 41.5394L35.559 54.6698Z" fill="#F3F1F2"/>
<path d="M144.319 61.3559L133.605 55.1534L156.267 42.023L166.974 48.2255L144.319 61.3559Z" fill="#F3F1F2"/>
<path d="M120.013 75.4465L109.299 69.237L131.961 56.1066L142.668 62.3161L120.013 75.4465Z" fill="#F3F1F2"/>
<path d="M95.7074 89.5301L84.9929 83.3205L107.655 70.1901L118.362 76.3997L95.7074 89.5301Z" fill="#F3F1F2"/>
<path d="M155.239 27.1001L144.525 33.3026L121.863 20.1722L132.577 13.9697L155.239 27.1001Z" fill="#F3F1F2"/>
<path d="M179.34 41.0628L168.625 47.2724L145.97 34.1419L156.678 27.9324L179.34 41.0628Z" fill="#F3F1F2"/>
<path d="M130.827 27.278L120.113 33.4876L97.4577 20.35L108.165 14.1476L130.827 27.278Z" fill="#F3F1F2"/>
<path d="M154.927 41.2406L144.213 47.4501L121.558 34.3197L132.265 28.1102L154.927 41.2406Z" fill="#F3F1F2"/>
<path d="M70.2676 62.373L59.5532 68.5826L36.8983 55.4522L47.6057 49.2426L70.2676 62.373Z" fill="#F3F1F2"/>
<path d="M94.368 76.3428L83.6536 82.5452L60.9987 69.4148L71.7061 63.2053L94.368 76.3428Z" fill="#F3F1F2"/>
<path d="M45.8553 62.5509L35.1409 68.7604L12.486 55.63L23.1934 49.4205L45.8553 62.5509Z" fill="#F3F1F2"/>
<path d="M69.9558 76.5206L59.2484 82.7302L36.5865 69.5926L47.301 63.3902L69.9558 76.5206Z" fill="#F3F1F2"/>
<path d="M94.0563 90.4832L83.3489 96.6928L60.687 83.5624L71.4014 77.3528L94.0563 90.4832Z" fill="#F3F1F2"/>
<path d="M82.5339 27.7688V38.5235L59.872 51.6539V40.8992L82.5339 27.7688Z" fill="#E2DCDC"/>
<path d="M49.1434 34.6825L59.8507 40.8921V51.6396L49.1434 45.4372V34.6825Z" fill="#BDB7B7"/>
<path d="M59.8508 40.8992L49.1434 34.6896L71.7982 21.5592L82.5127 27.7688L59.8508 40.8992Z" fill="#F3F1F2"/>
<path d="M58.228 41.9163V52.671L35.566 65.8014V55.0467L58.228 41.9163Z" fill="#E2DCDC"/>
<path d="M24.8375 48.8301L35.5448 55.0396V65.7872L24.8375 59.5777V48.8301Z" fill="#BDB7B7"/>
<path d="M35.5448 55.0468L24.8375 48.8372L47.4923 35.7068L58.2068 41.9164L35.5448 55.0468Z" fill="#F3F1F2"/>
<path d="M106.436 27.7688V38.5235L83.774 51.6539V40.8992L106.436 27.7688Z" fill="#E2DCDC"/>
<path d="M73.0383 34.6825L83.7528 40.8921V51.6396L73.0383 45.4372V34.6825Z" fill="#BDB7B7"/>
<path d="M83.7528 40.8992L73.0383 34.6896L95.7003 21.5592L106.408 27.7688L83.7528 40.8992Z" fill="#F3F1F2"/>
<path d="M82.5198 41.5464V52.294L59.8649 65.4245V54.6769L82.5198 41.5464Z" fill="#E2DCDC"/>
<path d="M49.1292 48.4602L59.8366 54.6627V65.4174L49.1292 59.2078V48.4602Z" fill="#BDB7B7"/>
<path d="M59.8366 54.6698L49.1292 48.4673L71.7911 35.3369L82.4985 41.5394L59.8366 54.6698Z" fill="#F3F1F2"/>
<path d="M118.738 34.3268V45.0744L96.0829 58.2049V47.4573L118.738 34.3268Z" fill="#E2DCDC"/>
<path d="M85.3472 41.2406L96.0617 47.4431V58.1978L85.3472 51.9882V41.2406Z" fill="#BDB7B7"/>
<path d="M96.0617 47.4573L85.3472 41.2477L108.009 28.1173L118.717 34.3269L96.0617 47.4573Z" fill="#F3F1F2"/>
<path d="M130.685 41.2762V52.0309L108.023 65.1613V54.4137L130.685 41.2762Z" fill="#E2DCDC"/>
<path d="M97.2947 48.1899L108.002 54.3994V65.1542L97.2947 58.9446V48.1899Z" fill="#BDB7B7"/>
<path d="M108.002 54.4066L97.2947 48.2041L119.95 35.0666L130.664 41.2762L108.002 54.4066Z" fill="#F3F1F2"/>
<path d="M94.0705 48.4744V59.222L71.4085 72.3524V61.6048L94.0705 48.4744Z" fill="#E2DCDC"/>
<path d="M60.6728 55.381L71.3872 61.5906V72.3453L60.6728 66.1358V55.381Z" fill="#BDB7B7"/>
<path d="M71.3873 61.6049L60.6728 55.3953L83.3347 42.2649L94.0492 48.4673L71.3873 61.6049Z" fill="#F3F1F2"/>
<path d="M59.5532 68.7106V79.4653L36.8983 66.3278V55.5802L59.5532 68.7106Z" fill="#BDB7B7"/>
<path d="M70.2676 62.5509L59.5532 68.7604L36.8983 55.63L47.6057 49.4205L70.2676 62.5509Z" fill="#F3F1F2"/>
<path d="M59.5532 68.7107L70.2676 62.5011V73.2558L59.5532 79.4654V68.7107Z" fill="#E2DCDC"/>
<path d="M106.422 55.5091V66.2567L83.7599 79.3871V68.6395L106.422 55.5091Z" fill="#E2DCDC"/>
<path d="M73.0312 62.4229L83.7386 68.6253V79.38L73.0312 73.1704V62.4229Z" fill="#BDB7B7"/>
<path d="M83.7386 68.6395L73.0312 62.4299L95.6861 49.2995L106.401 55.5091L83.7386 68.6395Z" fill="#F3F1F2"/>
<path d="M142.81 48.5242V59.2789L120.148 72.4094V61.6547L142.81 48.5242Z" fill="#E2DCDC"/>
<path d="M109.412 55.438L120.127 61.6475V72.3951L109.412 66.1927V55.438Z" fill="#BDB7B7"/>
<path d="M120.127 61.6546L109.412 55.4451L132.074 42.3146L142.782 48.5242L120.127 61.6546Z" fill="#F3F1F2"/>
<path d="M118.539 62.75V73.5047L95.8845 86.6351V75.8875L118.539 62.75Z" fill="#E2DCDC"/>
<path d="M85.1488 69.6638L95.8633 75.8733V86.628L85.1488 80.4185V69.6638Z" fill="#BDB7B7"/>
<path d="M95.8633 75.8804L85.1488 69.678L107.811 56.5475L118.518 62.75L95.8633 75.8804Z" fill="#F3F1F2"/>
<path d="M83.6961 82.6733V93.428L61.0413 80.2976V69.5428L83.6961 82.6733Z" fill="#BDB7B7"/>
<path d="M94.4106 76.5206L83.6961 82.7302L61.0413 69.5926L71.7486 63.3902L94.4106 76.5206Z" fill="#F3F1F2"/>
<path d="M83.6961 82.6733L94.4106 76.4708V87.2184L83.6961 93.428V82.6733Z" fill="#E2DCDC"/>
<path d="M35.1409 68.5897V79.3373L12.486 66.2069V55.4593L35.1409 68.5897Z" fill="#BDB7B7"/>
<path d="M45.8553 62.4299L35.1409 68.6395L12.486 55.5091L23.1934 49.2995L45.8553 62.4299Z" fill="#F3F1F2"/>
<path d="M35.1409 68.5897L45.8553 62.3801V73.1277L35.1409 79.3373V68.5897Z" fill="#E2DCDC"/>
<path d="M166.988 48.4744V59.222L144.333 72.3524V61.6048L166.988 48.4744Z" fill="#E2DCDC"/>
<path d="M133.598 55.381L144.305 61.5906V72.3453L133.598 66.1358V55.381Z" fill="#BDB7B7"/>
<path d="M144.305 61.6049L133.598 55.3953L156.253 42.2649L166.967 48.4673L144.305 61.6049Z" fill="#F3F1F2"/>
<path d="M59.2484 82.6733V93.428L36.5865 80.2976V69.5428L59.2484 82.6733Z" fill="#BDB7B7"/>
<path d="M69.9558 76.5206L59.2484 82.7302L36.5865 69.5926L47.301 63.3902L69.9558 76.5206Z" fill="#F3F1F2"/>
<path d="M59.2484 82.6733L69.9558 76.4708V87.2184L59.2484 93.428V82.6733Z" fill="#E2DCDC"/>
<path d="M142.888 62.1454V72.893L120.233 86.0306V75.2759L142.888 62.1454Z" fill="#E2DCDC"/>
<path d="M109.497 69.0592L120.212 75.2688V86.0164L109.497 79.8068V69.0592Z" fill="#BDB7B7"/>
<path d="M120.212 75.2758L109.497 69.0663L132.159 55.9359L142.867 62.1454L120.212 75.2758Z" fill="#F3F1F2"/>
<path d="M118.738 76.3997V87.1544L96.0829 100.285V89.5301L118.738 76.3997Z" fill="#E2DCDC"/>
<path d="M85.3472 83.3134L96.0546 89.523V100.271L85.3472 94.0681V83.3134Z" fill="#BDB7B7"/>
<path d="M96.0546 89.5301L85.3472 83.3205L108.002 70.1901L118.717 76.3997L96.0546 89.5301Z" fill="#F3F1F2"/>
<path d="M83.6961 96.643V107.398L61.0413 94.2673V83.5126L83.6961 96.643Z" fill="#BDB7B7"/>
<path d="M94.4106 90.4832L83.6961 96.6928L61.0413 83.5624L71.7486 77.3528L94.4106 90.4832Z" fill="#F3F1F2"/>
<path d="M83.6961 96.643L94.4106 90.4334V101.188L83.6961 107.398V96.643Z" fill="#E2DCDC"/>
</svg>
