<svg width="1440" height="876" viewBox="0 0 1440 876" fill="none" xmlns="http://www.w3.org/2000/svg">
<g clip-path="url(#clip0)">
<path d="M0 229.542V875.919L1440 647.443V0L0 229.542Z" fill="#005CA8"/>
<g opacity="0.25">
<g opacity="0.5">
<path opacity="0.5" d="M2962.36 731.089L671.25 1896.66L-1636.15 722.806L654.96 -442.774L2962.36 731.089Z" stroke="white" stroke-width="0.85" stroke-miterlimit="10"/>
<path opacity="0.5" d="M814.63 1823.72L671.25 1896.66L-1636.15 722.806L-1492.77 649.864L814.63 1823.72Z" stroke="white" stroke-width="0.21" stroke-miterlimit="10"/>
<path opacity="0.5" d="M958 1750.78L814.63 1823.72L-1492.77 649.864L-1349.4 576.922L958 1750.78Z" stroke="white" stroke-width="0.21" stroke-miterlimit="10"/>
<path opacity="0.5" d="M1101.38 1677.84L958 1750.78L-1349.4 576.922L-1206.02 503.979L1101.38 1677.84Z" stroke="white" stroke-width="0.21" stroke-miterlimit="10"/>
<path opacity="0.5" d="M1244.76 1604.9L1101.38 1677.84L-1206.02 503.979L-1062.64 431.037L1244.76 1604.9Z" stroke="white" stroke-width="0.21" stroke-miterlimit="10"/>
<path opacity="0.5" d="M1388.14 1531.96L1244.76 1604.9L-1062.64 431.037L-919.26 358.094L1388.14 1531.96Z" stroke="white" stroke-width="0.21" stroke-miterlimit="10"/>
<path opacity="0.5" d="M1531.51 1459.01L1388.14 1531.96L-919.26 358.094L-775.89 285.152L1531.51 1459.01Z" stroke="white" stroke-width="0.21" stroke-miterlimit="10"/>
<path opacity="0.5" d="M-775.89 285.152L-632.51 212.21L1674.89 1386.07L1531.51 1459.01" stroke="white" stroke-width="0.21" stroke-miterlimit="10"/>
<path opacity="0.5" d="M1818.27 1313.13L1674.89 1386.07L-632.51 212.21L-489.13 139.267L1818.27 1313.13Z" stroke="white" stroke-width="0.21" stroke-miterlimit="10"/>
<path opacity="0.5" d="M1961.64 1240.19L1818.27 1313.13L-489.13 139.267L-345.76 66.3337L1961.64 1240.19Z" stroke="white" stroke-width="0.21" stroke-miterlimit="10"/>
<path opacity="0.5" d="M2105.02 1167.25L1961.64 1240.19L-345.76 66.3337L-202.38 -6.6087L2105.02 1167.25Z" stroke="white" stroke-width="0.21" stroke-miterlimit="10"/>
<path opacity="0.5" d="M2248.4 1094.31L2105.02 1167.25L-202.38 -6.60865L-59 -79.551L2248.4 1094.31Z" stroke="white" stroke-width="0.21" stroke-miterlimit="10"/>
<path opacity="0.5" d="M2391.78 1021.37L2248.4 1094.31L-59 -79.5511L84.38 -152.493L2391.78 1021.37Z" stroke="white" stroke-width="0.21" stroke-miterlimit="10"/>
<path opacity="0.5" d="M2535.15 948.427L2391.78 1021.37L84.38 -152.493L227.75 -225.436L2535.15 948.427Z" stroke="white" stroke-width="0.21" stroke-miterlimit="10"/>
<path opacity="0.5" d="M2678.53 875.485L2535.15 948.427L227.75 -225.436L371.13 -298.378L2678.53 875.485Z" stroke="white" stroke-width="0.21" stroke-miterlimit="10"/>
<path opacity="0.5" d="M2821.91 802.542L2678.53 875.485L371.13 -298.378L514.51 -371.321L2821.91 802.542Z" stroke="white" stroke-width="0.21" stroke-miterlimit="10"/>
<path opacity="0.5" d="M2965.28 729.6L2821.91 802.542L514.51 -371.321L657.88 -444.263L2965.28 729.6Z" stroke="white" stroke-width="0.21" stroke-miterlimit="10"/>
<path opacity="0.5" d="M664.18 1884.5L-1626.93 718.92L661.64 -445.356L2952.75 720.216L664.18 1884.5Z" stroke="white" stroke-width="0.85" stroke-miterlimit="10"/>
<path opacity="0.5" d="M-1483.55 791.863L-1626.93 718.92L661.64 -445.356L805.02 -372.413L-1483.55 791.863Z" stroke="white" stroke-width="0.21" stroke-miterlimit="10"/>
<path opacity="0.5" d="M-1340.17 864.805L-1483.55 791.863L805.02 -372.413L948.4 -299.48L-1340.17 864.805Z" stroke="white" stroke-width="0.21" stroke-miterlimit="10"/>
<path opacity="0.5" d="M-1196.8 937.747L-1340.17 864.805L948.4 -299.48L1091.78 -226.537L-1196.8 937.747Z" stroke="white" stroke-width="0.21" stroke-miterlimit="10"/>
<path opacity="0.5" d="M-1053.42 1010.69L-1196.8 937.747L1091.78 -226.537L1235.15 -153.595L-1053.42 1010.69Z" stroke="white" stroke-width="0.21" stroke-miterlimit="10"/>
<path opacity="0.5" d="M-910.04 1083.63L-1053.42 1010.69L1235.15 -153.595L1378.53 -80.6525L-910.04 1083.63Z" stroke="white" stroke-width="0.21" stroke-miterlimit="10"/>
<path opacity="0.5" d="M-766.66 1156.57L-910.04 1083.63L1378.53 -80.6525L1521.91 -7.71015L-766.66 1156.57Z" stroke="white" stroke-width="0.21" stroke-miterlimit="10"/>
<path opacity="0.5" d="M-623.29 1229.52L-766.66 1156.57L1521.91 -7.71014L1665.28 65.2323L-623.29 1229.52Z" stroke="white" stroke-width="0.21" stroke-miterlimit="10"/>
<path opacity="0.5" d="M-479.91 1302.46L-623.29 1229.52L1665.28 65.2322L1808.66 138.175L-479.91 1302.46Z" stroke="white" stroke-width="0.21" stroke-miterlimit="10"/>
<path opacity="0.5" d="M-336.53 1375.39L-479.91 1302.46L1808.66 138.175L1952.04 211.117L-336.53 1375.39Z" stroke="white" stroke-width="0.21" stroke-miterlimit="10"/>
<path opacity="0.5" d="M-193.16 1448.34L-336.53 1375.39L1952.04 211.117L2095.41 284.059L-193.16 1448.34Z" stroke="white" stroke-width="0.21" stroke-miterlimit="10"/>
<path opacity="0.5" d="M-49.78 1521.28L-193.16 1448.34L2095.41 284.059L2238.79 356.993L-49.78 1521.28Z" stroke="white" stroke-width="0.21" stroke-miterlimit="10"/>
<path opacity="0.5" d="M93.6 1594.22L-49.78 1521.28L2238.79 356.993L2382.17 429.935L93.6 1594.22Z" stroke="white" stroke-width="0.21" stroke-miterlimit="10"/>
<path opacity="0.5" d="M236.97 1667.16L93.6 1594.22L2382.17 429.935L2525.55 502.878L236.97 1667.16Z" stroke="white" stroke-width="0.21" stroke-miterlimit="10"/>
<path opacity="0.5" d="M380.35 1740.1L236.97 1667.16L2525.55 502.878L2668.92 575.82L380.35 1740.1Z" stroke="white" stroke-width="0.21" stroke-miterlimit="10"/>
<path opacity="0.5" d="M523.73 1813.05L380.35 1740.1L2668.92 575.82L2812.3 648.762L523.73 1813.05Z" stroke="white" stroke-width="0.21" stroke-miterlimit="10"/>
<path opacity="0.5" d="M667.11 1885.98L523.73 1813.05L2812.3 648.762L2955.68 721.705L667.11 1885.98Z" stroke="white" stroke-width="0.21" stroke-miterlimit="10"/>
</g>
<g opacity="0.5">
<path opacity="0.5" d="M3004 731.089L712.89 1896.66L-1594.51 722.806L696.6 -442.774L3004 731.089Z" stroke="white" stroke-width="0.85" stroke-miterlimit="10"/>
<path opacity="0.5" d="M856.27 1823.72L712.89 1896.66L-1594.51 722.806L-1451.13 649.864L856.27 1823.72Z" stroke="white" stroke-width="0.21" stroke-miterlimit="10"/>
<path opacity="0.5" d="M999.65 1750.78L856.27 1823.72L-1451.13 649.864L-1307.75 576.922L999.65 1750.78Z" stroke="white" stroke-width="0.21" stroke-miterlimit="10"/>
<path opacity="0.5" d="M1143.02 1677.84L999.65 1750.78L-1307.75 576.922L-1164.38 503.979L1143.02 1677.84Z" stroke="white" stroke-width="0.21" stroke-miterlimit="10"/>
<path opacity="0.5" d="M1286.4 1604.9L1143.02 1677.84L-1164.38 503.979L-1021 431.037L1286.4 1604.9Z" stroke="white" stroke-width="0.21" stroke-miterlimit="10"/>
<path opacity="0.5" d="M1429.78 1531.96L1286.4 1604.9L-1021 431.037L-877.62 358.094L1429.78 1531.96Z" stroke="white" stroke-width="0.21" stroke-miterlimit="10"/>
<path opacity="0.5" d="M1573.15 1459.01L1429.78 1531.96L-877.62 358.094L-734.25 285.152L1573.15 1459.01Z" stroke="white" stroke-width="0.21" stroke-miterlimit="10"/>
<path opacity="0.5" d="M-734.25 285.152L-590.87 212.21L1716.53 1386.07L1573.15 1459.01" stroke="white" stroke-width="0.21" stroke-miterlimit="10"/>
<path opacity="0.5" d="M1859.91 1313.13L1716.53 1386.07L-590.87 212.21L-447.49 139.267L1859.91 1313.13Z" stroke="white" stroke-width="0.21" stroke-miterlimit="10"/>
<path opacity="0.5" d="M2003.29 1240.19L1859.91 1313.13L-447.49 139.267L-304.11 66.3337L2003.29 1240.19Z" stroke="white" stroke-width="0.21" stroke-miterlimit="10"/>
<path opacity="0.5" d="M2146.66 1167.25L2003.29 1240.19L-304.11 66.3337L-160.74 -6.6087L2146.66 1167.25Z" stroke="white" stroke-width="0.21" stroke-miterlimit="10"/>
<path opacity="0.5" d="M2290.04 1094.31L2146.66 1167.25L-160.74 -6.60865L-17.36 -79.551L2290.04 1094.31Z" stroke="white" stroke-width="0.21" stroke-miterlimit="10"/>
<path opacity="0.5" d="M2433.42 1021.37L2290.04 1094.31L-17.36 -79.5511L126.02 -152.493L2433.42 1021.37Z" stroke="white" stroke-width="0.21" stroke-miterlimit="10"/>
<path opacity="0.5" d="M2576.79 948.427L2433.42 1021.37L126.02 -152.493L269.39 -225.436L2576.79 948.427Z" stroke="white" stroke-width="0.21" stroke-miterlimit="10"/>
<path opacity="0.5" d="M2720.17 875.485L2576.79 948.427L269.39 -225.436L412.77 -298.378L2720.17 875.485Z" stroke="white" stroke-width="0.21" stroke-miterlimit="10"/>
<path opacity="0.5" d="M2863.55 802.542L2720.17 875.485L412.77 -298.378L556.15 -371.321L2863.55 802.542Z" stroke="white" stroke-width="0.21" stroke-miterlimit="10"/>
<path opacity="0.5" d="M3006.93 729.6L2863.55 802.542L556.15 -371.321L699.53 -444.263L3006.93 729.6Z" stroke="white" stroke-width="0.21" stroke-miterlimit="10"/>
<path opacity="0.5" d="M705.83 1884.5L-1585.28 718.92L703.29 -445.356L2994.4 720.216L705.83 1884.5Z" stroke="white" stroke-width="0.85" stroke-miterlimit="10"/>
<path opacity="0.5" d="M-1441.91 791.863L-1585.28 718.92L703.29 -445.356L846.66 -372.413L-1441.91 791.863Z" stroke="white" stroke-width="0.21" stroke-miterlimit="10"/>
<path opacity="0.5" d="M-1298.53 864.805L-1441.91 791.863L846.66 -372.413L990.04 -299.48L-1298.53 864.805Z" stroke="white" stroke-width="0.21" stroke-miterlimit="10"/>
<path opacity="0.5" d="M-1155.15 937.747L-1298.53 864.805L990.04 -299.48L1133.42 -226.537L-1155.15 937.747Z" stroke="white" stroke-width="0.21" stroke-miterlimit="10"/>
<path opacity="0.5" d="M-1011.78 1010.69L-1155.15 937.747L1133.42 -226.537L1276.79 -153.595L-1011.78 1010.69Z" stroke="white" stroke-width="0.21" stroke-miterlimit="10"/>
<path opacity="0.5" d="M-868.4 1083.63L-1011.78 1010.69L1276.79 -153.595L1420.17 -80.6525L-868.4 1083.63Z" stroke="white" stroke-width="0.21" stroke-miterlimit="10"/>
<path opacity="0.5" d="M-725.02 1156.57L-868.4 1083.63L1420.17 -80.6525L1563.55 -7.71015L-725.02 1156.57Z" stroke="white" stroke-width="0.21" stroke-miterlimit="10"/>
<path opacity="0.5" d="M-581.64 1229.52L-725.02 1156.57L1563.55 -7.71014L1706.93 65.2323L-581.64 1229.52Z" stroke="white" stroke-width="0.21" stroke-miterlimit="10"/>
<path opacity="0.5" d="M-438.27 1302.46L-581.64 1229.52L1706.93 65.2322L1850.3 138.175L-438.27 1302.46Z" stroke="white" stroke-width="0.21" stroke-miterlimit="10"/>
<path opacity="0.5" d="M-294.89 1375.39L-438.27 1302.46L1850.3 138.175L1993.68 211.117L-294.89 1375.39Z" stroke="white" stroke-width="0.21" stroke-miterlimit="10"/>
<path opacity="0.5" d="M-151.51 1448.34L-294.89 1375.39L1993.68 211.117L2137.06 284.059L-151.51 1448.34Z" stroke="white" stroke-width="0.21" stroke-miterlimit="10"/>
<path opacity="0.5" d="M-8.14001 1521.28L-151.51 1448.34L2137.06 284.059L2280.43 356.993L-8.14001 1521.28Z" stroke="white" stroke-width="0.21" stroke-miterlimit="10"/>
<path opacity="0.5" d="M135.24 1594.22L-8.14001 1521.28L2280.43 356.993L2423.81 429.935L135.24 1594.22Z" stroke="white" stroke-width="0.21" stroke-miterlimit="10"/>
<path opacity="0.5" d="M278.62 1667.16L135.24 1594.22L2423.81 429.935L2567.19 502.878L278.62 1667.16Z" stroke="white" stroke-width="0.21" stroke-miterlimit="10"/>
<path opacity="0.5" d="M421.99 1740.1L278.62 1667.16L2567.19 502.878L2710.57 575.82L421.99 1740.1Z" stroke="white" stroke-width="0.21" stroke-miterlimit="10"/>
<path opacity="0.5" d="M565.37 1813.05L421.99 1740.1L2710.57 575.82L2853.94 648.762L565.37 1813.05Z" stroke="white" stroke-width="0.21" stroke-miterlimit="10"/>
<path opacity="0.5" d="M708.75 1885.98L565.37 1813.05L2853.94 648.762L2997.32 721.705L708.75 1885.98Z" stroke="white" stroke-width="0.21" stroke-miterlimit="10"/>
</g>
<g opacity="0.5">
<path opacity="0.5" d="M3045.65 731.089L754.53 1896.66L-1552.86 722.806L738.25 -442.774L3045.65 731.089Z" stroke="white" stroke-width="0.85" stroke-miterlimit="10"/>
<path opacity="0.5" d="M897.91 1823.72L754.53 1896.66L-1552.86 722.806L-1409.49 649.864L897.91 1823.72Z" stroke="white" stroke-width="0.21" stroke-miterlimit="10"/>
<path opacity="0.5" d="M1041.29 1750.78L897.91 1823.72L-1409.49 649.864L-1266.11 576.922L1041.29 1750.78Z" stroke="white" stroke-width="0.21" stroke-miterlimit="10"/>
<path opacity="0.5" d="M1184.67 1677.84L1041.29 1750.78L-1266.11 576.922L-1122.73 503.979L1184.67 1677.84Z" stroke="white" stroke-width="0.21" stroke-miterlimit="10"/>
<path opacity="0.5" d="M1328.04 1604.9L1184.67 1677.84L-1122.73 503.979L-979.36 431.037L1328.04 1604.9Z" stroke="white" stroke-width="0.21" stroke-miterlimit="10"/>
<path opacity="0.5" d="M1471.42 1531.96L1328.04 1604.9L-979.36 431.037L-835.98 358.094L1471.42 1531.96Z" stroke="white" stroke-width="0.21" stroke-miterlimit="10"/>
<path opacity="0.5" d="M1614.8 1459.01L1471.42 1531.96L-835.98 358.094L-692.6 285.152L1614.8 1459.01Z" stroke="white" stroke-width="0.21" stroke-miterlimit="10"/>
<path opacity="0.5" d="M-692.6 285.152L-549.22 212.21L1758.17 1386.07L1614.8 1459.01" stroke="white" stroke-width="0.21" stroke-miterlimit="10"/>
<path opacity="0.5" d="M1901.55 1313.13L1758.17 1386.07L-549.22 212.21L-405.85 139.267L1901.55 1313.13Z" stroke="white" stroke-width="0.21" stroke-miterlimit="10"/>
<path opacity="0.5" d="M2044.93 1240.19L1901.55 1313.13L-405.85 139.267L-262.47 66.3337L2044.93 1240.19Z" stroke="white" stroke-width="0.21" stroke-miterlimit="10"/>
<path opacity="0.5" d="M2188.3 1167.25L2044.93 1240.19L-262.47 66.3337L-119.09 -6.6087L2188.3 1167.25Z" stroke="white" stroke-width="0.21" stroke-miterlimit="10"/>
<path opacity="0.5" d="M2331.68 1094.31L2188.3 1167.25L-119.09 -6.60865L24.28 -79.551L2331.68 1094.31Z" stroke="white" stroke-width="0.21" stroke-miterlimit="10"/>
<path opacity="0.5" d="M2475.06 1021.37L2331.68 1094.31L24.28 -79.5511L167.66 -152.493L2475.06 1021.37Z" stroke="white" stroke-width="0.21" stroke-miterlimit="10"/>
<path opacity="0.5" d="M2618.44 948.427L2475.06 1021.37L167.66 -152.493L311.04 -225.436L2618.44 948.427Z" stroke="white" stroke-width="0.21" stroke-miterlimit="10"/>
<path opacity="0.5" d="M2761.81 875.485L2618.44 948.427L311.04 -225.436L454.41 -298.378L2761.81 875.485Z" stroke="white" stroke-width="0.21" stroke-miterlimit="10"/>
<path opacity="0.5" d="M2905.19 802.542L2761.81 875.485L454.41 -298.378L597.79 -371.321L2905.19 802.542Z" stroke="white" stroke-width="0.21" stroke-miterlimit="10"/>
<path opacity="0.5" d="M3048.57 729.6L2905.19 802.542L597.79 -371.321L741.17 -444.263L3048.57 729.6Z" stroke="white" stroke-width="0.21" stroke-miterlimit="10"/>
<path opacity="0.5" d="M747.47 1884.5L-1543.64 718.92L744.93 -445.356L3036.04 720.216L747.47 1884.5Z" stroke="white" stroke-width="0.85" stroke-miterlimit="10"/>
<path opacity="0.5" d="M-1400.26 791.863L-1543.64 718.92L744.93 -445.356L888.3 -372.413L-1400.26 791.863Z" stroke="white" stroke-width="0.21" stroke-miterlimit="10"/>
<path opacity="0.5" d="M-1256.89 864.805L-1400.26 791.863L888.3 -372.413L1031.68 -299.48L-1256.89 864.805Z" stroke="white" stroke-width="0.21" stroke-miterlimit="10"/>
<path opacity="0.5" d="M-1113.51 937.747L-1256.89 864.805L1031.68 -299.48L1175.06 -226.537L-1113.51 937.747Z" stroke="white" stroke-width="0.21" stroke-miterlimit="10"/>
<path opacity="0.5" d="M-970.13 1010.69L-1113.51 937.747L1175.06 -226.537L1318.44 -153.595L-970.13 1010.69Z" stroke="white" stroke-width="0.21" stroke-miterlimit="10"/>
<path opacity="0.5" d="M-826.76 1083.63L-970.13 1010.69L1318.44 -153.595L1461.81 -80.6525L-826.76 1083.63Z" stroke="white" stroke-width="0.21" stroke-miterlimit="10"/>
<path opacity="0.5" d="M-683.38 1156.57L-826.76 1083.63L1461.81 -80.6525L1605.19 -7.71015L-683.38 1156.57Z" stroke="white" stroke-width="0.21" stroke-miterlimit="10"/>
<path opacity="0.5" d="M-540 1229.52L-683.38 1156.57L1605.19 -7.71014L1748.57 65.2323L-540 1229.52Z" stroke="white" stroke-width="0.21" stroke-miterlimit="10"/>
<path opacity="0.5" d="M-396.62 1302.46L-540 1229.52L1748.57 65.2322L1891.95 138.175L-396.62 1302.46Z" stroke="white" stroke-width="0.21" stroke-miterlimit="10"/>
<path opacity="0.5" d="M-253.25 1375.39L-396.62 1302.46L1891.95 138.175L2035.32 211.117L-253.25 1375.39Z" stroke="white" stroke-width="0.21" stroke-miterlimit="10"/>
<path opacity="0.5" d="M-109.87 1448.34L-253.25 1375.39L2035.32 211.117L2178.7 284.059L-109.87 1448.34Z" stroke="white" stroke-width="0.21" stroke-miterlimit="10"/>
<path opacity="0.5" d="M33.5099 1521.28L-109.87 1448.34L2178.7 284.059L2322.08 356.993L33.5099 1521.28Z" stroke="white" stroke-width="0.21" stroke-miterlimit="10"/>
<path opacity="0.5" d="M176.88 1594.22L33.5099 1521.28L2322.08 356.993L2465.45 429.935L176.88 1594.22Z" stroke="white" stroke-width="0.21" stroke-miterlimit="10"/>
<path opacity="0.5" d="M320.26 1667.16L176.88 1594.22L2465.45 429.935L2608.83 502.878L320.26 1667.16Z" stroke="white" stroke-width="0.21" stroke-miterlimit="10"/>
<path opacity="0.5" d="M463.64 1740.1L320.26 1667.16L2608.83 502.878L2752.21 575.82L463.64 1740.1Z" stroke="white" stroke-width="0.21" stroke-miterlimit="10"/>
<path opacity="0.5" d="M607.01 1813.05L463.64 1740.1L2752.21 575.82L2895.59 648.762L607.01 1813.05Z" stroke="white" stroke-width="0.21" stroke-miterlimit="10"/>
<path opacity="0.5" d="M750.39 1885.98L607.01 1813.05L2895.59 648.762L3038.96 721.705L750.39 1885.98Z" stroke="white" stroke-width="0.21" stroke-miterlimit="10"/>
</g>
<g opacity="0.5">
<path opacity="0.5" d="M3087.29 731.089L796.18 1896.66L-1511.22 722.806L779.89 -442.774L3087.29 731.089Z" stroke="white" stroke-width="0.85" stroke-miterlimit="10"/>
<path opacity="0.5" d="M939.55 1823.72L796.18 1896.66L-1511.22 722.806L-1367.85 649.864L939.55 1823.72Z" stroke="white" stroke-width="0.21" stroke-miterlimit="10"/>
<path opacity="0.5" d="M1082.93 1750.78L939.55 1823.72L-1367.85 649.864L-1224.47 576.922L1082.93 1750.78Z" stroke="white" stroke-width="0.21" stroke-miterlimit="10"/>
<path opacity="0.5" d="M1226.31 1677.84L1082.93 1750.78L-1224.47 576.922L-1081.09 503.979L1226.31 1677.84Z" stroke="white" stroke-width="0.21" stroke-miterlimit="10"/>
<path opacity="0.5" d="M1369.68 1604.9L1226.31 1677.84L-1081.09 503.979L-937.71 431.037L1369.68 1604.9Z" stroke="white" stroke-width="0.21" stroke-miterlimit="10"/>
<path opacity="0.5" d="M1513.06 1531.96L1369.68 1604.9L-937.71 431.037L-794.34 358.094L1513.06 1531.96Z" stroke="white" stroke-width="0.21" stroke-miterlimit="10"/>
<path opacity="0.5" d="M1656.44 1459.01L1513.06 1531.96L-794.34 358.094L-650.96 285.152L1656.44 1459.01Z" stroke="white" stroke-width="0.21" stroke-miterlimit="10"/>
<path opacity="0.5" d="M-650.96 285.152L-507.58 212.21L1799.82 1386.07L1656.44 1459.01" stroke="white" stroke-width="0.21" stroke-miterlimit="10"/>
<path opacity="0.5" d="M1943.19 1313.13L1799.82 1386.07L-507.58 212.21L-364.2 139.267L1943.19 1313.13Z" stroke="white" stroke-width="0.21" stroke-miterlimit="10"/>
<path opacity="0.5" d="M2086.57 1240.19L1943.19 1313.13L-364.2 139.267L-220.83 66.3337L2086.57 1240.19Z" stroke="white" stroke-width="0.21" stroke-miterlimit="10"/>
<path opacity="0.5" d="M2229.95 1167.25L2086.57 1240.19L-220.83 66.3337L-77.45 -6.6087L2229.95 1167.25Z" stroke="white" stroke-width="0.21" stroke-miterlimit="10"/>
<path opacity="0.5" d="M2373.32 1094.31L2229.95 1167.25L-77.45 -6.60865L65.93 -79.551L2373.32 1094.31Z" stroke="white" stroke-width="0.21" stroke-miterlimit="10"/>
<path opacity="0.5" d="M2516.7 1021.37L2373.32 1094.31L65.93 -79.5511L209.3 -152.493L2516.7 1021.37Z" stroke="white" stroke-width="0.21" stroke-miterlimit="10"/>
<path opacity="0.5" d="M2660.08 948.427L2516.7 1021.37L209.3 -152.493L352.68 -225.436L2660.08 948.427Z" stroke="white" stroke-width="0.21" stroke-miterlimit="10"/>
<path opacity="0.5" d="M2803.46 875.485L2660.08 948.427L352.68 -225.436L496.06 -298.378L2803.46 875.485Z" stroke="white" stroke-width="0.21" stroke-miterlimit="10"/>
<path opacity="0.5" d="M2946.83 802.542L2803.46 875.485L496.06 -298.378L639.43 -371.321L2946.83 802.542Z" stroke="white" stroke-width="0.21" stroke-miterlimit="10"/>
<path opacity="0.5" d="M3090.21 729.6L2946.83 802.542L639.43 -371.321L782.81 -444.263L3090.21 729.6Z" stroke="white" stroke-width="0.21" stroke-miterlimit="10"/>
<path opacity="0.5" d="M789.11 1884.5L-1502 718.92L786.57 -445.356L3077.68 720.216L789.11 1884.5Z" stroke="white" stroke-width="0.85" stroke-miterlimit="10"/>
<path opacity="0.5" d="M-1358.62 791.863L-1502 718.92L786.57 -445.356L929.95 -372.413L-1358.62 791.863Z" stroke="white" stroke-width="0.21" stroke-miterlimit="10"/>
<path opacity="0.5" d="M-1215.25 864.805L-1358.62 791.863L929.95 -372.413L1073.32 -299.48L-1215.25 864.805Z" stroke="white" stroke-width="0.21" stroke-miterlimit="10"/>
<path opacity="0.5" d="M-1071.87 937.747L-1215.25 864.805L1073.32 -299.48L1216.7 -226.537L-1071.87 937.747Z" stroke="white" stroke-width="0.21" stroke-miterlimit="10"/>
<path opacity="0.5" d="M-928.49 1010.69L-1071.87 937.747L1216.7 -226.537L1360.08 -153.595L-928.49 1010.69Z" stroke="white" stroke-width="0.21" stroke-miterlimit="10"/>
<path opacity="0.5" d="M-785.11 1083.63L-928.49 1010.69L1360.08 -153.595L1503.46 -80.6525L-785.11 1083.63Z" stroke="white" stroke-width="0.21" stroke-miterlimit="10"/>
<path opacity="0.5" d="M-641.74 1156.57L-785.11 1083.63L1503.46 -80.6525L1646.83 -7.71015L-641.74 1156.57Z" stroke="white" stroke-width="0.21" stroke-miterlimit="10"/>
<path opacity="0.5" d="M-498.36 1229.52L-641.74 1156.57L1646.83 -7.71014L1790.21 65.2323L-498.36 1229.52Z" stroke="white" stroke-width="0.21" stroke-miterlimit="10"/>
<path opacity="0.5" d="M-354.98 1302.46L-498.36 1229.52L1790.21 65.2322L1933.59 138.175L-354.98 1302.46Z" stroke="white" stroke-width="0.21" stroke-miterlimit="10"/>
<path opacity="0.5" d="M-211.61 1375.39L-354.98 1302.46L1933.59 138.175L2076.97 211.117L-211.61 1375.39Z" stroke="white" stroke-width="0.21" stroke-miterlimit="10"/>
<path opacity="0.5" d="M-68.23 1448.34L-211.61 1375.39L2076.97 211.117L2220.34 284.059L-68.23 1448.34Z" stroke="white" stroke-width="0.21" stroke-miterlimit="10"/>
<path opacity="0.5" d="M75.15 1521.28L-68.23 1448.34L2220.34 284.059L2363.72 356.993L75.15 1521.28Z" stroke="white" stroke-width="0.21" stroke-miterlimit="10"/>
<path opacity="0.5" d="M218.53 1594.22L75.15 1521.28L2363.72 356.993L2507.1 429.935L218.53 1594.22Z" stroke="white" stroke-width="0.21" stroke-miterlimit="10"/>
<path opacity="0.5" d="M361.9 1667.16L218.53 1594.22L2507.1 429.935L2650.47 502.878L361.9 1667.16Z" stroke="white" stroke-width="0.21" stroke-miterlimit="10"/>
<path opacity="0.5" d="M505.28 1740.1L361.9 1667.16L2650.47 502.878L2793.85 575.82L505.28 1740.1Z" stroke="white" stroke-width="0.21" stroke-miterlimit="10"/>
<path opacity="0.5" d="M648.66 1813.05L505.28 1740.1L2793.85 575.82L2937.23 648.762L648.66 1813.05Z" stroke="white" stroke-width="0.21" stroke-miterlimit="10"/>
<path opacity="0.5" d="M792.03 1885.98L648.66 1813.05L2937.23 648.762L3080.6 721.705L792.03 1885.98Z" stroke="white" stroke-width="0.21" stroke-miterlimit="10"/>
</g>
<g opacity="0.5">
<path opacity="0.5" d="M3128.93 731.089L837.82 1896.66L-1469.58 722.806L821.53 -442.774L3128.93 731.089Z" stroke="white" stroke-width="0.85" stroke-miterlimit="10"/>
<path opacity="0.5" d="M981.2 1823.72L837.82 1896.66L-1469.58 722.806L-1326.2 649.864L981.2 1823.72Z" stroke="white" stroke-width="0.21" stroke-miterlimit="10"/>
<path opacity="0.5" d="M1124.57 1750.78L981.2 1823.72L-1326.2 649.864L-1182.83 576.922L1124.57 1750.78Z" stroke="white" stroke-width="0.21" stroke-miterlimit="10"/>
<path opacity="0.5" d="M1267.95 1677.84L1124.57 1750.78L-1182.83 576.922L-1039.45 503.979L1267.95 1677.84Z" stroke="white" stroke-width="0.21" stroke-miterlimit="10"/>
<path opacity="0.5" d="M1411.33 1604.9L1267.95 1677.84L-1039.45 503.979L-896.07 431.037L1411.33 1604.9Z" stroke="white" stroke-width="0.21" stroke-miterlimit="10"/>
<path opacity="0.5" d="M1554.7 1531.96L1411.33 1604.9L-896.07 431.037L-752.69 358.094L1554.7 1531.96Z" stroke="white" stroke-width="0.21" stroke-miterlimit="10"/>
<path opacity="0.5" d="M1698.08 1459.01L1554.7 1531.96L-752.69 358.094L-609.32 285.152L1698.08 1459.01Z" stroke="white" stroke-width="0.21" stroke-miterlimit="10"/>
<path opacity="0.5" d="M-609.32 285.152L-465.94 212.21L1841.46 1386.07L1698.08 1459.01" stroke="white" stroke-width="0.21" stroke-miterlimit="10"/>
<path opacity="0.5" d="M1984.84 1313.13L1841.46 1386.07L-465.94 212.21L-322.56 139.267L1984.84 1313.13Z" stroke="white" stroke-width="0.21" stroke-miterlimit="10"/>
<path opacity="0.5" d="M2128.21 1240.19L1984.84 1313.13L-322.56 139.267L-179.19 66.3337L2128.21 1240.19Z" stroke="white" stroke-width="0.21" stroke-miterlimit="10"/>
<path opacity="0.5" d="M2271.59 1167.25L2128.21 1240.19L-179.19 66.3337L-35.8101 -6.6087L2271.59 1167.25Z" stroke="white" stroke-width="0.21" stroke-miterlimit="10"/>
<path opacity="0.5" d="M2414.97 1094.31L2271.59 1167.25L-35.8101 -6.60865L107.57 -79.551L2414.97 1094.31Z" stroke="white" stroke-width="0.21" stroke-miterlimit="10"/>
<path opacity="0.5" d="M2558.35 1021.37L2414.97 1094.31L107.57 -79.5511L250.95 -152.493L2558.35 1021.37Z" stroke="white" stroke-width="0.21" stroke-miterlimit="10"/>
<path opacity="0.5" d="M2701.72 948.427L2558.35 1021.37L250.95 -152.493L394.32 -225.436L2701.72 948.427Z" stroke="white" stroke-width="0.21" stroke-miterlimit="10"/>
<path opacity="0.5" d="M2845.1 875.485L2701.72 948.427L394.32 -225.436L537.7 -298.378L2845.1 875.485Z" stroke="white" stroke-width="0.21" stroke-miterlimit="10"/>
<path opacity="0.5" d="M2988.48 802.542L2845.1 875.485L537.7 -298.378L681.08 -371.321L2988.48 802.542Z" stroke="white" stroke-width="0.21" stroke-miterlimit="10"/>
<path opacity="0.5" d="M3131.85 729.6L2988.48 802.542L681.08 -371.321L824.45 -444.263L3131.85 729.6Z" stroke="white" stroke-width="0.21" stroke-miterlimit="10"/>
<path opacity="0.5" d="M830.75 1884.5L-1460.36 718.92L828.21 -445.356L3119.32 720.216L830.75 1884.5Z" stroke="white" stroke-width="0.85" stroke-miterlimit="10"/>
<path opacity="0.5" d="M-1316.98 791.863L-1460.36 718.92L828.21 -445.356L971.59 -372.413L-1316.98 791.863Z" stroke="white" stroke-width="0.21" stroke-miterlimit="10"/>
<path opacity="0.5" d="M-1173.6 864.805L-1316.98 791.863L971.59 -372.413L1114.97 -299.48L-1173.6 864.805Z" stroke="white" stroke-width="0.21" stroke-miterlimit="10"/>
<path opacity="0.5" d="M-1030.23 937.747L-1173.6 864.805L1114.97 -299.48L1258.34 -226.537L-1030.23 937.747Z" stroke="white" stroke-width="0.21" stroke-miterlimit="10"/>
<path opacity="0.5" d="M-886.85 1010.69L-1030.23 937.747L1258.34 -226.537L1401.72 -153.595L-886.85 1010.69Z" stroke="white" stroke-width="0.21" stroke-miterlimit="10"/>
<path opacity="0.5" d="M-743.47 1083.63L-886.85 1010.69L1401.72 -153.595L1545.1 -80.6525L-743.47 1083.63Z" stroke="white" stroke-width="0.21" stroke-miterlimit="10"/>
<path opacity="0.5" d="M-600.1 1156.57L-743.47 1083.63L1545.1 -80.6525L1688.48 -7.71015L-600.1 1156.57Z" stroke="white" stroke-width="0.21" stroke-miterlimit="10"/>
<path opacity="0.5" d="M-456.72 1229.52L-600.1 1156.57L1688.48 -7.71014L1831.85 65.2323L-456.72 1229.52Z" stroke="white" stroke-width="0.21" stroke-miterlimit="10"/>
<path opacity="0.5" d="M-313.34 1302.46L-456.72 1229.52L1831.85 65.2322L1975.23 138.175L-313.34 1302.46Z" stroke="white" stroke-width="0.21" stroke-miterlimit="10"/>
<path opacity="0.5" d="M-169.96 1375.39L-313.34 1302.46L1975.23 138.175L2118.61 211.117L-169.96 1375.39Z" stroke="white" stroke-width="0.21" stroke-miterlimit="10"/>
<path opacity="0.5" d="M-26.59 1448.34L-169.96 1375.39L2118.61 211.117L2261.99 284.059L-26.59 1448.34Z" stroke="white" stroke-width="0.21" stroke-miterlimit="10"/>
<path opacity="0.5" d="M116.79 1521.28L-26.59 1448.34L2261.99 284.059L2405.36 356.993L116.79 1521.28Z" stroke="white" stroke-width="0.21" stroke-miterlimit="10"/>
<path opacity="0.5" d="M260.17 1594.22L116.79 1521.28L2405.36 356.993L2548.74 429.935L260.17 1594.22Z" stroke="white" stroke-width="0.21" stroke-miterlimit="10"/>
<path opacity="0.5" d="M403.55 1667.16L260.17 1594.22L2548.74 429.935L2692.12 502.878L403.55 1667.16Z" stroke="white" stroke-width="0.21" stroke-miterlimit="10"/>
<path opacity="0.5" d="M546.92 1740.1L403.55 1667.16L2692.12 502.878L2835.49 575.82L546.92 1740.1Z" stroke="white" stroke-width="0.21" stroke-miterlimit="10"/>
<path opacity="0.5" d="M690.3 1813.05L546.92 1740.1L2835.49 575.82L2978.87 648.762L690.3 1813.05Z" stroke="white" stroke-width="0.21" stroke-miterlimit="10"/>
<path opacity="0.5" d="M833.68 1885.98L690.3 1813.05L2978.87 648.762L3122.25 721.705L833.68 1885.98Z" stroke="white" stroke-width="0.21" stroke-miterlimit="10"/>
</g>
<g opacity="0.5">
<path opacity="0.5" d="M3170.57 731.089L879.46 1896.66L-1427.94 722.806L863.17 -442.774L3170.57 731.089Z" stroke="white" stroke-width="0.85" stroke-miterlimit="10"/>
<path opacity="0.5" d="M1022.84 1823.72L879.46 1896.66L-1427.94 722.806L-1284.56 649.864L1022.84 1823.72Z" stroke="white" stroke-width="0.21" stroke-miterlimit="10"/>
<path opacity="0.5" d="M1166.22 1750.78L1022.84 1823.72L-1284.56 649.864L-1141.18 576.922L1166.22 1750.78Z" stroke="white" stroke-width="0.21" stroke-miterlimit="10"/>
<path opacity="0.5" d="M1309.59 1677.84L1166.22 1750.78L-1141.18 576.922L-997.81 503.979L1309.59 1677.84Z" stroke="white" stroke-width="0.21" stroke-miterlimit="10"/>
<path opacity="0.5" d="M1452.97 1604.9L1309.59 1677.84L-997.81 503.979L-854.43 431.037L1452.97 1604.9Z" stroke="white" stroke-width="0.21" stroke-miterlimit="10"/>
<path opacity="0.5" d="M1596.35 1531.96L1452.97 1604.9L-854.43 431.037L-711.05 358.094L1596.35 1531.96Z" stroke="white" stroke-width="0.21" stroke-miterlimit="10"/>
<path opacity="0.5" d="M1739.72 1459.01L1596.35 1531.96L-711.05 358.094L-567.67 285.152L1739.72 1459.01Z" stroke="white" stroke-width="0.21" stroke-miterlimit="10"/>
<path opacity="0.5" d="M-567.67 285.152L-424.3 212.21L1883.1 1386.07L1739.72 1459.01" stroke="white" stroke-width="0.21" stroke-miterlimit="10"/>
<path opacity="0.5" d="M2026.48 1313.13L1883.1 1386.07L-424.3 212.21L-280.92 139.267L2026.48 1313.13Z" stroke="white" stroke-width="0.21" stroke-miterlimit="10"/>
<path opacity="0.5" d="M2169.86 1240.19L2026.48 1313.13L-280.92 139.267L-137.54 66.3337L2169.86 1240.19Z" stroke="white" stroke-width="0.21" stroke-miterlimit="10"/>
<path opacity="0.5" d="M2313.23 1167.25L2169.86 1240.19L-137.54 66.3337L5.82983 -6.6087L2313.23 1167.25Z" stroke="white" stroke-width="0.21" stroke-miterlimit="10"/>
<path opacity="0.5" d="M2456.61 1094.31L2313.23 1167.25L5.82996 -6.60865L149.21 -79.551L2456.61 1094.31Z" stroke="white" stroke-width="0.21" stroke-miterlimit="10"/>
<path opacity="0.5" d="M2599.99 1021.37L2456.61 1094.31L149.21 -79.5511L292.59 -152.493L2599.99 1021.37Z" stroke="white" stroke-width="0.21" stroke-miterlimit="10"/>
<path opacity="0.5" d="M2743.36 948.427L2599.99 1021.37L292.59 -152.493L435.97 -225.436L2743.36 948.427Z" stroke="white" stroke-width="0.21" stroke-miterlimit="10"/>
<path opacity="0.5" d="M2886.74 875.485L2743.36 948.427L435.97 -225.436L579.34 -298.378L2886.74 875.485Z" stroke="white" stroke-width="0.21" stroke-miterlimit="10"/>
<path opacity="0.5" d="M3030.12 802.542L2886.74 875.485L579.34 -298.378L722.72 -371.321L3030.12 802.542Z" stroke="white" stroke-width="0.21" stroke-miterlimit="10"/>
<path opacity="0.5" d="M3173.5 729.6L3030.12 802.542L722.72 -371.321L866.1 -444.263L3173.5 729.6Z" stroke="white" stroke-width="0.21" stroke-miterlimit="10"/>
<path opacity="0.5" d="M872.4 1884.5L-1418.72 718.92L869.86 -445.356L3160.97 720.216L872.4 1884.5Z" stroke="white" stroke-width="0.85" stroke-miterlimit="10"/>
<path opacity="0.5" d="M-1275.34 791.863L-1418.72 718.92L869.86 -445.356L1013.23 -372.413L-1275.34 791.863Z" stroke="white" stroke-width="0.21" stroke-miterlimit="10"/>
<path opacity="0.5" d="M-1131.96 864.805L-1275.34 791.863L1013.23 -372.413L1156.61 -299.48L-1131.96 864.805Z" stroke="white" stroke-width="0.21" stroke-miterlimit="10"/>
<path opacity="0.5" d="M-988.58 937.747L-1131.96 864.805L1156.61 -299.48L1299.99 -226.537L-988.58 937.747Z" stroke="white" stroke-width="0.21" stroke-miterlimit="10"/>
<path opacity="0.5" d="M-845.21 1010.69L-988.58 937.747L1299.99 -226.537L1443.36 -153.595L-845.21 1010.69Z" stroke="white" stroke-width="0.21" stroke-miterlimit="10"/>
<path opacity="0.5" d="M-701.83 1083.63L-845.21 1010.69L1443.36 -153.595L1586.74 -80.6525L-701.83 1083.63Z" stroke="white" stroke-width="0.21" stroke-miterlimit="10"/>
<path opacity="0.5" d="M-558.45 1156.57L-701.83 1083.63L1586.74 -80.6525L1730.12 -7.71015L-558.45 1156.57Z" stroke="white" stroke-width="0.21" stroke-miterlimit="10"/>
<path opacity="0.5" d="M-415.08 1229.52L-558.45 1156.57L1730.12 -7.71014L1873.5 65.2323L-415.08 1229.52Z" stroke="white" stroke-width="0.21" stroke-miterlimit="10"/>
<path opacity="0.5" d="M-271.7 1302.46L-415.08 1229.52L1873.5 65.2322L2016.87 138.175L-271.7 1302.46Z" stroke="white" stroke-width="0.21" stroke-miterlimit="10"/>
<path opacity="0.5" d="M-128.32 1375.39L-271.7 1302.46L2016.87 138.175L2160.25 211.117L-128.32 1375.39Z" stroke="white" stroke-width="0.21" stroke-miterlimit="10"/>
<path opacity="0.5" d="M15.0601 1448.34L-128.32 1375.39L2160.25 211.117L2303.63 284.059L15.0601 1448.34Z" stroke="white" stroke-width="0.21" stroke-miterlimit="10"/>
<path opacity="0.5" d="M158.43 1521.28L15.0599 1448.34L2303.63 284.059L2447 356.993L158.43 1521.28Z" stroke="white" stroke-width="0.21" stroke-miterlimit="10"/>
<path opacity="0.5" d="M301.81 1594.22L158.43 1521.28L2447 356.993L2590.38 429.935L301.81 1594.22Z" stroke="white" stroke-width="0.21" stroke-miterlimit="10"/>
<path opacity="0.5" d="M445.19 1667.16L301.81 1594.22L2590.38 429.935L2733.76 502.878L445.19 1667.16Z" stroke="white" stroke-width="0.21" stroke-miterlimit="10"/>
<path opacity="0.5" d="M588.57 1740.1L445.19 1667.16L2733.76 502.878L2877.14 575.82L588.57 1740.1Z" stroke="white" stroke-width="0.21" stroke-miterlimit="10"/>
<path opacity="0.5" d="M731.94 1813.05L588.57 1740.1L2877.14 575.82L3020.51 648.762L731.94 1813.05Z" stroke="white" stroke-width="0.21" stroke-miterlimit="10"/>
<path opacity="0.5" d="M875.32 1885.98L731.94 1813.05L3020.51 648.762L3163.89 721.705L875.32 1885.98Z" stroke="white" stroke-width="0.21" stroke-miterlimit="10"/>
</g>
<g opacity="0.5">
<path opacity="0.5" d="M3212.22 731.089L921.1 1896.66L-1386.29 722.806L904.82 -442.774L3212.22 731.089Z" stroke="white" stroke-miterlimit="10"/>
<path opacity="0.5" d="M1064.48 1823.72L921.1 1896.66L-1386.29 722.806L-1242.92 649.864L1064.48 1823.72Z" stroke="white" stroke-miterlimit="10"/>
<path opacity="0.5" d="M1207.86 1750.78L1064.48 1823.72L-1242.92 649.864L-1099.54 576.922L1207.86 1750.78Z" stroke="white" stroke-miterlimit="10"/>
<path opacity="0.5" d="M1351.24 1677.84L1207.86 1750.78L-1099.54 576.922L-956.16 503.979L1351.24 1677.84Z" stroke="white" stroke-miterlimit="10"/>
<path opacity="0.5" d="M1494.61 1604.9L1351.24 1677.84L-956.16 503.979L-812.79 431.037L1494.61 1604.9Z" stroke="white" stroke-miterlimit="10"/>
<path opacity="0.5" d="M1637.99 1531.96L1494.61 1604.9L-812.79 431.037L-669.41 358.094L1637.99 1531.96Z" stroke="white" stroke-miterlimit="10"/>
<path opacity="0.5" d="M1781.37 1459.01L1637.99 1531.96L-669.41 358.094L-526.03 285.152L1781.37 1459.01Z" stroke="white" stroke-miterlimit="10"/>
<path opacity="0.5" d="M-526.03 285.152L-382.65 212.21L1924.74 1386.07L1781.37 1459.01" stroke="white" stroke-miterlimit="10"/>
<path opacity="0.5" d="M2068.12 1313.13L1924.74 1386.07L-382.65 212.21L-239.28 139.267L2068.12 1313.13Z" stroke="white" stroke-miterlimit="10"/>
<path opacity="0.5" d="M2211.5 1240.19L2068.12 1313.13L-239.28 139.267L-95.9 66.3337L2211.5 1240.19Z" stroke="white" stroke-miterlimit="10"/>
<path opacity="0.5" d="M2354.88 1167.25L2211.5 1240.19L-95.9 66.3337L47.48 -6.6087L2354.88 1167.25Z" stroke="white" stroke-miterlimit="10"/>
<path opacity="0.5" d="M2498.25 1094.31L2354.88 1167.25L47.48 -6.60865L190.85 -79.551L2498.25 1094.31Z" stroke="white" stroke-miterlimit="10"/>
<path opacity="0.5" d="M2641.63 1021.37L2498.25 1094.31L190.85 -79.5511L334.23 -152.493L2641.63 1021.37Z" stroke="white" stroke-miterlimit="10"/>
<path opacity="0.5" d="M2785.01 948.427L2641.63 1021.37L334.23 -152.493L477.61 -225.436L2785.01 948.427Z" stroke="white" stroke-miterlimit="10"/>
<path opacity="0.5" d="M2928.38 875.485L2785.01 948.427L477.61 -225.436L620.99 -298.378L2928.38 875.485Z" stroke="white" stroke-miterlimit="10"/>
<path opacity="0.5" d="M3071.76 802.542L2928.38 875.485L620.99 -298.378L764.36 -371.321L3071.76 802.542Z" stroke="white" stroke-miterlimit="10"/>
<path opacity="0.5" d="M3215.14 729.6L3071.76 802.542L764.36 -371.321L907.74 -444.263L3215.14 729.6Z" stroke="white" stroke-miterlimit="10"/>
<path opacity="0.5" d="M914.04 1884.5L-1377.07 718.92L911.5 -445.356L3202.61 720.216L914.04 1884.5Z" stroke="white" stroke-miterlimit="10"/>
<path opacity="0.5" d="M-1233.69 791.863L-1377.07 718.92L764.76 -370.704L911.5 -445.356L1054.88 -372.413L-1233.69 791.863Z" stroke="white" stroke-miterlimit="10"/>
<path opacity="0.5" d="M-1090.32 864.805L-1233.69 791.863L1054.88 -372.413L1198.25 -299.48L-1090.32 864.805Z" stroke="white" stroke-miterlimit="10"/>
<path opacity="0.5" d="M-946.94 937.747L-1090.32 864.805L1198.25 -299.48L1341.63 -226.537L-946.94 937.747Z" stroke="white" stroke-miterlimit="10"/>
<path opacity="0.5" d="M-803.56 1010.69L-946.94 937.747L1341.63 -226.537L1485.01 -153.595L-803.56 1010.69Z" stroke="white" stroke-miterlimit="10"/>
<path opacity="0.5" d="M-660.19 1083.63L-803.56 1010.69L1485.01 -153.595L1628.38 -80.6525L-660.19 1083.63Z" stroke="white" stroke-miterlimit="10"/>
<path opacity="0.5" d="M-516.81 1156.57L-660.19 1083.63L1628.38 -80.6525L1771.76 -7.71015L-516.81 1156.57Z" stroke="white" stroke-miterlimit="10"/>
<path opacity="0.5" d="M-373.43 1229.52L-516.81 1156.57L1771.76 -7.71014L1915.14 65.2323L-373.43 1229.52Z" stroke="white" stroke-miterlimit="10"/>
<path opacity="0.5" d="M-230.06 1302.46L-373.43 1229.52L1915.14 65.2322L2058.51 138.175L-230.06 1302.46Z" stroke="white" stroke-miterlimit="10"/>
<path opacity="0.5" d="M-86.6801 1375.39L-230.06 1302.46L2058.51 138.175L2201.89 211.117L-86.6801 1375.39Z" stroke="white" stroke-miterlimit="10"/>
<path opacity="0.5" d="M56.7 1448.34L-86.6801 1375.39L2201.89 211.117L2345.27 284.059L56.7 1448.34Z" stroke="white" stroke-miterlimit="10"/>
<path opacity="0.5" d="M200.08 1521.28L56.7 1448.34L2345.27 284.059L2488.65 356.993L200.08 1521.28Z" stroke="white" stroke-miterlimit="10"/>
<path opacity="0.5" d="M343.45 1594.22L200.08 1521.28L2488.65 356.993L2632.02 429.935L343.45 1594.22Z" stroke="white" stroke-miterlimit="10"/>
<path opacity="0.5" d="M486.83 1667.16L343.45 1594.22L2632.02 429.935L2775.4 502.878L486.83 1667.16Z" stroke="white" stroke-miterlimit="10"/>
<path opacity="0.5" d="M630.21 1740.1L486.83 1667.16L2775.4 502.878L2918.78 575.82L630.21 1740.1Z" stroke="white" stroke-miterlimit="10"/>
<path opacity="0.5" d="M773.59 1813.05L630.21 1740.1L2918.78 575.82L3062.15 648.762L773.59 1813.05Z" stroke="white" stroke-miterlimit="10"/>
<path opacity="0.5" d="M916.96 1885.98L773.59 1813.05L3062.15 648.762L3205.53 721.705L916.96 1885.98Z" stroke="white" stroke-miterlimit="10"/>
</g>
</g>
</g>
<defs>
<clipPath id="clip0">
<rect width="1440" height="876" fill="white"/>
</clipPath>
</defs>
</svg>
