<svg width="174" height="182" viewBox="0 0 174 182" fill="none" xmlns="http://www.w3.org/2000/svg">
<path fill-rule="evenodd" clip-rule="evenodd" d="M8.16003 94.5599V109.89L23.39 121.36C23.39 121.36 23 98.7299 8.16003 94.5599Z" fill="#B77C17"/>
<path fill-rule="evenodd" clip-rule="evenodd" d="M27.93 111.16C27.6 116.49 23.17 118.58 18.07 115.8C12.97 113.02 9.07003 106.41 9.42003 101.08C9.77003 95.75 14.18 93.66 19.28 96.43C24.38 99.2 28.28 105.82 27.93 111.16Z" fill="#302C2E"/>
<path fill-rule="evenodd" clip-rule="evenodd" d="M3.88 101.07L12.28 95.87L9.63 101.05L3.88 101.07Z" fill="#302C2E"/>
<path fill-rule="evenodd" clip-rule="evenodd" d="M17.05 121.35L25.49 116.12L18.3601 112.8L17.49 118.84L17.05 121.35Z" fill="#302C2E"/>
<path fill-rule="evenodd" clip-rule="evenodd" d="M19.5401 116.36C19.2001 121.69 14.7801 123.78 9.68005 121.01C4.58005 118.24 0.700052 111.62 1.00005 106.28C1.30005 100.94 5.76005 98.86 10.8601 101.64C15.9601 104.42 19.8601 111.03 19.5101 116.36H19.5401Z" fill="#221E20"/>
<path fill-rule="evenodd" clip-rule="evenodd" d="M17.0001 115C16.7601 118.85 13.5701 120.35 9.90006 118.35C6.23006 116.35 3.43007 111.59 3.66007 107.74C3.89007 103.89 7.09007 102.39 10.7701 104.39C14.4501 106.39 17.1901 111.11 17.0001 115Z" fill="#12100B"/>
<path fill-rule="evenodd" clip-rule="evenodd" d="M19.5401 116.36C19.2001 121.69 14.7801 123.78 9.68005 121.01C4.58005 118.24 0.700052 111.62 1.00005 106.28C1.30005 100.94 5.76005 98.86 10.8601 101.64C15.9601 104.42 19.8601 111.03 19.5101 116.36H19.5401Z" fill="#363232"/>
<path fill-rule="evenodd" clip-rule="evenodd" d="M18.6401 115.87C18.3401 120.69 14.3401 122.57 9.74007 120.07C5.14007 117.57 1.63007 111.59 1.92007 106.77C2.21007 101.95 6.23007 100.07 10.8301 102.58C15.4301 105.09 18.9401 111.05 18.6401 115.87Z" fill="#242121"/>
<path fill-rule="evenodd" clip-rule="evenodd" d="M16.4301 114.67C16.2001 118.21 13.2701 119.59 9.88006 117.75C6.49006 115.91 3.88006 111.52 4.14006 107.98C4.40006 104.44 7.30006 103.05 10.6801 104.89C14.0601 106.73 16.6801 111.12 16.4301 114.67Z" fill="#433F3D"/>
<path fill-rule="evenodd" clip-rule="evenodd" d="M16 114C15.8 117.12 13.21 118.35 10.22 116.72C7.23003 115.09 5.00003 111.2 5.14003 108.07C5.28003 104.94 7.93003 103.72 10.92 105.35C13.91 106.98 16.18 110.85 15.99 113.98L16 114Z" fill="#D7951E"/>
<path fill-rule="evenodd" clip-rule="evenodd" d="M15.82 113.88C15.63 116.88 13.12 118.1 10.22 116.52C7.32002 114.94 5.12002 111.19 5.31002 108.16C5.50002 105.13 8.01002 103.95 10.91 105.52C13.81 107.09 16.01 110.86 15.82 113.88Z" fill="#AC5F18"/>
<path fill-rule="evenodd" clip-rule="evenodd" d="M15.4901 113.71C15.3201 116.55 12.9601 117.71 10.2401 116.18C7.5201 114.65 5.4601 111.18 5.6401 108.34C5.8201 105.5 8.1701 104.34 10.8901 105.87C12.2675 106.67 13.4149 107.812 14.2208 109.185C15.0268 110.559 15.464 112.118 15.4901 113.71Z" fill="#D7951E"/>
<path fill-rule="evenodd" clip-rule="evenodd" d="M15.2001 113.56C15.0301 116.22 12.8301 117.26 10.2501 115.89C7.67008 114.52 5.74008 111.19 5.91008 108.49C6.08008 105.79 8.21008 104.83 10.6901 106.1L10.8601 106.16C12.0325 106.839 13.0306 107.781 13.7753 108.913C14.5199 110.045 14.9906 111.335 15.1501 112.68C15.1852 112.972 15.1852 113.268 15.1501 113.56H15.2001Z" fill="#EFBD00"/>
<path fill-rule="evenodd" clip-rule="evenodd" d="M15.1501 112.68C14.6601 113.68 13.4201 114.01 12.0301 113.24C11.1276 112.719 10.3764 111.972 9.85033 111.072C9.3243 110.173 9.0416 109.152 9.03008 108.11C8.99676 107.619 9.15716 107.135 9.47685 106.761C9.79654 106.387 10.25 106.153 10.7401 106.11L10.9101 106.17C12.0825 106.849 13.0806 107.791 13.8253 108.923C14.5699 110.055 15.0406 111.345 15.2001 112.69L15.1501 112.68Z" fill="#D7951E"/>
<path d="M67.72 41.99L51.91 32.86V58.05L67.72 67.19V41.99Z" fill="#F3C523"/>
<path d="M61.0801 37.97L16.8301 64.52L24.5001 69.13L67.7201 41.99L61.0801 37.97Z" fill="#8B8887"/>
<path d="M102.92 87.5499L105.67 89.1299V87.5499H102.92Z" fill="#F3C523"/>
<path fill-rule="evenodd" clip-rule="evenodd" d="M122.09 107.65C121.76 112.98 117.33 115.07 112.23 112.29C107.13 109.51 103.23 102.91 103.58 97.5699C103.93 92.2299 108.34 90.1499 113.44 92.9299C118.54 95.7099 122.44 102.31 122.09 107.65Z" fill="#302C2E"/>
<path fill-rule="evenodd" clip-rule="evenodd" d="M98.04 97.56L106.44 92.36L103.79 97.54L98.04 97.56Z" fill="#161412"/>
<path fill-rule="evenodd" clip-rule="evenodd" d="M111.2 117.84L119.64 112.61L112.52 109.29L111.65 115.33L111.2 117.84Z" fill="#302C2E"/>
<path fill-rule="evenodd" clip-rule="evenodd" d="M113.7 112.85C113.36 118.19 108.94 120.27 103.84 117.5C98.74 114.73 94.84 108.11 95.19 102.78C95.54 97.45 99.95 95.35 105.05 98.13C110.15 100.91 114.05 107.52 113.7 112.85Z" fill="#221E20"/>
<path fill-rule="evenodd" clip-rule="evenodd" d="M111.11 111.44C110.87 115.29 107.68 116.79 104.01 114.79C100.34 112.79 97.53 108.03 97.77 104.18C98.01 100.33 101.2 98.84 104.88 100.84C108.56 102.84 111.35 107.6 111.11 111.44Z" fill="#12100B"/>
<path fill-rule="evenodd" clip-rule="evenodd" d="M113.7 112.85C113.36 118.19 108.94 120.27 103.84 117.5C98.74 114.73 94.84 108.11 95.19 102.78C95.54 97.45 99.95 95.35 105.05 98.13C110.15 100.91 114.05 107.52 113.7 112.85Z" fill="#363232"/>
<path fill-rule="evenodd" clip-rule="evenodd" d="M112.8 112.36C112.5 117.18 108.5 119.07 103.9 116.56C99.3001 114.05 95.7801 108.08 96.0801 103.26C96.3801 98.44 100.38 96.56 104.99 99.07C109.6 101.58 113.1 107.55 112.8 112.36Z" fill="#242121"/>
<path fill-rule="evenodd" clip-rule="evenodd" d="M110.58 111.16C110.36 114.7 107.43 116.09 104.04 114.24C100.65 112.39 98.0401 108.01 98.3001 104.47C98.5601 100.93 101.46 99.54 104.84 101.38C108.22 103.22 110.84 107.62 110.58 111.16Z" fill="#433F3D"/>
<path fill-rule="evenodd" clip-rule="evenodd" d="M110.15 110.47C109.95 113.59 107.36 114.82 104.37 113.19C101.38 111.56 99.11 107.69 99.3 104.56C99.49 101.43 102.09 100.21 105.08 101.84C108.07 103.47 110.34 107.34 110.15 110.47Z" fill="#D8D6D6"/>
<path fill-rule="evenodd" clip-rule="evenodd" d="M110 110.38C109.81 113.38 107.3 114.59 104.4 113.01C101.5 111.43 99.3001 107.68 99.4901 104.65C99.6801 101.62 102.19 100.44 105.09 102.02C107.99 103.6 110.19 107.35 110 110.38Z" fill="#AAA4A1"/>
<path fill-rule="evenodd" clip-rule="evenodd" d="M109.65 110.2C109.48 113.04 107.12 114.2 104.4 112.67C101.68 111.14 99.62 107.67 99.8 104.83C99.98 101.99 102.33 100.83 105.05 102.36C106.427 103.16 107.575 104.302 108.381 105.675C109.187 107.049 109.624 108.608 109.65 110.2Z" fill="#D8D6D6"/>
<path fill-rule="evenodd" clip-rule="evenodd" d="M109.36 110.05C109.19 112.71 106.99 113.75 104.36 112.38C101.73 111.01 99.8501 107.68 100.02 104.98C100.19 102.28 102.32 101.32 104.79 102.59L104.97 102.66C106.143 103.336 107.141 104.277 107.886 105.407C108.631 106.537 109.101 107.826 109.26 109.17C109.295 109.462 109.295 109.758 109.26 110.05H109.36Z" fill="#847B76"/>
<path fill-rule="evenodd" clip-rule="evenodd" d="M109.31 109.17C108.82 110.17 107.58 110.5 106.19 109.73C105.288 109.209 104.536 108.462 104.01 107.562C103.484 106.663 103.202 105.642 103.19 104.6C103.157 104.111 103.316 103.628 103.633 103.254C103.951 102.881 104.402 102.646 104.89 102.6L105.07 102.67C106.243 103.346 107.241 104.287 107.986 105.417C108.731 106.547 109.201 107.836 109.36 109.18L109.31 109.17Z" fill="#D8D6D6"/>
<path d="M111 85.48L103.87 90.22L48.1601 75.16V60.08C48.1565 58.6421 48.6834 57.2535 49.6401 56.18C51.3701 54.25 54.3501 52.88 56.8901 54.36L111 85.48Z" fill="#FFE14C"/>
<path d="M72.12 123.65L66.15 127.09L72.12 133.78V123.65Z" fill="#B77C17"/>
<path fill-rule="evenodd" clip-rule="evenodd" d="M41.2701 137.78L60.7501 127.94L55.8801 117.22C55.8801 117.22 48.9801 112.55 44.6001 114.78C39.8701 117.19 37.7501 126.91 41.2701 137.78Z" fill="#B77C17"/>
<path d="M104.22 98.49L72.1201 117.22V133.78L104.22 115.04V98.49Z" fill="#9D6619"/>
<path d="M16.8301 64.5199L8.59009 85.1399L61.4201 115.68V90.4399L16.8301 64.5199Z" fill="#2F2C29"/>
<path d="M93.2701 17.89C95.8401 22.17 105.47 40.89 102.55 78.89L70.8401 60.23V7.66996C70.8453 7.24816 71.0159 6.84526 71.3151 6.54792C71.6143 6.25058 72.0183 6.08254 72.4401 6.07996C72.7152 6.07963 72.9839 6.16336 73.2101 6.31996L93.2701 17.89ZM102.62 89.05C103.09 43.17 96.0501 13.55 96.0501 13.55L74.5601 1.13996C73.1506 0.328462 71.5385 -0.0631595 69.9138 0.0112545C68.2891 0.0856684 66.7195 0.623016 65.3901 1.55996V1.62996L65.0401 1.82996C64.0385 2.63028 63.2312 3.64706 62.6787 4.80397C62.1262 5.96089 61.843 7.22791 61.8501 8.50996V65.1L102.66 89.1L102.62 89.05Z" fill="#373331"/>
<path d="M63.3301 6.88C63.3344 5.07709 63.92 3.32363 65.0001 1.88C63.9987 2.6783 63.1914 3.69326 62.6389 4.84856C62.0863 6.00385 61.803 7.2694 61.8101 8.55V65.1L102.62 89.1C102.69 88.27 102.72 87.49 102.78 86.68L63.3301 63.47V6.88Z" fill="#413D3B"/>
<path d="M72.3601 6.08997C71.9532 6.11031 71.5694 6.28511 71.2869 6.5787C71.0045 6.8723 70.8447 7.26259 70.8401 7.66997V60.23L102.55 78.86C102.61 78.02 102.64 77.25 102.69 76.43L72.3601 58.6V6.08997Z" fill="#413D3B"/>
<path d="M104.83 83.49L62.33 108.26L24.5 86.78L67 62.01L104.83 83.49Z" fill="#1B1915"/>
<path d="M67 36.76L24.5 61.54V86.78L67 62.01V36.76Z" fill="#252320"/>
<path d="M26.9 63.93L67 40.56V36.76L24.5 61.54V86.78L26.9 85.38V63.93Z" fill="#8B8887"/>
<path d="M81.18 77.06V79.18C81.2015 79.6206 81.1031 80.0588 80.8953 80.448C80.6875 80.8371 80.3781 81.1627 80 81.39L65.62 89.6C64.7448 90.096 63.756 90.3568 62.75 90.3568C61.744 90.3568 60.7552 90.096 59.88 89.6L41.65 79.05V52.12C41.6523 51.0205 41.9436 49.9411 42.4947 48.9897C43.0458 48.0384 43.8374 47.2488 44.79 46.7L59.47 38.15C60.76 37.37 64.26 39.49 64.26 40.99L62.39 67.1L70.94 72L78.55 76.4L81.18 77.03V77.06Z" fill="#5A5858"/>
<path d="M81.18 77.0599V79.1799C81.2015 79.6206 81.1031 80.0588 80.8953 80.4479C80.6875 80.8371 80.3781 81.1626 80 81.3899L65.62 89.5999C64.7448 90.096 63.756 90.3568 62.75 90.3568C61.744 90.3568 60.7552 90.096 59.88 89.5999L41.65 79.0499V76.8499L43.65 77.9599L78.59 76.4299L81.22 77.0599H81.18Z" fill="#5A5858"/>
<path d="M51.16 59.9299L64 44.0599L64.27 40.9999C64.27 39.4999 60.77 37.3899 59.47 38.1499L44.78 46.6999C43.8337 47.2533 43.0487 48.0448 42.5031 48.9956C41.9574 49.9465 41.6703 51.0236 41.67 52.1199L44.45 53.6599L51.16 59.9299Z" fill="#8C8988"/>
<path d="M61.4201 39.85L46.7201 48.41C45.7737 48.9633 44.9887 49.7548 44.4431 50.7057C43.8975 51.6565 43.6103 52.7337 43.6101 53.83V78L64.3401 66V41.52C64.3394 41.1788 64.2486 40.8439 64.0771 40.549C63.9056 40.254 63.6594 40.0096 63.3632 39.8402C63.0671 39.6708 62.7315 39.5825 62.3904 39.5843C62.0492 39.586 61.7145 39.6776 61.4201 39.85Z" fill="#484647"/>
<path d="M43.6101 78L59.8701 87.37C60.7445 87.8737 61.736 88.1388 62.7451 88.1388C63.7542 88.1388 64.7457 87.8737 65.6201 87.37L80.0001 79.13C80.3637 78.9216 80.6659 78.6209 80.876 78.2583C81.0862 77.8957 81.1968 77.4841 81.1968 77.065C81.1968 76.6459 81.0862 76.2343 80.876 75.8717C80.6659 75.509 80.3637 75.2084 80.0001 75L64.3401 66L43.6101 78Z" fill="#6A6868"/>
<path d="M74.56 4.32994L61.81 11.7299L37.27 25.9999H28.75L65 4.99994L65.35 4.78994V4.71994C67.6 3.16994 71.74 0.0399366 74.52 1.11994V4.32994H74.56Z" fill="#262321"/>
<path d="M96 23.2199C97.14 31.7599 98.72 44.9999 101.86 76.6199C102.01 78.1799 100.41 83.2999 89.86 88.3899C81 92.5999 74.52 91.6799 74 88.9299C69.35 63.3599 68.1 48.4999 66.65 39.9299C66.26 37.6699 66.65 35.3699 68.58 34.2199L71.37 32.5899C77.29 29.1599 85.92 24.1399 90.72 21.3399C91.1115 21.1022 91.5468 20.9457 92 20.8799C93.65 20.6199 95.7 21.4499 95.94 23.2199H96ZM103.85 101.36C104.4 35.9099 96.09 13.5499 96.09 13.5499L58.77 35.2399C58.77 35.2399 66.33 64.3699 67 123.65L103.84 101.36H103.85Z" fill="#181612"/>
<path d="M93.55 21.81C94.86 30.48 96.06 46.25 99.41 75.21C99.59 76.77 97.97 81.89 87.41 86.98C81.91 89.62 77.1 90.26 74.28 89.69C75.48 91.83 81.92 92.18 89.82 88.39C100.39 83.3 101.94 78.19 101.82 76.62C99.94 48.5 97.47 31.84 96 23.22C95.8144 22.5622 95.423 21.981 94.8831 21.5617C94.3433 21.1424 93.6834 20.907 93 20.89C93.2533 21.1457 93.4359 21.4627 93.53 21.81H93.55Z" fill="#413D3B"/>
<path d="M70.65 3.40996L88.28 13.51L92.13 11.28L74.56 1.13996C73.1505 0.328462 71.5384 -0.0631595 69.9137 0.0112545C68.289 0.0856684 66.7195 0.623016 65.39 1.55996V1.62996L65.04 1.82996L28.79 22.83H37.31L61.81 8.53996L70.65 3.40996Z" fill="#413D3B"/>
<path d="M92.13 11.2799L58.74 30.7699L41.2 20.5699L37.27 22.8299L54.9 33.0099L58.76 35.2299L96.06 13.5399L92.13 11.2799Z" fill="#413D3B"/>
<path d="M68.2201 112.47C68.4801 115.11 67.7001 117.82 67.3501 120.64L64.5701 122.24C65.0501 118.34 65.4701 114.62 65.7801 111.04C71.0001 52.93 54.7001 33.11 54.7001 33.11L54.9001 33.01L58.7601 35.23L58.9301 35.51C59.1416 35.769 59.3291 36.0469 59.4901 36.34C62.4401 41.24 64.3001 73.07 68.1801 112.43" fill="#8B8887"/>
<path d="M56 39.5799C58.57 43.8499 61.53 61.2399 65.25 100.58L33.56 81.9999V29.3599C33.5599 28.9407 33.7244 28.5383 34.018 28.239C34.3116 27.9398 34.7109 27.7678 35.13 27.7599C35.4003 27.7704 35.6627 27.8533 35.89 27.9999L56 39.5799ZM69 112.89C69.67 82.5499 62.88 41.5899 59.58 36.3799C59.419 36.0868 59.2316 35.809 59.02 35.5499L58.85 35.2699L54.9 32.9999L37.28 22.8599C35.9857 22.1068 34.5155 21.7085 33.018 21.7053C31.5205 21.7022 30.0487 22.0942 28.7512 22.8419C27.4537 23.5895 26.3764 24.6664 25.6282 25.9636C24.8801 27.2608 24.4874 28.7324 24.49 30.2299V86.7799L65.79 111L68.22 112.43L68.95 112.85L69 112.89Z" fill="#373331"/>
<path d="M35.9001 27.9999C35.6679 27.8586 35.4018 27.7826 35.1301 27.7799C34.7137 27.7799 34.3143 27.9453 34.0199 28.2397C33.7255 28.5342 33.5601 28.9335 33.5601 29.3499V81.9399L65.2401 100.55C65.3301 99.3099 65.3801 98.1499 65.4501 96.9499L37.0001 80.2099V28.6199L35.9001 27.9999Z" fill="#413D3B"/>
<path fill-rule="evenodd" clip-rule="evenodd" d="M70.6301 137.22C70.3001 142.56 65.8701 144.64 60.7701 141.87C55.6701 139.1 51.7701 132.48 52.1201 127.15C52.4701 121.82 56.8801 119.73 61.9801 122.5C67.0801 125.27 70.9801 131.89 70.6301 137.22Z" fill="#302C2E"/>
<path fill-rule="evenodd" clip-rule="evenodd" d="M46.5801 127.13L54.9701 121.94L52.3301 127.11L46.5801 127.13Z" fill="#302C2E"/>
<path fill-rule="evenodd" clip-rule="evenodd" d="M59.7401 147.42L68.1801 142.18L61.0601 138.86L60.1901 144.91L59.7401 147.42Z" fill="#302C2E"/>
<path fill-rule="evenodd" clip-rule="evenodd" d="M62.23 142.43C61.9 147.76 57.47 149.85 52.38 147.07C47.29 144.29 43.38 137.69 43.73 132.35C44.08 127.01 48.49 124.93 53.58 127.7C58.67 130.47 62.58 137.09 62.23 142.43Z" fill="#221E20"/>
<path fill-rule="evenodd" clip-rule="evenodd" d="M59.65 141C59.41 144.84 56.21 146.35 52.54 144.35C48.87 142.35 46.07 137.58 46.31 133.74C46.55 129.9 49.74 128.39 53.41 130.39C57.08 132.39 59.88 137.16 59.65 141Z" fill="#12100B"/>
<path fill-rule="evenodd" clip-rule="evenodd" d="M62.23 142.43C61.9 147.76 57.47 149.85 52.38 147.07C47.29 144.29 43.38 137.69 43.73 132.35C44.08 127.01 48.49 124.93 53.58 127.7C58.67 130.47 62.58 137.09 62.23 142.43Z" fill="#363232"/>
<path fill-rule="evenodd" clip-rule="evenodd" d="M61.3301 141.94C61.0301 146.76 57.0401 148.64 52.4301 146.14C47.8201 143.64 44.3201 137.66 44.6201 132.84C44.9201 128.02 48.9201 126.14 53.5201 128.64C58.1201 131.14 61.6401 137.12 61.3301 141.94Z" fill="#242121"/>
<path fill-rule="evenodd" clip-rule="evenodd" d="M59.1201 140.73C58.9001 144.28 55.9601 145.66 52.5801 143.82C49.2001 141.98 46.5801 137.59 46.8301 134.04C47.0801 130.49 50.0001 129.12 53.3801 131C56.7601 132.88 59.3801 137.23 59.1201 140.77V140.73Z" fill="#433F3D"/>
<path fill-rule="evenodd" clip-rule="evenodd" d="M58.69 140C58.49 143.13 55.89 144.35 52.91 142.73C49.93 141.11 47.64 137.22 47.84 134.1C48.04 130.98 50.63 129.75 53.62 131.37C56.61 132.99 58.88 136.88 58.69 140Z" fill="#D7951E"/>
<path fill-rule="evenodd" clip-rule="evenodd" d="M58.5201 140C58.3301 143 55.81 144.21 52.92 142.64C50.03 141.07 47.82 137.31 48.01 134.28C48.2 131.25 50.71 130.07 53.61 131.64C56.51 133.21 58.7001 136.97 58.5201 140Z" fill="#AC5F18"/>
<path fill-rule="evenodd" clip-rule="evenodd" d="M58.1901 139.77C58.0101 142.62 55.6601 143.77 52.9401 142.25C50.2201 140.73 48.1601 137.25 48.3401 134.41C48.5201 131.57 50.8701 130.46 53.5801 131.93C56.2901 133.4 58.3701 136.93 58.1901 139.77Z" fill="#D7951E"/>
<path fill-rule="evenodd" clip-rule="evenodd" d="M57.8901 139.63C57.7301 142.29 55.4801 143.42 52.9501 141.95C50.4201 140.48 48.3501 137.32 48.6101 134.56C48.8501 131.98 50.9001 130.9 53.3801 132.17L53.5501 132.23C54.7238 132.905 55.7232 133.845 56.4681 134.976C57.2131 136.106 57.683 137.395 57.8401 138.74C57.8802 139.035 57.8802 139.335 57.8401 139.63H57.8901Z" fill="#EFBD00"/>
<path fill-rule="evenodd" clip-rule="evenodd" d="M57.8401 138.74C57.3601 139.8 56.1101 140.08 54.7301 139.31C53.8276 138.789 53.0764 138.042 52.5504 137.142C52.0243 136.243 51.7416 135.222 51.7301 134.18C51.8101 132.93 52.4801 132.18 53.4301 132.18L53.6001 132.24C54.7738 132.915 55.7732 133.855 56.5181 134.986C57.2631 136.116 57.733 137.405 57.8901 138.75L57.8401 138.74Z" fill="#D7951E"/>
<path d="M66.8301 126.7C65.5127 124.995 63.8712 123.568 62.0001 122.5C60.6999 121.753 59.2384 121.331 57.7401 121.27L55.9001 117.27C53.8703 115.946 51.6274 114.982 49.2701 114.42L51.6901 113.62L68.5101 125.79L66.8501 126.79L66.8301 126.7ZM41.3701 118.4L40.6101 117.34L42.4201 116.74C42.0395 117.263 41.7049 117.819 41.4201 118.4" fill="#8F755B"/>
<path d="M67.8401 128.1L69.3301 126.35L68.4901 125.74L66.8301 126.74C67.1901 127.19 67.5201 127.66 67.8301 128.14" fill="#784515"/>
<path d="M45.5901 127.86C45.8897 127.573 46.2259 127.328 46.5901 127.13L54.5901 122.2C55.5082 121.573 56.5987 121.248 57.7101 121.27H57.7701L55.9301 117.27C53.9002 115.946 51.6574 114.982 49.3001 114.42L42.4501 116.7C42.0694 117.223 41.7349 117.779 41.4501 118.36L43.2001 120.8L45.6901 127.91" fill="#784515"/>
<path d="M63.9001 132.69L67.8401 128.1C67.5201 127.62 67.1901 127.15 66.8401 126.7C65.5198 124.994 63.8748 123.567 62.0001 122.5C60.6999 121.753 59.2384 121.331 57.7401 121.27H57.6801C56.5687 121.248 55.4782 121.573 54.5601 122.2L54.9901 121.94L53.3301 125.19C55.2801 125.19 57.3301 125.54 58.2201 126.72C59.9492 128.876 61.8559 130.883 63.9201 132.72" fill="#241E19"/>
<path d="M46.5801 127.13C46.7401 127.05 46.9101 126.96 47.0801 126.89L49.2001 125.51C50.4934 125.304 51.8005 125.197 53.1101 125.19H53.3101L55.0001 121.94L54.5701 122.2L46.5701 127.13" fill="#241E19"/>
<path d="M45.6001 127.86L47.0801 126.86C46.5272 127.101 46.0224 127.44 45.5901 127.86" fill="#261F1A"/>
<path d="M62.3301 114.41L61.4801 123L44.6001 114.78C43.9401 115.46 42.2601 125.41 42.2601 125.41L41.2601 137.78L30.4001 131.49L23.9301 127.74L21.2201 126.17V114.17L8.48006 96L6.81006 95.13L8.45006 83.34L62.3301 114.41Z" fill="#FBB800"/>
<path d="M62.4001 129.19L99.9901 106.76L111.29 85.85L62.3301 114.42L62.4001 129.19Z" fill="#9D6619"/>
<path d="M12.76 87.7899L14.22 88.6099L18.15 100.41L16.69 99.5799L12.76 87.7899Z" fill="#181612"/>
<path d="M15.8301 89.49L17.2901 90.32L21.2201 102.12L19.7601 101.29L15.8301 89.49Z" fill="#181612"/>
<path d="M18.9 91.1899L20.36 92.0199L24.29 103.82L22.83 102.99L18.9 91.1899Z" fill="#181612"/>
<path d="M21.9701 92.8999L23.4301 93.7299L27.3601 105.52L25.9001 104.69L21.9701 92.8999Z" fill="#181612"/>
<path d="M98.4401 25.2799L100.33 26.3799L94.6201 29.7999L92.7301 28.6999L98.4401 25.2799Z" fill="#8B8887"/>
<path d="M31.4901 51.2499L26.4301 45.1699V37.5399L31.4901 43.6199V51.2499Z" fill="#F7BD00"/>
<path d="M31.4901 66.2599L26.4301 60.1799V52.5599L31.4901 58.6399V66.2599Z" fill="#F7BD00"/>
<path d="M31.4901 81.2799L26.4301 75.1999V67.5699L31.4901 73.6499V81.2799Z" fill="#F7BD00"/>
<path d="M53.38 27.8999L54.56 28.5899L83.78 11.1599L82.65 10.4299L53.38 27.8999Z" fill="#413D3B"/>
<path d="M54.5601 28.5899L55.9601 29.1499L83.7801 12.5099V11.1599L54.5601 28.5899Z" fill="#262321"/>
<path d="M45.75 23.44L46.94 24.13L76.15 6.69997L75.02 5.96997L45.75 23.44Z" fill="#413D3B"/>
<path d="M46.9401 24.13L48.3301 24.7L76.1501 8.05995V6.69995L46.9401 24.13Z" fill="#262321"/>
<path d="M54 30.73V29H55.08L55.41 28.77C56.4461 28.2423 57.5923 27.9672 58.755 27.9672C59.9177 27.9672 61.0639 28.2423 62.1 28.77L62.47 29.03H63.47V30.72C63.4217 31.1322 63.2674 31.5249 63.022 31.8597C62.7766 32.1944 62.4486 32.4599 62.07 32.63C61.0322 33.1578 59.8843 33.4329 58.72 33.4329C57.5557 33.4329 56.4078 33.1578 55.37 32.63C54.9924 32.465 54.666 32.2017 54.425 31.8675C54.184 31.5332 54.0372 31.1404 54 30.73Z" fill="#252320"/>
<path d="M54 28.9999L54.8 20.7999H62.65L63.45 28.8999V28.9999C63.4197 29.4236 63.2779 29.8317 63.0391 30.1829C62.8002 30.5341 62.4728 30.816 62.09 30.9999C61.0522 31.5277 59.9043 31.8028 58.74 31.8028C57.5757 31.8028 56.4278 31.5277 55.39 30.9999C54.9929 30.8321 54.6516 30.5551 54.4056 30.2011C54.1595 29.8471 54.0189 29.4306 54 28.9999Z" fill="#CD7528"/>
<path d="M61.59 27.4099C60.7207 26.969 59.7597 26.7391 58.785 26.7391C57.8103 26.7391 56.8493 26.969 55.98 27.4099C54.42 28.3199 54.4 29.7699 55.98 30.6599C56.8493 31.1009 57.8103 31.3307 58.785 31.3307C59.7597 31.3307 60.7207 31.1009 61.59 30.6599C63.15 29.7599 63.17 28.2999 61.59 27.4199V27.4099Z" fill="#BE5218"/>
<path d="M56.7401 23.14C57.7401 21.41 59.3601 21.43 60.3801 23.19C60.8708 24.1657 61.1264 25.2428 61.1264 26.335C61.1264 27.4272 60.8708 28.5042 60.3801 29.48C59.3801 31.2 57.7501 31.18 56.7401 29.43C56.2448 28.4556 55.9866 27.378 55.9866 26.285C55.9866 25.1919 56.2448 24.1143 56.7401 23.14Z" fill="#BD4818"/>
<path d="M61.5801 30.45C60.7881 30.8783 59.917 31.1403 59.0201 31.22L58.8701 31.09C58.7042 30.8883 58.5538 30.6743 58.4201 30.45C57.7647 29.1576 57.4232 27.729 57.4232 26.28C57.4232 24.8309 57.7647 23.4023 58.4201 22.11C58.6871 21.6097 59.063 21.1757 59.5201 20.84H62.0001L62.1801 20.99L62.2401 21.05L63.0001 28.44V28.52C62.9554 28.9346 62.8026 29.3302 62.5569 29.6672C62.3112 30.0042 61.9812 30.2706 61.6001 30.44L61.5801 30.45Z" fill="#DE730E"/>
<path d="M59.1101 24C59.8401 22.74 61.0201 22.76 61.7601 24C62.1203 24.7114 62.308 25.4976 62.308 26.295C62.308 27.0924 62.1203 27.8786 61.7601 28.59C61.0301 29.85 59.8401 29.83 59.1001 28.59C58.7375 27.8793 58.5485 27.0928 58.5485 26.295C58.5485 25.4972 58.7375 24.7107 59.1001 24H59.1101Z" fill="#E19E00"/>
<path d="M61.5701 19.22C60.7092 18.781 59.7565 18.5521 58.7901 18.5521C57.8237 18.5521 56.871 18.781 56.0101 19.22C54.4601 20.11 54.4401 21.55 56.0101 22.43C56.8693 22.8689 57.8203 23.0977 58.7851 23.0977C59.7499 23.0977 60.7009 22.8689 61.5601 22.43C63.1101 21.54 63.1301 20.1 61.5601 19.22H61.5701Z" fill="#EEAD43"/>
<path d="M86.3101 34.89L80.6101 38.31V129.29L86.3101 125.87V34.89Z" fill="#B77C17"/>
<path d="M103.81 24.6L98.1101 28.02V119L103.81 115.58V24.6Z" fill="#B77C17"/>
<path d="M96.2201 26.9199L98.1101 28.0199V119L96.2201 117.89V26.9199Z" fill="#F3C61C"/>
<path d="M78.7201 37.21L80.6101 38.31V129.29L78.7201 128.19V37.21Z" fill="#F3C61C"/>
<path d="M77.8401 36.79L80.8901 38.74L104.18 24.83L101.13 22.88L77.8401 36.79Z" fill="#FDE44E"/>
<path d="M80.89 38.74V44.87L104.18 30.96V24.83L80.89 38.74Z" fill="#B77C17"/>
<path d="M77.8401 36.7899V42.9099L80.8901 44.8699V38.7399L77.8401 36.7899Z" fill="#F3C61C"/>
<path d="M87.05 113.76L80.79 117.52V143.22L87.05 139.46V113.76Z" fill="#2F2C29"/>
<path d="M106.26 102.47L99.99 106.22V131.92L106.26 128.17V102.47Z" fill="#2F2C29"/>
<path d="M97.92 105.01L99.99 106.22V131.92L97.92 130.71V105.01Z" fill="#1B1915"/>
<path d="M78.7201 116.3L80.7901 117.52V143.22L78.7201 142V116.3Z" fill="#1B1915"/>
<path d="M84.9901 112.55L87.0501 113.76L80.7901 117.52L78.7201 116.3L84.9901 112.55Z" fill="#8B8887"/>
<path d="M104.19 101.25L106.26 102.47L99.99 106.22L97.92 105.01L104.19 101.25Z" fill="#8B8887"/>
<path d="M149.5 173L143 176.5L80.67 140.61L87.05 137.06L149.5 173Z" fill="#6A6665"/>
<path d="M143 179V176.5L80.67 140.61L80.69 143.01L143 179Z" fill="#524E4C"/>
<path d="M168.41 163.97L168.39 161.57L162 165.12L162.02 167.51L168.41 163.97Z" fill="#C9C7C6"/>
<path d="M149.41 175.4L149.5 173L143 176.5V179L149.41 175.4Z" fill="#C9C7C6"/>
<path d="M168.39 161.57L162 165.12L99.8701 129.32L106.26 125.77L168.39 161.57Z" fill="#6A6665"/>
<path d="M162.02 167.51L162 165.12L99.8701 129.32L99.8901 131.72L162.02 167.51Z" fill="#524E4C"/>
<path d="M75.14 125.51L77.36 126.72L111.24 106.48L109.02 105.27L75.14 125.51Z" fill="#FDE44E"/>
<path d="M77.3601 126.72V135.63L111.24 115.4V106.48L77.3601 126.72Z" fill="#B77C17"/>
<path d="M75.14 125.51V134.43L77.36 135.63V126.72L75.14 125.51Z" fill="#F3C61C"/>
<path d="M86.3101 113.24V115.16L98.1301 108.1L96.4501 107.18L86.3101 113.24Z" fill="#FDE44E"/>
<path d="M86.3101 115.16V118.08L98.1301 111.02V108.1L86.3101 115.16Z" fill="#B77C17"/>
<path d="M86.3101 98.04V99.96L98.1301 92.9L96.4501 91.98L86.3101 98.04Z" fill="#FDE44E"/>
<path d="M86.3101 99.9599V102.88L98.1301 95.8199V92.8999L86.3101 99.9599Z" fill="#B77C17"/>
<path d="M86.3101 82.8399V84.7499L98.1301 77.6999L96.4501 76.7799L86.3101 82.8399Z" fill="#FDE44E"/>
<path d="M86.3101 84.75V87.67L98.1301 80.62V77.7L86.3101 84.75Z" fill="#B77C17"/>
<path d="M86.3101 67.64V69.56L98.1301 62.5L96.4501 61.58L86.3101 67.64Z" fill="#FDE44E"/>
<path d="M86.3101 69.56V72.47L98.1301 65.42V62.5L86.3101 69.56Z" fill="#B77C17"/>
<path d="M86.3101 52.44V54.36L98.1301 47.3L96.4501 46.38L86.3101 52.44Z" fill="#FDE44E"/>
<path d="M86.3101 54.3599V57.2699L98.1301 50.2199V47.2999L86.3101 54.3599Z" fill="#B77C17"/>
<path d="M95.9301 29.8699L99.0501 34.0999L102.43 32.1499L99.3101 27.9199L95.9301 29.8699Z" fill="#181612"/>
<path d="M89.29 33.7L92.41 37.94L95.78 35.99L92.67 31.76L89.29 33.7Z" fill="#181612"/>
<path d="M82.64 37.54L85.76 41.78L89.14 39.83L86.02 35.59L82.64 37.54Z" fill="#181612"/>
<path d="M63.9 132.69L61.68 131.41L60.16 123.03L63.9 125.24V132.69Z" fill="#FDC722"/>
<path d="M46.3201 116.08L63.5101 126.31L63.9001 126.54L72.2301 121.76L71.8201 121.52L71.7401 121.47L46.3201 114.78V116.08Z" fill="#FDC722"/>
<path d="M38.9601 117.59L46.3201 116.08L54.6401 111.29L38.9601 116.28V117.59Z" fill="#FDC722"/>
<path d="M72.23 120.44L63.9 125.24V132.69L72.23 127.92V120.44Z" fill="#B77C17"/>
<path d="M46.3201 114.78L63.5101 125L63.9001 125.24L72.2301 120.46L71.8201 120.22L71.7401 120.17L54.6401 109.99L46.3201 114.78Z" fill="#FFE14C"/>
<path d="M38.9601 116.28L46.3201 114.78L54.6401 109.99L47.2801 111.49L38.9601 116.28Z" fill="#FFE14C"/>
<path d="M70.9201 123.8V126.2C70.9176 126.423 70.8573 126.642 70.7451 126.834C70.633 127.027 70.4727 127.188 70.2801 127.3L66.0001 129.78C65.9203 129.826 65.8297 129.85 65.7376 129.85C65.6455 129.849 65.5552 129.824 65.4758 129.778C65.3965 129.731 65.331 129.664 65.286 129.583C65.2411 129.503 65.2183 129.412 65.2201 129.32V129L68.8001 127C68.9941 126.889 69.1554 126.729 69.2678 126.536C69.3802 126.343 69.4396 126.123 69.4401 125.9V123.79L70.1401 123.39C70.2184 123.345 70.3071 123.321 70.3975 123.32C70.4879 123.32 70.5769 123.343 70.6556 123.387C70.7344 123.432 70.8002 123.496 70.8466 123.574C70.8929 123.651 70.9183 123.74 70.9201 123.83V123.8Z" fill="#8D5418"/>
<path d="M69.4401 123.76V125.87C69.4396 126.093 69.3802 126.313 69.2678 126.506C69.1554 126.699 68.9941 126.859 68.8001 126.97L65.2101 129V126.89C65.2106 126.667 65.27 126.447 65.3824 126.254C65.4947 126.061 65.6561 125.901 65.8501 125.79L69.4401 123.72V123.76Z" fill="#D8D6D6"/>
<path d="M66.9601 111.68L72.2301 120.44L8.45007 83.33L13.0801 80.58L66.9601 111.68Z" fill="#FFE14C"/>
<path d="M117.06 102.07L103.81 98.8399V91.5299L117.06 94.6099V102.07Z" fill="#FBB800"/>
<path d="M103.81 91.53L116.67 95.68L117.06 95.92L125.39 91.14L124.98 90.9L124.89 90.85L103.81 90.22V91.53Z" fill="#FBB800"/>
<path d="M125.39 89.8199L117.06 94.6099V102.07L125.39 97.2899V89.8199Z" fill="#B77C17"/>
<path d="M103.81 90.22L116.67 94.38L117.06 94.61L125.39 89.83L124.98 89.59L124.89 89.55L108.41 79.75L103.81 82.26V90.22Z" fill="#FFE14C"/>
<path d="M124.61 92.7999V95.1999C124.609 95.4219 124.549 95.6396 124.437 95.831C124.324 96.0224 124.163 96.1807 123.97 96.2899L119.68 98.7699C119.601 98.8156 119.511 98.8396 119.42 98.8396C119.329 98.8396 119.239 98.8156 119.16 98.77C119.081 98.7244 119.015 98.6588 118.97 98.5798C118.924 98.5008 118.9 98.4112 118.9 98.3199V97.9999L122.49 95.9999C122.683 95.8883 122.844 95.7281 122.956 95.5351C123.069 95.3421 123.129 95.1232 123.13 94.8999V92.7499L123.83 92.3499C123.909 92.3043 123.999 92.2803 124.09 92.2803C124.181 92.2803 124.271 92.3043 124.35 92.3499C124.429 92.3955 124.495 92.4611 124.54 92.5401C124.586 92.6191 124.61 92.7087 124.61 92.7999Z" fill="#8D5418"/>
<path d="M123.13 92.75V94.86C123.129 95.0832 123.069 95.3022 122.956 95.4951C122.844 95.6881 122.683 95.8484 122.49 95.96L118.9 98V95.9C118.899 95.6748 118.957 95.4534 119.07 95.2583C119.182 95.0633 119.345 94.9017 119.54 94.79L123.13 92.72V92.75Z" fill="#D8D6D6"/>
<path d="M173.64 143.79L168.76 146.92L120.61 119.23L125.49 116.11L173.64 143.79Z" fill="#DCB55B"/>
<path d="M168.76 146.92V156.4L120.61 128.72V119.23L168.76 146.92Z" fill="#996C33"/>
<path d="M148.4 137.12V142.6L165.47 152.43V146.99L148.4 137.12Z" fill="#BE8B36"/>
<path d="M124.32 123.33V128.8L141.43 138.63V133.15L124.32 123.33Z" fill="#BE8B36"/>
<path d="M128.74 125.97L124.32 128.8V123.33L128.74 125.97Z" fill="#6A431E"/>
<path d="M152.82 139.77L148.4 142.6V137.12L152.82 139.77Z" fill="#6A431E"/>
<path d="M152.15 156.14L147.27 159.26L99.1201 131.58L104 128.46L152.15 156.14Z" fill="#DCB55B"/>
<path d="M147.27 159.26V168.75L99.1201 141.06V131.58L147.27 159.26Z" fill="#996C33"/>
<path d="M126.91 149.47V154.95L143.98 164.77V159.33L126.91 149.47Z" fill="#BE8B36"/>
<path d="M102.83 135.67V141.15L119.94 150.98V145.5L102.83 135.67Z" fill="#BE8B36"/>
<path d="M152.15 156.14V165.95L147.27 168.75V159.26L152.15 156.14Z" fill="#855323"/>
<path d="M107.25 138.32L102.83 141.15V135.67L107.25 138.32Z" fill="#6A431E"/>
<path d="M131.33 152.11L126.91 154.95V149.47L131.33 152.11Z" fill="#6A431E"/>
<path d="M130.66 168.49L125.78 171.61L77.64 143.93L82.51 140.8L130.66 168.49Z" fill="#DCB55B"/>
<path d="M125.78 171.61V181.09L77.64 153.41V143.93L125.78 171.61Z" fill="#996C33"/>
<path d="M105.42 161.81V167.29L122.49 177.12V171.68L105.42 161.81Z" fill="#BE8B36"/>
<path d="M81.3401 148.02V153.5L98.4501 163.32V157.84L81.3401 148.02Z" fill="#BE8B36"/>
<path d="M130.66 168.49V178.29L125.78 181.09V171.61L130.66 168.49Z" fill="#855323"/>
<path d="M85.7701 150.66L81.3401 153.5V148.02L85.7701 150.66Z" fill="#6A431E"/>
<path d="M109.84 164.46L105.42 167.29V161.81L109.84 164.46Z" fill="#6A431E"/>
<path d="M120.9 166.1L125.78 169.22L173.64 141.41L168.76 138.28L120.9 166.1Z" fill="#DCB55B"/>
<path d="M125.78 169.22V171.61L173.64 143.79V141.41L125.78 169.22Z" fill="#A06328"/>
<path d="M120.9 166.1V168.81L125.78 171.61V169.22L120.9 166.1Z" fill="#B5813C"/>
<path d="M110.08 159.88L114.96 163L162.82 135.19L157.94 132.06L110.08 159.88Z" fill="#DCB55B"/>
<path d="M114.96 163V165.39L162.82 137.57V135.19L114.96 163Z" fill="#A06328"/>
<path d="M110.08 159.88V162.59L114.96 165.39V163L110.08 159.88Z" fill="#B5813C"/>
<path d="M99.27 153.66L104.15 156.78L152 128.96L147.12 125.84L99.27 153.66Z" fill="#DCB55B"/>
<path d="M104.15 156.78V159.17L152 131.35V128.96L104.15 156.78Z" fill="#A06328"/>
<path d="M99.27 153.66V156.37L104.15 159.17V156.78L99.27 153.66Z" fill="#B5813C"/>
<path d="M88.4501 147.43L93.3301 150.56L141.19 122.74L136.31 119.62L88.4501 147.43Z" fill="#DCB55B"/>
<path d="M93.3301 150.56V152.94L141.19 125.13V122.74L93.3301 150.56Z" fill="#A06328"/>
<path d="M88.4501 147.43V150.15L93.3301 152.94V150.56L88.4501 147.43Z" fill="#B5813C"/>
<path d="M77.64 141.21L82.51 144.34L130.37 116.52L125.49 113.4L77.64 141.21Z" fill="#DCB55B"/>
<path d="M82.51 144.34V146.72L130.37 118.91V116.52L82.51 144.34Z" fill="#A06328"/>
<path d="M77.64 141.21V143.93L82.51 146.72V144.34L77.64 141.21Z" fill="#B5813C"/>
<path d="M125.07 139.37L147.24 126.58V102.73L125.07 115.52V139.37Z" fill="#AA8345"/>
<path d="M107.46 105.3L125.07 115.52V139.37L107.46 129.21V105.3Z" fill="#D5AB50"/>
<path d="M117.58 114.26L117.66 114.12L123.12 117.28V124.94L117.42 121.65V113.98L117.66 114.12L117.58 114.26H117.75V121.47L122.8 124.38V117.47L117.5 114.4L117.58 114.26H117.75H117.58Z" fill="#A55F19"/>
<path d="M119.43 118.24L119.45 121.87L121.12 122.82L121.11 119.19L121.95 119.67L120.26 116.1L118.59 117.76L119.43 118.24Z" fill="#A55F19"/>
<path d="M107.47 105.3L125.06 115.52L135.47 109.51L138.85 107.57L147.24 102.72L129.64 92.51L121.24 97.36L117.85 99.31L107.47 105.3Z" fill="#F9E398"/>
<path d="M135.47 109.51L138.85 107.57L121.24 97.36L117.85 99.31L135.47 109.51Z" fill="#FFECB1"/>
<path d="M139.24 129.13L145.61 125.5V120L139.24 123.64V129.13Z" fill="#B5B2B2"/>
<path d="M139.6 128.43L145.25 125.2V124.95L139.6 128.18V128.43Z" fill="#5F5C5A"/>
<path d="M139.6 127.74L145.25 124.51V124.26L139.6 127.5V127.74Z" fill="#5F5C5A"/>
<path d="M139.6 127.06L145.25 123.82V123.57L139.6 126.81V127.06Z" fill="#5F5C5A"/>
<path d="M139.6 126.37L145.25 123.14V122.89L139.6 126.12V126.37Z" fill="#5F5C5A"/>
<path d="M139.6 125.07L145.25 121.84V121.05L139.6 124.28V125.07Z" fill="#5F5C5A"/>
<path d="M138.85 107.57L138.86 115.61L138.17 113.73L137.44 116.39L136.45 114.67L135.58 117.41L135.47 109.51L138.85 107.57Z" fill="#E1CB8B"/>
<path d="M113.57 112.24L115.17 113.18V115.33L113.57 114.4V112.24Z" fill="#A55F19"/>
<path d="M111.31 110.94L112.92 111.88V114.03L111.31 113.1V110.94Z" fill="#A55F19"/>
<path d="M109.05 109.64L110.66 110.58V112.73L109.05 111.8V109.64Z" fill="#A55F19"/>
<path d="M146.23 151.64L168.4 138.85V115L146.23 127.78V151.64Z" fill="#AA8345"/>
<path d="M128.62 117.57L146.23 127.78V151.64L128.62 141.48V117.57Z" fill="#D5AB50"/>
<path d="M138.74 126.53L138.82 126.39L144.28 129.55V137.21L138.58 133.92V126.24L138.82 126.39L138.74 126.53H138.9V133.73L143.95 136.65V129.74L138.66 126.67L138.74 126.53H138.9H138.74Z" fill="#A55F19"/>
<path d="M140.59 130.51L140.6 134.13L142.28 135.09L142.27 131.46L143.1 131.94L141.42 128.37L139.75 130.03L140.59 130.51Z" fill="#A55F19"/>
<path d="M128.63 117.57L146.22 127.78L156.63 121.78L160.01 119.84L168.4 114.99L150.8 104.78L142.39 109.62L139.01 111.58L128.63 117.57Z" fill="#F9E398"/>
<path d="M156.63 121.78L160.01 119.84L142.39 109.62L139.01 111.58L156.63 121.78Z" fill="#FFECB1"/>
<path d="M160.4 141.4L166.76 137.76V132.27L160.4 135.9V141.4Z" fill="#B5B2B2"/>
<path d="M160.75 140.7L166.41 137.47V137.22L160.75 140.45V140.7Z" fill="#5F5C5A"/>
<path d="M160.75 140.01L166.41 136.78V136.53L160.75 139.76V140.01Z" fill="#5F5C5A"/>
<path d="M160.75 139.32L166.41 136.09V135.84L160.75 139.07V139.32Z" fill="#5F5C5A"/>
<path d="M160.75 138.63L166.41 135.4V135.15L160.75 138.38V138.63Z" fill="#5F5C5A"/>
<path d="M160.75 137.33L166.41 134.1V133.32L160.75 136.55V137.33Z" fill="#5F5C5A"/>
<path d="M160.01 119.84L160.02 127.87L159.33 125.99L158.6 128.65L157.61 126.93L156.74 129.67L156.63 121.78L160.01 119.84Z" fill="#E1CB8B"/>
<path d="M134.72 124.51L136.33 125.45V127.6L134.72 126.67V124.51Z" fill="#A55F19"/>
<path d="M132.47 123.21L134.07 124.15V126.3L132.47 125.36V123.21Z" fill="#A55F19"/>
<path d="M130.21 121.91L131.82 122.85V125L130.21 124.06V121.91Z" fill="#A55F19"/>
<path d="M100.48 153.41L122.65 140.62V116.77L100.48 129.56V153.41Z" fill="#AA8345"/>
<path d="M82.8701 119.34L100.48 129.56V153.41L82.8701 143.25V119.34Z" fill="#D9B86C"/>
<path d="M93.0001 128.3L93.0801 128.16L98.5301 131.32V138.98L92.8301 135.69V128.01L93.0801 128.16L93.0001 128.3H93.1601V135.5L98.2101 138.42V131.51L92.9101 128.44L93.0001 128.3H93.1601H93.0001Z" fill="#A55F19"/>
<path d="M94.84 132.28L94.86 135.91L96.53 136.86L96.52 133.23L97.36 133.71L95.67 130.14L94 131.8L94.84 132.28Z" fill="#A55F19"/>
<path d="M82.88 119.34L100.48 129.56L110.89 123.55L114.26 121.61L122.65 116.76L105.05 106.55L96.65 111.39L93.26 113.35L82.88 119.34Z" fill="#F9E398"/>
<path d="M110.89 123.55L114.26 121.61L96.65 111.39L93.26 113.35L110.89 123.55Z" fill="#FFECB1"/>
<path d="M114.66 143.17L121.02 139.53V134.04L114.66 137.68V143.17Z" fill="#B5B2B2"/>
<path d="M115.01 142.47L120.67 139.24V138.99L115.01 142.22V142.47Z" fill="#5F5C5A"/>
<path d="M115.01 141.78L120.67 138.55V138.3L115.01 141.53V141.78Z" fill="#5F5C5A"/>
<path d="M115.01 141.09L120.67 137.86V137.61L115.01 140.84V141.09Z" fill="#5F5C5A"/>
<path d="M115.01 140.41L120.67 137.17V136.92L115.01 140.16V140.41Z" fill="#5F5C5A"/>
<path d="M115.01 139.11L120.67 135.87V135.09L115.01 138.32V139.11Z" fill="#5F5C5A"/>
<path d="M114.26 121.61L114.28 129.65L113.58 127.77L112.85 130.42L111.87 128.7L110.99 131.44L110.89 123.55L114.26 121.61Z" fill="#E1CB8B"/>
<path d="M88.9801 126.28L90.5801 127.22V129.37L88.9801 128.44V126.28Z" fill="#A55F19"/>
<path d="M86.7201 124.98L88.3301 125.92V128.07L86.7201 127.14V124.98Z" fill="#A55F19"/>
<path d="M84.4601 123.68L86.0701 124.62V126.77L84.4601 125.84V123.68Z" fill="#A55F19"/>
<path d="M121.64 165.68L143.81 152.89V129.03L121.64 141.82V165.68Z" fill="#AA8345"/>
<path d="M104.03 131.6L121.64 141.82V165.68L104.03 155.52V131.6Z" fill="#D9B86C"/>
<path d="M114.15 140.56L114.23 140.42L119.69 143.59V151.25L113.99 147.96V140.28L114.23 140.42L114.15 140.56H114.32V147.77L119.37 150.68V143.78L114.07 140.7L114.15 140.56H114.32H114.15Z" fill="#A55F19"/>
<path d="M116 144.54L116.02 148.17L117.69 149.13L117.68 145.5L118.52 145.97L116.83 142.4L115.17 144.07L116 144.54Z" fill="#A55F19"/>
<path d="M104.04 131.61L121.64 141.82L132.04 135.81L135.42 133.88L143.81 129.03L126.21 118.82L117.81 123.66L114.42 125.62L104.04 131.61Z" fill="#F9E398"/>
<path d="M132.04 135.81L135.42 133.88L117.81 123.66L114.42 125.62L132.04 135.81Z" fill="#FFECB1"/>
<path d="M135.81 155.43L142.18 151.8V146.31L135.81 149.94V155.43Z" fill="#B5B2B2"/>
<path d="M136.17 154.74L141.82 151.51V151.26L136.17 154.49V154.74Z" fill="#5F5C5A"/>
<path d="M136.17 154.05L141.82 150.82V150.57L136.17 153.8V154.05Z" fill="#5F5C5A"/>
<path d="M136.17 153.36L141.82 150.13V149.88L136.17 153.11V153.36Z" fill="#5F5C5A"/>
<path d="M136.17 152.67L141.82 149.44V149.19L136.17 152.42V152.67Z" fill="#5F5C5A"/>
<path d="M136.17 151.37L141.82 148.14V147.35L136.17 150.59V151.37Z" fill="#5F5C5A"/>
<path d="M135.42 133.88L135.44 141.91L134.74 140.03L134.01 142.69L133.03 140.97L132.15 143.71L132.04 135.81L135.42 133.88Z" fill="#E1CB8B"/>
<path d="M110.14 138.55L111.74 139.49V141.64L110.14 140.71V138.55Z" fill="#A55F19"/>
<path d="M107.88 137.25L109.49 138.19V140.34L107.88 139.4V137.25Z" fill="#A55F19"/>
<path d="M105.62 135.94L107.23 136.88V139.04L105.62 138.1V135.94Z" fill="#A55F19"/>
<path d="M125.07 114.67L147.24 101.88V78.0199L125.07 90.8099V114.67Z" fill="#AA8345"/>
<path d="M107.46 80.59L125.07 90.81V114.67L107.46 104.51V80.59Z" fill="#D5AB50"/>
<path d="M117.58 89.5499L117.66 89.4099L123.12 92.5799V100.24L117.42 96.9499V89.2699L117.66 89.4099L117.58 89.5499H117.75V96.7599L122.8 99.6699V92.7699L117.5 89.6899L117.58 89.5499H117.75H117.58Z" fill="#A55F19"/>
<path d="M119.43 93.5299L119.45 97.1599L121.12 98.1199L121.11 94.4899L121.95 94.9699L120.26 91.3899L118.59 93.0599L119.43 93.5299Z" fill="#A55F19"/>
<path d="M107.47 80.5999L125.06 90.8099L135.47 84.8099L138.85 82.8599L147.24 78.0199L129.64 67.8099L121.24 72.6499L117.85 74.6099L107.47 80.5999Z" fill="#F9E398"/>
<path d="M135.47 84.8099L138.85 82.8599L121.24 72.6499L117.85 74.6099L135.47 84.8099Z" fill="#FFECB1"/>
<path d="M139.24 104.42L145.61 100.79V95.2999L139.24 98.9299V104.42Z" fill="#B5B2B2"/>
<path d="M139.6 103.73L145.25 100.5V100.25L139.6 103.48V103.73Z" fill="#5F5C5A"/>
<path d="M139.6 103.04L145.25 99.8099V99.5599L139.6 102.79V103.04Z" fill="#5F5C5A"/>
<path d="M139.6 102.35L145.25 99.12V98.87L139.6 102.1V102.35Z" fill="#5F5C5A"/>
<path d="M139.6 101.66L145.25 98.4299V98.1799L139.6 101.41V101.66Z" fill="#5F5C5A"/>
<path d="M139.6 100.36L145.25 97.13V96.34L139.6 99.58V100.36Z" fill="#5F5C5A"/>
<path d="M138.85 82.86L138.86 90.9L138.17 89.02L137.44 91.68L136.45 89.96L135.58 92.7L135.47 84.81L138.85 82.86Z" fill="#E1CB8B"/>
<path d="M113.57 87.5399L115.17 88.4799V90.6299L113.57 89.6899V87.5399Z" fill="#A55F19"/>
<path d="M111.31 86.24L112.92 87.18V89.33L111.31 88.39V86.24Z" fill="#A55F19"/>
<path d="M109.05 84.9399L110.66 85.8799V88.0299L109.05 87.0899V84.9399Z" fill="#A55F19"/>
<path d="M146.23 126.93L168.4 114.14V90.2899L146.23 103.08V126.93Z" fill="#AA8345"/>
<path d="M128.62 92.86L146.23 103.08V126.93L128.62 116.77V92.86Z" fill="#D5AB50"/>
<path d="M138.74 101.82L138.82 101.68L144.28 104.84V112.5L138.58 109.22V101.54L138.82 101.68L138.74 101.82H138.9V109.03L143.95 111.94V105.03L138.66 101.96L138.74 101.82H138.9H138.74Z" fill="#A55F19"/>
<path d="M140.59 105.8L140.6 109.43L142.28 110.38L142.27 106.75L143.1 107.23L141.42 103.66L139.75 105.32L140.59 105.8Z" fill="#A55F19"/>
<path d="M128.63 92.8599L146.22 103.08L156.63 97.0699L160.01 95.1299L168.4 90.2799L150.8 80.0699L142.39 84.9199L139.01 86.8699L128.63 92.8599Z" fill="#F9E398"/>
<path d="M156.63 97.0699L160.01 95.1299L142.39 84.9199L139.01 86.8699L156.63 97.0699Z" fill="#FFECB1"/>
<path d="M160.4 116.69L166.76 113.06V107.56L160.4 111.2V116.69Z" fill="#B5B2B2"/>
<path d="M160.75 115.99L166.41 112.76V112.51L160.75 115.74V115.99Z" fill="#5F5C5A"/>
<path d="M160.75 115.31L166.41 112.07V111.82L160.75 115.06V115.31Z" fill="#5F5C5A"/>
<path d="M160.75 114.62L166.41 111.39V111.14L160.75 114.37V114.62Z" fill="#5F5C5A"/>
<path d="M160.75 113.93L166.41 110.7V110.45L160.75 113.68V113.93Z" fill="#5F5C5A"/>
<path d="M160.75 112.63L166.41 109.4V108.61L160.75 111.84V112.63Z" fill="#5F5C5A"/>
<path d="M160.01 95.13L160.02 103.17L159.33 101.29L158.6 103.95L157.61 102.23L156.74 104.97L156.63 97.07L160.01 95.13Z" fill="#E1CB8B"/>
<path d="M134.72 99.7999L136.33 100.74V102.89L134.72 101.96V99.7999Z" fill="#A55F19"/>
<path d="M132.47 98.5L134.07 99.44V101.59L132.47 100.66V98.5Z" fill="#A55F19"/>
<path d="M130.21 97.2L131.82 98.14V100.29L130.21 99.36V97.2Z" fill="#A55F19"/>
<path d="M100.48 128.7L122.65 115.92V92.0599L100.48 104.85V128.7Z" fill="#AA8345"/>
<path d="M82.8701 94.63L100.48 104.85V128.7L82.8701 118.55V94.63Z" fill="#D9B86C"/>
<path d="M93.0001 103.59L93.0801 103.45L98.5301 106.62V114.28L92.8301 110.99V103.31L93.0801 103.45L93.0001 103.59H93.1601V110.8L98.2101 113.71V106.81L92.9101 103.73L93.0001 103.59H93.1601H93.0001Z" fill="#A55F19"/>
<path d="M94.84 107.57L94.86 111.2L96.53 112.16L96.52 108.53L97.36 109L95.67 105.43L94 107.1L94.84 107.57Z" fill="#A55F19"/>
<path d="M82.88 94.64L100.48 104.85L110.89 98.84L114.26 96.9L122.65 92.06L105.05 81.84L96.65 86.69L93.26 88.64L82.88 94.64Z" fill="#F9E398"/>
<path d="M110.89 98.8399L114.26 96.8999L96.65 86.6899L93.26 88.6399L110.89 98.8399Z" fill="#FFECB1"/>
<path d="M114.66 118.46L121.02 114.83V109.34L114.66 112.97V118.46Z" fill="#B5B2B2"/>
<path d="M115.01 117.77L120.67 114.53V114.28L115.01 117.52V117.77Z" fill="#5F5C5A"/>
<path d="M115.01 117.08L120.67 113.85V113.6L115.01 116.83V117.08Z" fill="#5F5C5A"/>
<path d="M115.01 116.39L120.67 113.16V112.91L115.01 116.14V116.39Z" fill="#5F5C5A"/>
<path d="M115.01 115.7L120.67 112.47V112.22L115.01 115.45V115.7Z" fill="#5F5C5A"/>
<path d="M115.01 114.4L120.67 111.17V110.38L115.01 113.61V114.4Z" fill="#5F5C5A"/>
<path d="M114.26 96.8999L114.28 104.94L113.58 103.06L112.85 105.72L111.87 104L110.99 106.74L110.89 98.8399L114.26 96.8999Z" fill="#E1CB8B"/>
<path d="M88.9801 101.58L90.5801 102.52V104.67L88.9801 103.73V101.58Z" fill="#A55F19"/>
<path d="M86.7201 100.28L88.3301 101.21V103.37L86.7201 102.43V100.28Z" fill="#A55F19"/>
<path d="M84.4601 98.97L86.0701 99.91V102.07L84.4601 101.13V98.97Z" fill="#A55F19"/>
<path d="M121.64 140.97L143.81 128.18V104.33L121.64 117.12V140.97Z" fill="#AA8345"/>
<path d="M104.03 106.9L121.64 117.12V140.97L104.03 130.81V106.9Z" fill="#D9B86C"/>
<path d="M114.15 115.86L114.23 115.72L119.69 118.88V126.54L113.99 123.25V115.58L114.23 115.72L114.15 115.86H114.32V123.06L119.37 125.98V119.07L114.07 116L114.15 115.86H114.32H114.15Z" fill="#A55F19"/>
<path d="M116 119.84L116.02 123.47L117.69 124.42L117.68 120.79L118.52 121.27L116.83 117.7L115.17 119.36L116 119.84Z" fill="#A55F19"/>
<path d="M104.04 106.9L121.64 117.12L132.04 111.11L135.42 109.17L143.81 104.32L126.21 94.11L117.81 98.96L114.42 100.91L104.04 106.9Z" fill="#F9E398"/>
<path d="M132.04 111.11L135.42 109.17L117.81 98.96L114.42 100.91L132.04 111.11Z" fill="#FFECB1"/>
<path d="M135.81 130.73L142.18 127.09V121.6L135.81 125.24V130.73Z" fill="#B5B2B2"/>
<path d="M136.17 130.03L141.82 126.8V126.55L136.17 129.78V130.03Z" fill="#5F5C5A"/>
<path d="M136.17 129.34L141.82 126.11V125.86L136.17 129.09V129.34Z" fill="#5F5C5A"/>
<path d="M136.17 128.66L141.82 125.42V125.17L136.17 128.41V128.66Z" fill="#5F5C5A"/>
<path d="M136.17 127.97L141.82 124.73V124.48L136.17 127.72V127.97Z" fill="#5F5C5A"/>
<path d="M136.17 126.67L141.82 123.44V122.65L136.17 125.88V126.67Z" fill="#5F5C5A"/>
<path d="M135.42 109.17L135.44 117.21L134.74 115.33L134.01 117.98L133.03 116.27L132.15 119L132.04 111.11L135.42 109.17Z" fill="#E1CB8B"/>
<path d="M110.14 113.84L111.74 114.78V116.93L110.14 116V113.84Z" fill="#A55F19"/>
<path d="M107.88 112.54L109.49 113.48V115.63L107.88 114.7V112.54Z" fill="#A55F19"/>
<path d="M105.62 111.24L107.23 112.18V114.33L105.62 113.4V111.24Z" fill="#A55F19"/>
</svg>
