<svg width="56" height="63" viewBox="0 0 56 63" fill="none" xmlns="http://www.w3.org/2000/svg">
<path d="M55.33 27.78C55.3308 22.6906 53.9168 17.7011 51.2457 13.369C48.5747 9.03683 44.7519 5.53253 40.2043 3.24752C35.6567 0.962516 30.5634 -0.0132241 25.4932 0.429286C20.4231 0.871796 15.5759 2.71514 11.4929 5.75341C7.40987 8.79168 4.25192 12.9052 2.37177 17.6346C0.491622 22.364 -0.0367437 27.5229 0.845772 32.5352C1.72829 37.5475 3.98692 42.2158 7.36933 46.0186C10.7517 49.8214 15.1248 52.609 19.9999 54.07C21.8334 54.8002 23.4865 55.9195 24.8452 57.3508C26.204 58.782 27.2359 60.4911 27.8699 62.36C28.5038 60.4895 29.5369 58.7792 30.8976 57.3477C32.2583 55.9162 33.914 54.7978 35.7499 54.07C41.4081 52.3783 46.3695 48.9064 49.897 44.17C53.4245 39.4336 55.3299 33.6856 55.33 27.78Z" fill="#005CA8"/>
</svg>
