<svg width="134" height="134" viewBox="0 0 134 134" fill="none" xmlns="http://www.w3.org/2000/svg">
<path d="M118.608 100.465H101.996V110.846H118.608V100.465Z" fill="#F0BD5F"/>
<path d="M72.9232 100.465H56.3115V110.846H72.9232V100.465Z" fill="#F0BD5F"/>
<path d="M118.608 54.7894H101.996V65.1705H118.608V54.7894Z" fill="#F0BD5F"/>
<path d="M72.9232 54.7894H56.3115V65.1705H72.9232V54.7894Z" fill="#F0BD5F"/>
<path d="M118.608 9.10478H101.996V19.4859H118.608V9.10478Z" fill="#F0BD5F"/>
<path d="M72.9232 9.10478H56.3115V19.4859H72.9232V9.10478Z" fill="#F0BD5F"/>
<path d="M126.909 48.5588C129.197 48.5588 131.06 46.6963 131.06 44.4082V11.1848C131.06 8.89678 129.197 7.03422 126.909 7.03422H93.6856C91.3976 7.03422 89.535 8.89678 89.535 11.1848V36.0977H85.3845V11.1848C85.3845 8.89678 83.5219 7.03422 81.2339 7.03422H48.0104C45.7224 7.03422 43.8599 8.89678 43.8599 11.1848V36.0977H30.2641C30.9732 34.8686 31.3987 33.4598 31.3987 31.9471V23.6365H35.5493C37.8373 23.6365 39.6998 21.7739 39.6998 19.4859V15.3354C39.6998 13.0473 37.8373 11.1848 35.5493 11.1848H31.1907C30.2263 6.44803 26.0285 2.88365 21.0176 2.88365H12.7164C6.98693 2.88365 2.33527 7.54477 2.33527 13.2648V24.7427C2.33527 30.8125 5.50256 36.2773 10.6364 39.3595V39.4351C7.98912 42.3944 6.48584 46.2992 6.48584 50.289V117.086C6.48584 118.684 7.10984 120.13 8.10257 121.236C7.10984 122.342 6.48584 123.789 6.48584 125.387C6.48584 128.819 9.28439 131.617 12.7164 131.617H126.919C129.207 131.617 131.069 129.755 131.069 127.467V102.554C131.069 100.266 129.207 98.4035 126.919 98.4035H93.6856C91.3976 98.4035 89.535 100.266 89.535 102.554V127.467H85.3845V102.554C85.3845 100.266 83.5219 98.4035 81.2339 98.4035H48.0104C45.7224 98.4035 43.8599 100.266 43.8599 102.554V127.467H35.1711C35.4074 126.815 35.5493 126.124 35.5493 125.387C35.5493 123.789 34.9253 122.342 33.9325 121.236C34.9253 120.13 35.5493 118.684 35.5493 117.086V94.234H126.909C129.197 94.234 131.06 92.3714 131.06 90.0834V56.86C131.06 54.5719 129.197 52.7094 126.909 52.7094H93.6856C91.3976 52.7094 89.535 54.5719 89.535 56.86V81.7823H85.3845V56.86C85.3845 54.5719 83.5219 52.7094 81.2339 52.7094H52.161V48.5588H126.909ZM93.6856 102.545H126.909V127.457H93.6856V102.545ZM35.5493 44.4082C34.5849 44.4082 33.7056 44.7486 32.9965 45.3064C31.8147 43.2737 30.1696 41.5435 28.1936 40.2482H126.909V44.3988H35.5493V44.4082ZM93.6856 11.1848H126.909V36.0977H93.6856V11.1848ZM48.0104 11.1848H81.2339V36.0977H48.0104V11.1848ZM27.2481 31.9471C27.2481 34.2351 25.3856 36.0977 23.0976 36.0977H21.0176V43.7086C21.0176 44.3042 20.1288 44.5973 19.7695 44.1246L14.787 37.478V23.6365H27.2481V31.9471ZM35.5493 19.4859H19.5237L20.5637 15.3354H35.5493V19.4859ZM12.707 7.02477H21.0081C23.7121 7.02477 25.9907 8.76441 26.851 11.1753H20.5543C18.6444 11.1753 16.9899 12.4706 16.5266 14.3237L15.2313 19.4765H6.47638V13.2459C6.47638 9.82333 9.27494 7.02477 12.707 7.02477ZM6.47638 24.7332V23.6365H10.6269V34.2446C8.01748 31.8336 6.47638 28.43 6.47638 24.7332ZM13.4066 42.5646L16.4415 46.6112C17.3492 47.8308 18.7957 48.5494 20.3179 48.5494C22.9841 48.5494 25.1587 46.3748 25.1587 43.7086V43.2926C28.0801 44.881 30.1791 47.7268 30.7463 51.1116L31.3892 54.9501V61.0105H27.2387C22.6627 61.0105 18.9375 57.2854 18.9375 52.7094H14.787C14.787 59.5829 20.3746 65.1705 27.2481 65.1705H37.6293C38.7733 65.1705 39.7093 66.0971 39.7093 67.2505C39.7093 68.3946 38.7827 69.3306 37.6293 69.3306H27.2481C18.0866 69.3306 10.6364 61.8803 10.6364 52.7188V50.289C10.6364 47.4715 11.6386 44.7202 13.4066 42.5646ZM43.4722 69.3211H43.8504V81.7823H35.5493V73.4811H37.6293C40.3333 73.4717 42.6119 71.732 43.4722 69.3211ZM27.2481 73.4717H31.3987V81.7728H10.6364V65.1138C14.4182 70.172 20.4503 73.4717 27.2481 73.4717ZM29.3187 119.156H23.0881V94.234H18.9375V119.147H12.707C11.563 119.147 10.6269 118.22 10.6269 117.067V94.026C14.683 93.194 17.8975 89.9889 18.7201 85.9328H31.3892V117.076C31.3987 118.22 30.4627 119.156 29.3187 119.156ZM10.6364 85.9328H14.4088C13.7848 87.6914 12.395 89.0812 10.6364 89.7052V85.9328ZM10.6364 125.387C10.6364 124.243 11.563 123.307 12.7164 123.307H18.947V127.457H12.7164C11.563 127.457 10.6364 126.531 10.6364 125.387ZM48.0104 102.545H81.2339V127.457H48.0104V102.545ZM23.0881 127.457V123.307H29.3187C30.4627 123.307 31.3987 124.233 31.3987 125.387C31.3987 126.531 30.4722 127.467 29.3187 127.467H23.0881V127.457ZM35.5493 90.0834V85.9328H126.909V90.0834H35.5493ZM93.6856 56.86H126.909V81.7823H93.6856V56.86ZM81.2339 56.86V81.7823H48.0104V69.3211C50.2984 69.3211 52.161 67.4585 52.161 65.1705V56.8694H81.2339V56.86ZM48.0104 65.1705H43.4722C42.6119 62.7596 40.3333 61.02 37.6293 61.02H35.5493V48.5588H48.0104V65.1705Z" fill="#085DA8"/>
</svg>
