<svg width="131" height="131" viewBox="0 0 131 131" fill="none" xmlns="http://www.w3.org/2000/svg">
<path d="M50.6883 24.2627H38.2473V34.6333H50.6883V24.2627Z" fill="#F0BD5F"/>
<path d="M100.221 105.138H79.9421C77.2432 107.773 75.5702 111.451 75.5702 115.509C75.5702 123.513 82.0864 130.02 90.0816 130.02C98.0767 130.02 104.593 123.504 104.593 115.509C104.602 111.442 102.92 107.773 100.221 105.138ZM90.0816 119.65C87.7986 119.65 85.9315 117.792 85.9315 115.5C85.9315 113.207 87.7893 111.35 90.0816 111.35C92.3646 111.35 94.2316 113.207 94.2316 115.5C94.2316 117.792 92.3738 119.65 90.0816 119.65Z" fill="#F0BD5F"/>
<path d="M38.0162 105.138H17.7372C15.0383 107.773 13.3561 111.451 13.3561 115.509C13.3561 123.513 19.8723 130.02 27.8675 130.02C35.8626 130.02 42.3789 123.504 42.3789 115.509C42.3974 111.442 40.7151 107.773 38.0162 105.138ZM27.8767 119.65C25.5937 119.65 23.7266 117.792 23.7266 115.5C23.7266 113.207 25.5845 111.35 27.8767 111.35C30.1597 111.35 32.0268 113.207 32.0268 115.5C32.0268 117.792 30.169 119.65 27.8767 119.65Z" fill="#F0BD5F"/>
<path d="M54.8383 22.1923H34.0972C31.8142 22.1923 29.9471 24.0501 29.9471 26.3424V47.0742C29.9471 49.3572 31.805 51.2243 34.0972 51.2243H54.8291C57.1121 51.2243 58.9792 49.3665 58.9792 47.0742V26.3424C58.9792 24.0501 57.1214 22.1923 54.8383 22.1923ZM34.0972 47.0742V26.3424H54.8291V47.0742H34.0972Z" fill="#085DA8"/>
<path d="M42.231 113.429H75.7366C75.9492 111.96 76.3744 110.573 76.9937 109.279H40.9647C41.584 110.573 42.0184 111.969 42.231 113.429Z" fill="#085DA8"/>
<path d="M114.973 55.3744H88.0112V36.7129C88.0112 33.2838 85.2198 30.4924 81.7907 30.4924H79.138C76.1895 14.0123 61.7798 1.46039 44.4678 1.46039C27.1557 1.46039 12.746 14.0123 9.79753 30.4924H7.14481C3.71568 30.4924 0.924316 33.2745 0.924316 36.7129V109.288C0.924316 111.571 2.78214 113.438 5.07439 113.438H13.5317C13.7443 111.969 14.1694 110.582 14.7887 109.288H5.06515V105.138H125.334V109.288H103.17C103.789 110.573 104.214 111.969 104.427 113.438H125.325C127.608 113.438 129.475 111.581 129.475 109.288V69.8858C129.484 61.8814 122.968 55.3744 114.973 55.3744ZM114.973 59.5152C118.346 59.5152 121.323 61.1605 123.217 63.6653H96.3113C94.0283 63.6653 92.1613 65.5231 92.1613 67.8154V100.997H88.0112V59.5152H114.973ZM125.334 69.8858V80.2563H96.3113V67.8154H125.131C125.26 68.4809 125.334 69.1741 125.334 69.8858ZM71.3185 34.6333C70.8656 28.764 68.5363 23.4123 64.9131 19.1883L67.8431 16.2583C72.2058 21.2403 74.9971 27.6179 75.4593 34.6333H71.3185ZM26.9524 57.1583C31.1764 60.7815 36.5188 63.1107 42.3973 63.5636V67.7137C35.382 67.2423 29.0043 64.4602 24.0224 60.0975L26.9524 57.1583ZM46.5382 63.5636C52.4074 63.1107 57.7591 60.7815 61.9831 57.1583L64.9131 60.0883C59.9312 64.4509 53.5535 67.2423 46.5382 67.7044V63.5636ZM44.4678 59.5152C31.8881 59.5152 21.6562 49.2833 21.6562 36.7037C21.6562 24.124 31.8881 13.9014 44.4678 13.9014C57.0474 13.9014 67.2793 24.1333 67.2793 36.7129C67.2793 49.2925 57.0474 59.5152 44.4678 59.5152ZM61.9831 16.2583C57.7591 12.6351 52.4167 10.3059 46.5382 9.85297V5.71213C53.5535 6.18352 59.9312 8.96565 64.9131 13.3283L61.9831 16.2583ZM42.3973 9.85297C36.5281 10.3059 31.1764 12.6351 26.9524 16.2583L24.0224 13.3283C29.0043 8.96565 35.382 6.17428 42.3973 5.71213V9.85297ZM24.0224 19.1883C20.3992 23.4123 18.0699 28.7548 17.617 34.6333H13.467C13.9384 27.6179 16.7205 21.2403 21.0831 16.2583L24.0224 19.1883ZM17.617 38.7833C18.0699 44.6526 20.3992 50.0042 24.0224 54.2283L21.0924 57.1583C16.7297 52.1763 13.9384 45.7987 13.4762 38.7833H17.617ZM40.6412 71.7436L30.4555 86.292L27.2112 78.1859H17.2381L25.224 66.2071C29.753 69.1741 34.9938 71.1243 40.6412 71.7436ZM63.7115 66.2071L71.6974 78.1859H61.7243L58.48 86.292L48.2943 71.7436C53.9418 71.1243 59.1825 69.1741 63.7115 66.2071ZM67.8431 57.1583L64.9131 54.2283C68.5363 50.0042 70.8656 44.6618 71.3185 38.7833H75.4685C74.9971 45.7987 72.215 52.1671 67.8431 57.1583ZM5.06515 36.7129C5.06515 35.5668 5.99868 34.6425 7.13556 34.6425H9.31689C9.27992 35.3357 9.21522 36.0197 9.21522 36.7129C9.21522 47.5641 14.1509 57.2692 21.878 63.7485L9.49251 82.3268H24.4014L29.4572 94.9526L44.4678 73.4998L59.4783 94.9526L64.5341 82.3268H79.443L67.0482 63.7392C74.7846 57.2692 79.711 47.5549 79.711 36.7037C79.711 36.0012 79.6463 35.3172 79.6094 34.6333H81.7907C82.9368 34.6333 83.8611 35.5668 83.8611 36.7037V100.988H5.06515V36.7129ZM96.3113 100.988V84.3972H125.343V100.988H96.3113Z" fill="#085DA8"/>
<path d="M108.743 88.5472H100.452V92.6973H108.743V88.5472Z" fill="#085DA8"/>
<path d="M121.193 30.4924H117.043V34.6425H121.193V30.4924Z" fill="#085DA8"/>
<path d="M112.902 30.4924H108.752V34.6425H112.902V30.4924Z" fill="#085DA8"/>
<path d="M104.602 30.4924H100.452V34.6425H104.602V30.4924Z" fill="#085DA8"/>
<path d="M125.334 22.1923H96.3113C94.0283 22.1923 92.1613 24.0501 92.1613 26.3424V38.7833C92.1613 41.0663 94.0191 42.9334 96.3113 42.9334H100.461V46.2146C100.461 48.9783 102.707 51.2243 105.471 51.2243C106.793 51.2243 108.078 50.6882 109.011 49.7547L115.842 42.9242H125.353C127.636 42.9242 129.503 41.0663 129.503 38.7741V26.3424C129.484 24.0501 127.626 22.1923 125.334 22.1923ZM125.334 38.7833H114.104L106.053 46.8247C105.563 47.3146 104.593 46.9171 104.593 46.2146V38.7833H96.3021V26.3424H125.334V38.7833Z" fill="#085DA8"/>
<path d="M27.8767 109.288C24.4476 109.288 21.6562 112.08 21.6562 115.509C21.6562 118.938 24.4476 121.729 27.8767 121.729C31.3059 121.729 34.0972 118.938 34.0972 115.509C34.0972 112.071 31.3059 109.288 27.8767 109.288ZM27.8767 117.579C26.7306 117.579 25.8063 116.646 25.8063 115.509C25.8063 114.363 26.7399 113.438 27.8767 113.438C29.0229 113.438 29.9472 114.372 29.9472 115.509C29.9564 116.646 29.0229 117.579 27.8767 117.579Z" fill="#085DA8"/>
<path d="M90.0816 109.288C86.6524 109.288 83.8611 112.08 83.8611 115.509C83.8611 118.938 86.6524 121.729 90.0816 121.729C93.5107 121.729 96.3021 118.938 96.3021 115.509C96.3113 112.071 93.5199 109.288 90.0816 109.288ZM90.0816 117.579C88.9354 117.579 88.0112 116.646 88.0112 115.509C88.0112 114.363 88.9447 113.438 90.0816 113.438C91.2277 113.438 92.152 114.372 92.152 115.509C92.1612 116.646 91.2277 117.579 90.0816 117.579Z" fill="#085DA8"/>
</svg>
