<svg width="130" height="130" viewBox="0 0 130 130" fill="none" xmlns="http://www.w3.org/2000/svg">
<path d="M43.3486 54.9792C42.0278 54.9792 40.7803 54.4655 39.8448 53.53L33.0939 46.7791H7.27368C3.8799 46.7791 1.11902 44.0182 1.11902 40.6244V7.80569C1.11902 4.41192 3.8799 1.65103 7.27368 1.65103H64.7019C68.0957 1.65103 70.8566 4.41192 70.8566 7.80569V40.6244C70.8566 44.0182 68.0957 46.7791 64.7019 46.7791H48.2925V50.0353C48.2925 52.7595 46.0728 54.9792 43.3486 54.9792Z" fill="#F0BD5F"/>
<path d="M91.3659 32.4243C91.3659 33.5525 90.4487 34.4789 89.3113 34.4789C88.174 34.4789 87.2567 33.5617 87.2567 32.4243C87.2567 31.2961 88.174 30.3697 89.3113 30.3697C90.4487 30.3697 91.3659 31.287 91.3659 32.4243Z" fill="#085DA8"/>
<path d="M107.775 32.4243C107.775 33.5525 106.858 34.4789 105.721 34.4789C104.593 34.4789 103.666 33.5617 103.666 32.4243C103.666 31.2961 104.583 30.3697 105.721 30.3697C106.858 30.3697 107.775 31.287 107.775 32.4243Z" fill="#085DA8"/>
<path d="M92.0723 50.8791H99.5661C104.088 50.8791 107.766 47.201 107.766 42.679H103.666C103.666 44.9446 101.822 46.7791 99.5661 46.7791H92.0723V50.8791Z" fill="#085DA8"/>
<path d="M115.82 46.7791H115.985C122.773 46.7791 128.294 41.2573 128.294 34.4698C128.294 30.8283 126.698 27.563 124.176 25.3066C124.002 12.2359 113.334 1.65103 100.218 1.65103H94.8244C81.7538 1.65103 71.1047 12.1809 70.8754 25.3066C68.353 27.563 66.757 30.8283 66.757 34.4698C66.757 38.102 68.353 41.3582 70.857 43.6146V65.2339C70.857 70.8932 75.4615 75.4886 81.1117 75.4886H81.8914C79.3965 78.754 77.5162 82.3862 76.3604 86.2845L54.5944 113.068C49.7422 114.719 46.2384 119.305 46.2384 124.708H21.6289V116.507H25.729C27.9945 116.507 29.829 114.664 29.829 112.407V54.9792C29.829 52.7136 27.9854 50.8791 25.729 50.8791H17.5289C15.2633 50.8791 13.4288 52.7228 13.4288 54.9792V90.4212L8.13635 92.1823C3.94458 93.5765 1.12866 97.4931 1.12866 101.914V128.817H120.094V97.7866C122.718 93.5857 124.194 88.6601 124.194 83.4869C124.194 73.4982 116.939 65.188 107.418 63.5095L106.125 58.3455C111.215 56.6669 115.04 52.2091 115.82 46.7791ZM111.876 44.7245C111.876 50.3838 107.271 54.9792 101.621 54.9792H93.4211C87.7617 54.9792 83.1663 50.3747 83.1663 44.7245V28.0766C83.1663 25.4258 84.8541 23.0777 87.3765 22.243L90.1373 21.3258C91.9535 23.3162 94.485 24.6553 97.3285 24.8938L111.885 26.1046V44.7245H111.876ZM85.2118 71.3886C84.0836 71.3886 83.1572 70.4713 83.1572 69.3339C83.1572 68.1966 84.0744 67.2793 85.2118 67.2793H89.3118C90.44 67.2793 91.3664 68.1966 91.3664 69.3339C91.3664 70.4713 90.4492 71.3886 89.3118 71.3886H85.2118ZM115.985 42.679V26.2697C120.507 26.2697 124.185 29.9478 124.185 34.4698C124.185 38.9918 120.507 42.679 115.985 42.679ZM94.8244 5.76025H100.218C110.179 5.76025 118.425 13.1348 119.847 22.8025C118.627 22.3989 117.333 22.1696 115.985 22.1696H114.013L112.289 22.0229L111.986 21.8211C109.353 20.0692 107.776 17.1248 107.776 13.9604H103.676C103.676 16.6937 104.501 19.2987 105.978 21.4909L103.043 21.2432C100.869 19.4638 99.5757 16.7854 99.5757 13.9604H95.4757C95.4757 16.3727 96.1452 18.7025 97.3285 20.7387C93.9714 20.2801 91.3756 17.3816 91.3756 13.9604H87.2756C87.2756 15.2812 87.514 16.547 87.9543 17.7302L86.0832 18.3539C83.9552 19.0602 82.1849 20.4269 80.9558 22.1696H79.0663C77.7088 22.1696 76.4063 22.3989 75.1864 22.8025C76.5622 13.1807 84.8265 5.76025 94.8244 5.76025ZM79.0663 28.0766V42.6699C74.5443 42.6699 70.8662 38.9918 70.8662 34.4698C70.8662 29.9478 74.5443 26.2697 79.0663 26.2697H79.2406C79.1305 26.8567 79.0663 27.4621 79.0663 28.0766ZM79.0663 69.3431C79.0663 69.9668 79.158 70.563 79.3323 71.1317C76.8099 70.3613 74.9662 68.0131 74.9662 65.2431V46.0545C76.2504 46.5131 77.6262 46.7699 79.0663 46.7699H79.2314C80.011 52.2091 83.8359 56.6577 88.9358 58.3455L87.725 63.1793H85.2118C81.8272 63.1885 79.0663 65.9493 79.0663 69.3431ZM74.9571 104.226L63.62 110.463C62.6844 110.977 61.8681 111.646 61.1618 112.417H60.4189L75.0304 94.4387C75.0029 94.9524 74.9571 95.4569 74.9571 95.9705V104.226ZM17.5289 54.9792H25.729V112.407H17.5197V54.9792H17.5289ZM5.22871 101.914C5.22871 99.2634 6.91643 96.9153 9.43883 96.0806L13.438 94.7506V112.417C13.438 114.682 15.2816 116.517 17.538 116.517V124.717H5.22871V101.914ZM58.5569 116.517H58.8963C58.6761 117.333 58.5569 118.177 58.5569 119.039C58.5569 121.158 59.254 123.112 60.4097 124.726H50.3476C50.3476 120.195 54.0257 116.517 58.5569 116.517ZM68.3346 124.717C65.1977 124.717 62.6478 122.167 62.6478 119.03C62.6478 116.957 63.776 115.049 65.5921 114.049L96.4112 97.0987C98.0348 96.1998 99.539 95.1542 100.988 94.0351L110.546 101.997C109.895 102.455 109.243 102.905 108.546 103.299L71.6183 123.974C70.7745 124.451 69.8114 124.698 68.8391 124.698H68.3346V124.717ZM78.7177 124.717L110.555 106.895C112.555 105.776 114.371 104.409 115.985 102.85V124.717H78.7177ZM120.085 83.6245C120.085 89.559 117.728 95.145 113.71 99.3001L104.116 91.3018C105.318 90.1094 106.473 88.8528 107.51 87.4677L109.418 84.9178L106.134 82.4596L104.226 85.0095C101.584 88.5317 98.2916 91.3843 94.4392 93.5123L79.0663 101.969V95.9705C79.0663 88.2749 81.9923 81.0471 87.2756 75.4978H89.321C92.6873 75.4978 95.4298 72.7736 95.4665 69.4165C95.815 69.2422 96.1452 69.0496 96.503 68.8937C98.8327 67.8297 101.318 67.2977 103.887 67.2977C112.821 67.2885 120.085 74.553 120.085 83.6245ZM103.107 63.2251C100.227 63.326 97.4294 63.9498 94.7969 65.1513C94.5584 65.2614 94.3291 65.3898 94.0906 65.5091C93.4761 64.7478 92.7056 64.124 91.8067 63.7205L92.9716 59.0609C93.1184 59.0609 93.2651 59.0792 93.4119 59.0792H101.612C101.759 59.0792 101.905 59.0609 102.052 59.0609L103.107 63.2251Z" fill="#085DA8"/>
<path d="M56.5018 30.3697C59.8956 30.3697 62.6565 27.6088 62.6565 24.2151C62.6565 20.8213 59.8956 18.0604 56.5018 18.0604C53.1081 18.0604 50.3472 20.8213 50.3472 24.2151C50.3472 27.6088 53.1081 30.3697 56.5018 30.3697ZM56.5018 22.1605C57.63 22.1605 58.5564 23.0777 58.5564 24.2151C58.5564 25.3433 57.6392 26.2697 56.5018 26.2697C55.3736 26.2697 54.4472 25.3524 54.4472 24.2151C54.4472 23.0869 55.3736 22.1605 56.5018 22.1605Z" fill="#085DA8"/>
<path d="M35.9923 30.3697C39.3861 30.3697 42.147 27.6088 42.147 24.2151C42.147 20.8213 39.3861 18.0604 35.9923 18.0604C32.5985 18.0604 29.8376 20.8213 29.8376 24.2151C29.8376 27.6088 32.5985 30.3697 35.9923 30.3697ZM35.9923 22.1605C37.1205 22.1605 38.0469 23.0777 38.0469 24.2151C38.0469 25.3433 37.1297 26.2697 35.9923 26.2697C34.8549 26.2697 33.9377 25.3433 33.9377 24.2151C33.9377 23.0869 34.8641 22.1605 35.9923 22.1605Z" fill="#085DA8"/>
<path d="M15.4829 30.3697C18.8767 30.3697 21.6376 27.6088 21.6376 24.2151C21.6376 20.8213 18.8767 18.0604 15.4829 18.0604C12.0891 18.0604 9.32825 20.8213 9.32825 24.2151C9.32825 27.6088 12.0891 30.3697 15.4829 30.3697ZM15.4829 22.1605C16.6111 22.1605 17.5375 23.0777 17.5375 24.2151C17.5375 25.3433 16.6203 26.2697 15.4829 26.2697C14.3547 26.2697 13.4283 25.3524 13.4283 24.2151C13.4283 23.0869 14.3455 22.1605 15.4829 22.1605Z" fill="#085DA8"/>
</svg>
