<svg width="136" height="136" viewBox="0 0 136 136" fill="none" xmlns="http://www.w3.org/2000/svg">
<path d="M116.156 93.539H95.0839V108.288H116.156V93.539Z" fill="#F0BD5F"/>
<path d="M95.0839 19.7768H74.0117V40.8489H95.0839V19.7768Z" fill="#F0BD5F"/>
<path d="M44.5145 47.1725C44.5145 48.3336 43.5741 49.2836 42.4035 49.2836C41.2424 49.2836 40.2924 48.3432 40.2924 47.1725C40.2924 46.0018 41.2328 45.0615 42.4035 45.0615C43.5646 45.0711 44.5145 46.0114 44.5145 47.1725Z" fill="#085DA8"/>
<path d="M128.803 91.4279H94.537C94.8728 90.4396 95.0839 89.4128 95.0839 88.3381C95.0839 87.9543 95.0167 87.58 94.9688 87.2058H101.667L116.732 83.4443C118.872 82.9069 120.369 80.9878 120.369 78.7808H128.794V64.0322H124.581V74.5683H117.835C117.49 74.3764 117.125 74.2228 116.722 74.1173L103.509 70.8164V53.4961H116.156V49.2836H99.2964V70.4133L67.6882 70.3558C64.2049 70.3558 61.3646 73.1961 61.3646 76.6793V80.8918C61.3646 84.3751 64.2049 87.2154 67.6882 87.2154H73.0426C67.8801 92.0804 61.806 95.6596 55.1945 97.7323C51.8744 89.0098 44.764 82.5711 36.0799 80.0186V74.5779H42.4035C48.2089 74.5779 52.9396 69.8472 52.9396 64.0418V59.0136L53.4577 58.7545C55.7415 57.6126 57.1521 55.3289 57.1521 52.7764C57.1521 51.4522 56.7682 50.1664 56.0294 49.0629L53.2946 44.9559C53.0643 44.6105 52.9396 44.2074 52.9396 43.7852V40.8489H61.3646C63.6868 40.8489 65.5771 38.9586 65.5771 36.6364V34.5254C65.5771 31.0421 62.7368 28.2018 59.2535 28.2018H57.0177C55.9622 18.7308 47.921 11.3421 38.1718 11.3421H36.0607V9.23107C36.0607 5.74783 33.2204 2.9075 29.7371 2.9075H25.5246C22.0414 2.9075 19.201 5.74783 19.201 9.23107V11.4669C9.73007 12.5224 2.34137 20.5636 2.34137 30.3129V51.5386C2.34137 61.1439 8.38667 69.8664 17.3874 73.2441L19.201 73.9254V80.153L15.6794 84.5574C12.5128 88.5108 10.776 93.4814 10.776 98.548C10.776 103.403 12.3497 107.894 14.9885 111.569V133.582H133.006V95.6404C133.016 93.3183 131.125 91.4279 128.803 91.4279ZM78.2243 108.009V129.36H57.1521V118.315C64.7135 116.156 71.8335 112.692 78.2243 108.009ZM48.727 115.887V103.538C59.4167 101.974 69.2811 97.0414 77.0536 89.2593L81.7459 84.567C82.7534 83.5594 84.0968 83.0029 85.5266 83.0029C88.4725 83.0029 90.8714 85.4018 90.8714 88.3477C90.8714 89.7775 90.3148 91.1209 89.3073 92.1284L83.2236 98.2121C73.7335 107.702 61.7388 113.786 48.727 115.887ZM82.4464 79.3373C81.0838 79.8075 79.8267 80.5368 78.7712 81.5923L78.2338 82.1393V74.5779H82.4464V79.3373ZM116.166 78.7808C116.166 79.0495 115.983 79.2894 115.715 79.3565L111.953 80.2969V77.2647L115.715 78.205C115.974 78.2818 116.166 78.5121 116.166 78.7808ZM107.731 76.2187V81.3524L103.519 82.408V75.1632L107.731 76.2187ZM99.306 83.0029H93.4526C91.9365 80.7575 89.48 79.2414 86.6589 78.9055V74.5779H99.306V83.0029ZM65.5867 80.8918V76.6793C65.5867 75.5182 66.5367 74.5683 67.6978 74.5683H74.0213V82.9933H67.6978C66.5271 83.0029 65.5867 82.0529 65.5867 80.8918ZM49.7826 47.2973L52.5173 51.4042C52.786 51.8168 52.93 52.287 52.93 52.7764C52.93 53.7168 52.4118 54.5612 51.5674 54.9834L51.0492 55.2425C49.6098 55.9622 48.7174 57.4015 48.7174 59.0136V61.9307H44.5049C42.1828 61.9307 40.2924 60.0404 40.2924 57.7182H36.0799C36.0799 62.3625 39.8606 66.1432 44.5049 66.1432H48.3336C47.4604 68.5901 45.1478 70.3558 42.4035 70.3558H31.8674V79.0974C30.4856 78.9055 29.0846 78.7808 27.6549 78.7808H23.4423V62.9767L16.9844 58.1308C15.7466 57.2096 15.0173 55.7415 15.0173 54.1966C15.0173 51.4906 17.2243 49.2836 19.9303 49.2836H23.4423V40.8585H48.727V43.7948C48.727 45.0423 49.0917 46.2513 49.7826 47.2973ZM61.3742 34.5254V36.6364H27.6549V34.5254C27.6549 33.3643 28.6048 32.4143 29.7659 32.4143H59.2727C60.4242 32.4239 61.3742 33.3739 61.3742 34.5254ZM25.5438 7.12961H29.7563C30.9174 7.12961 31.8674 8.07959 31.8674 9.24067V11.3517H23.4423V9.24067C23.4327 8.07959 24.3827 7.12961 25.5438 7.12961ZM21.3313 15.5642H38.1909C45.6084 15.5642 51.7497 21.0722 52.7764 28.2114H29.7563C26.2731 28.2114 23.4327 31.0517 23.4327 34.535V36.646H6.57308V30.3224C6.57308 22.1853 13.1941 15.5642 21.3313 15.5642ZM18.8844 69.2906C11.5245 66.5367 6.57308 59.3974 6.57308 51.5386V40.8489H19.2202V45.0902C14.5087 45.4549 10.7952 49.3987 10.7952 54.1966C10.7952 57.0561 12.1578 59.7813 14.4512 61.4989L19.2298 65.0781V69.4154L18.8844 69.2906ZM18.9899 87.1866L22.3388 82.9933H27.6453C38.1046 82.9933 47.2589 89.2593 51.0876 98.7878C47.9018 99.4691 44.6201 99.853 41.2808 99.853H27.6549V104.065H41.3C42.3747 104.065 43.4494 104.018 44.5145 103.95V116.425C42.5378 116.607 40.5419 116.713 38.5268 116.713H33.182C23.1641 116.713 15.0077 108.556 15.0077 98.5384C15.0077 94.4314 16.4183 90.4012 18.9899 87.1866ZM19.2202 116.022C23.0489 119.092 27.9043 120.935 33.182 120.935H38.5268C43.4398 120.935 48.2568 120.397 52.9396 119.38V129.369H19.2202V116.022ZM128.803 129.36H82.4464V104.651C83.7322 103.538 84.9988 102.396 86.2079 101.187L91.7446 95.65H128.803V129.36Z" fill="#085DA8"/>
<path d="M107.731 99.8625H103.519V108.288H107.731V99.8625Z" fill="#085DA8"/>
<path d="M124.591 120.935H111.944V125.147H124.591V120.935Z" fill="#085DA8"/>
<path d="M109.218 60.4338L106.234 63.4181L114.218 71.4017L132.546 48.4871L129.254 45.8483L113.872 65.0877L109.218 60.4338Z" fill="#085DA8"/>
<path d="M109.218 22.502L106.234 25.4862L114.218 33.4698L132.555 10.5553L129.264 7.91647L113.882 27.1559L109.218 22.502Z" fill="#085DA8"/>
<path d="M128.803 26.1003H124.591V36.6364H103.519V15.5642H116.166V11.3517H99.306V40.8585H128.813V26.1003H128.803Z" fill="#085DA8"/>
<path d="M95.0839 28.2114H74.0117V32.4239H95.0839V28.2114Z" fill="#085DA8"/>
<path d="M82.4368 19.7768H74.0117V23.9893H82.4368V19.7768Z" fill="#085DA8"/>
<path d="M95.0838 19.7768H86.6588V23.9893H95.0838V19.7768Z" fill="#085DA8"/>
<path d="M78.2242 36.6364H74.0117V40.8489H78.2242V36.6364Z" fill="#085DA8"/>
<path d="M86.6588 36.6364H82.4463V40.8489H86.6588V36.6364Z" fill="#085DA8"/>
<path d="M95.0839 36.6364H90.8713V40.8489H95.0839V36.6364Z" fill="#085DA8"/>
</svg>
