<svg width="134" height="134" viewBox="0 0 134 134" fill="none" xmlns="http://www.w3.org/2000/svg">
<path d="M22.6626 96.5976V104.984H10.0785V121.756H31.0488V96.5882H22.6626V96.5976Z" fill="#F0BD5F"/>
<path d="M119.118 96.5977H106.534V107.083H119.118V96.5977Z" fill="#F0BD5F"/>
<path d="M91.8608 44.1814C88.391 44.1814 85.5735 41.3639 85.5735 37.8941C85.5735 34.4242 88.391 31.6068 91.8608 31.6068C95.3306 31.6068 98.1481 34.4242 98.1481 37.8941C98.1481 41.3639 95.3306 44.1814 91.8608 44.1814Z" fill="#F0BD5F"/>
<path d="M117.019 44.1814C113.55 44.1814 110.732 41.3639 110.732 37.8941C110.732 34.4242 113.55 31.6068 117.019 31.6068C120.489 31.6068 123.307 34.4242 123.307 37.8941C123.307 41.3639 120.489 44.1814 117.019 44.1814Z" fill="#F0BD5F"/>
<path d="M117.019 44.1814C113.55 44.1814 110.732 41.3639 110.732 37.8941C110.732 34.4242 113.55 31.6068 117.019 31.6068C120.489 31.6068 123.307 34.4242 123.307 37.8941C123.307 41.3639 120.489 44.1814 117.019 44.1814Z" fill="#F0BD5F"/>
<path d="M91.8608 44.1814C88.391 44.1814 85.5735 41.3639 85.5735 37.8941C85.5735 34.4242 88.391 31.6068 91.8608 31.6068C95.3306 31.6068 98.1481 34.4242 98.1481 37.8941C98.1481 41.3639 95.3306 44.1814 91.8608 44.1814Z" fill="#F0BD5F"/>
<path d="M84.0135 49.0694L78.4258 55.2716C75.4003 52.3123 71.2592 50.4687 66.6926 50.4687C57.446 50.4687 49.9202 57.9945 49.9202 67.2411C49.9202 76.4877 57.446 84.0136 66.6926 84.0136C75.9392 84.0136 83.4651 76.4877 83.4651 67.2411C83.4651 64.0833 82.5764 61.1429 81.0542 58.6185L87.124 51.8774L84.0135 49.0694ZM79.2767 67.2411C79.2767 74.1808 73.6323 79.8252 66.6926 79.8252C59.7529 79.8252 54.1086 74.1808 54.1086 67.2411C54.1086 60.3015 59.7529 54.6571 66.6926 54.6571C70.1814 54.6571 73.3392 56.0847 75.6178 58.3822L66.617 68.3851L61.8897 63.6578L58.9209 66.6266L66.7777 74.4833L78.076 61.9276C78.8418 63.5444 79.2767 65.3408 79.2767 67.2411Z" fill="#085DA8"/>
<path d="M31.0488 94.5082H22.6626V98.706H31.0488V94.5082Z" fill="#085DA8"/>
<path d="M31.0488 102.894H10.0785V107.092H31.0488V102.894Z" fill="#085DA8"/>
<path d="M31.0488 111.281H10.0785V115.478H31.0488V111.281Z" fill="#085DA8"/>
<path d="M31.0488 119.667H10.0785V123.865H31.0488V119.667Z" fill="#085DA8"/>
<path d="M127.505 39.9835C129.821 39.9835 131.702 38.102 131.702 35.7857V21.1121C131.702 17.6423 128.885 14.8248 125.415 14.8248H114.93V8.52806C114.93 5.05822 112.113 2.24075 108.643 2.24075H83.4746C80.4018 2.24075 77.8491 4.46258 77.3007 7.3746C73.812 6.76005 70.257 6.42914 66.6927 6.42914C58.9588 6.42914 51.4424 7.87569 44.3136 10.6932C44.0867 10.6553 43.8598 10.627 43.6235 10.627H37.9696C35.5587 5.56877 30.4437 2.24075 24.7521 2.24075C16.6589 2.24075 10.0691 8.82115 10.0691 16.9237V19.4103C7.63926 20.2801 5.87125 22.587 5.87125 25.3194C5.87125 28.7893 8.68872 31.6067 12.1586 31.6067H14.2575V33.7057C14.2575 36.2017 15.7324 38.3479 17.8502 39.369L16.8102 42.4795L13.2742 43.4912C6.45743 45.4294 1.69232 51.7545 1.69232 58.8549V60.9538H6.23998C6.02252 63.0433 5.8807 65.1422 5.8807 67.2411C5.8807 74.351 7.1098 81.3001 9.50181 87.9183L2.91196 94.5082C2.11777 95.3024 1.68286 96.3518 1.68286 97.4769V128.063C1.68286 130.379 3.56433 132.26 5.8807 132.26H35.2372C37.5536 132.26 39.4351 130.379 39.4351 128.063V121.615C47.8591 125.841 57.2003 128.063 66.6927 128.063C76.1851 128.063 85.5357 125.831 93.9503 121.615V128.063C93.9503 130.379 95.8317 132.26 98.1481 132.26H127.505C129.821 132.26 131.702 130.379 131.702 128.063V98.706C131.702 96.3896 129.821 94.5082 127.505 94.5082H121.047C125.273 86.0936 127.505 76.743 127.505 67.2506C127.505 58.3443 125.604 49.7974 121.908 41.7988C121.019 42.9144 119.771 43.737 118.324 44.0395C121.614 51.3479 123.307 59.1385 123.307 67.2506C123.307 76.8092 120.868 86.1976 116.291 94.5082H98.1387C95.8223 94.5082 93.9408 96.3896 93.9408 98.706V116.859C85.6302 121.435 76.2418 123.874 66.6832 123.874C57.1246 123.874 47.7362 121.435 39.4256 116.859V86.1314C39.4256 83.815 37.5441 81.9336 35.2278 81.9336H17.2357C16.1295 81.9336 15.0517 82.3779 14.2669 83.1627L12.8015 84.6281C10.9956 79.0404 10.0691 73.207 10.0691 67.2506C10.0691 65.1516 10.2204 63.0433 10.4473 60.9633H47.8118V58.8643C47.8118 51.7639 43.0373 45.4388 36.211 43.4817L32.675 42.4701L31.635 39.3595C33.7528 38.3479 35.2278 36.2017 35.2278 33.6962V31.5973H37.3267C40.7965 31.5973 43.614 28.7798 43.614 25.31C43.614 24.5725 43.4627 23.8729 43.2264 23.2111H43.614C45.9304 23.2111 47.8118 21.3296 47.8118 19.0132V14.8154C47.8118 14.4939 47.7646 14.1819 47.6984 13.8888C53.7777 11.7237 60.1501 10.627 66.6832 10.627C70.2192 10.627 73.7269 10.9768 77.1684 11.6197V35.7951C77.1684 38.1115 79.0498 39.993 81.3662 39.993H85.9422C85.7059 39.3311 85.5546 38.6315 85.5546 37.894C85.5546 37.1566 85.7059 36.4569 85.9422 35.7951H81.3662V8.52806C81.3662 7.3746 82.3022 6.42914 83.4651 6.42914H108.633C109.787 6.42914 110.732 7.3746 110.732 8.52806V35.7857H97.7605C97.9968 36.4475 98.1481 37.1471 98.1481 37.8846C98.1481 38.622 97.9968 39.3217 97.7605 39.9835H111.12C110.883 39.3217 110.732 38.622 110.732 37.8846C110.732 37.1471 110.883 36.4475 111.12 35.7857H111.11C111.744 34.0177 113.153 32.6089 114.93 31.9755V19.0132H125.415C126.569 19.0132 127.514 19.9587 127.514 21.1121V23.2111H119.128V27.4089H127.514V35.7951H122.938C123.174 36.4569 123.326 37.1566 123.326 37.894C123.326 38.6315 123.174 39.3311 122.938 39.993H127.505V39.9835ZM98.1481 98.6965H127.505V128.053H98.1481V98.6965ZM14.2764 89.0812V94.5082H8.84944L14.2764 89.0812ZM35.2467 128.053H5.8807V98.6965H14.2669C16.5833 98.6965 18.4648 96.8151 18.4648 94.4987V86.1125H35.2372L35.2467 128.053ZM24.7521 6.42914C28.1085 6.42914 31.1907 8.03642 33.1288 10.627H26.851C24.5346 10.627 22.6532 12.5084 22.6532 14.8248V19.0227H14.2764V16.9237C14.2764 11.1375 18.9753 6.42914 24.7521 6.42914ZM24.7521 44.0679L21.1121 42.8577L22.067 39.993H27.4372L28.3921 42.8577L24.7521 44.0679ZM28.9499 35.7857H20.5637C19.4102 35.7857 18.4648 34.8402 18.4648 33.6867V23.2111H31.0488V33.6962C31.0488 34.8497 30.1034 35.7857 28.9499 35.7857ZM12.1775 27.3994C11.024 27.3994 10.0785 26.454 10.0785 25.3005C10.0785 24.1471 11.0145 23.2016 12.1775 23.2016H14.2764V27.3994H12.1775ZM18.4175 46.3748L20.8757 47.1974L18.6917 49.3814L16.7913 46.8475L18.4175 46.3748ZM43.4344 56.756H6.07925C6.75998 53.0498 9.19927 49.8636 12.5935 48.2279L18.2379 55.7538L24.7521 49.2301L31.2663 55.7443L36.9107 48.2185C40.3143 49.873 42.7631 53.0498 43.4344 56.756ZM32.7223 46.8381L30.8219 49.3719L28.6379 47.1879L31.0961 46.3654L32.7223 46.8381ZM39.4351 25.3005C39.4351 26.454 38.4991 27.3994 37.3361 27.3994H35.2372V23.2016H37.3361C38.4991 23.2111 39.4351 24.1471 39.4351 25.3005ZM43.6329 19.0132H26.851V14.8154H43.6235V19.0132H43.6329Z" fill="#085DA8"/>
</svg>
