<svg width="135" height="135" viewBox="0 0 135 135" fill="none" xmlns="http://www.w3.org/2000/svg">
<path d="M67.1904 132.952C54.4363 132.952 44.0538 122.57 44.0538 109.815C44.0538 97.0613 54.4363 86.6789 67.1904 86.6789C79.9446 86.6789 90.327 97.0613 90.327 109.815C90.327 122.57 79.9541 132.952 67.1904 132.952Z" fill="#F0BD5F"/>
<path d="M77.7157 34.0905C77.7157 35.2526 76.7727 36.1956 75.6107 36.1956C74.4486 36.1956 73.5056 35.2526 73.5056 34.0905C73.5056 32.9285 74.4486 31.9855 75.6107 31.9855C76.7727 31.9855 77.7157 32.9285 77.7157 34.0905Z" fill="#085DA8"/>
<path d="M60.8847 34.0905C60.8847 35.2526 59.9417 36.1956 58.7796 36.1956C57.6176 36.1956 56.6746 35.2526 56.6746 34.0905C56.6746 32.9285 57.6176 31.9855 58.7796 31.9855C59.9417 31.9855 60.8847 32.9285 60.8847 34.0905Z" fill="#085DA8"/>
<path d="M77.7157 44.6063H73.5056C73.5056 46.9305 71.6196 48.8164 69.2955 48.8164H60.8848V53.0266H69.2955C73.9342 53.0266 77.7157 49.2451 77.7157 44.6063Z" fill="#085DA8"/>
<path d="M69.2955 99.6807V95.0896H65.0854V99.2997H60.8752V105.605C60.8752 109.082 63.7042 111.911 67.1809 111.911C68.343 111.911 69.286 112.854 69.286 114.016V116.121H67.1809C66.0188 116.121 65.0758 115.178 65.0758 114.016V111.911H60.8657V114.016C60.8657 116.759 62.6279 119.064 65.0758 119.941V124.532H69.286V120.322H73.4961V114.016C73.4961 110.539 70.6671 107.71 67.1904 107.71C66.0284 107.71 65.0854 106.767 65.0854 105.605V103.5H67.1904C68.3525 103.5 69.2955 104.443 69.2955 105.605V107.71H73.5056V105.605C73.5056 102.872 71.7434 100.557 69.2955 99.6807Z" fill="#085DA8"/>
<path d="M87.5075 62.7422L77.1823 61.5896L76.7822 60.399C81.6115 58.494 85.1929 54.1029 85.9549 48.8069H86.1264C90.7651 48.8069 94.5371 45.0349 94.5371 40.3962C94.5371 38.5483 93.9275 36.8623 92.9178 35.4717C93.8989 33.0237 94.4514 30.4043 94.5085 27.7753H98.7472C101.071 27.7753 102.957 25.8894 102.957 23.5652V19.3551C102.957 17.031 101.071 15.145 98.7472 15.145H92.0129C88.0791 7.44867 80.1351 2.54321 71.4005 2.54321H62.9898C50.2356 2.54321 39.8532 12.9256 39.8532 25.6798V27.7849H39.8818C39.9389 30.4233 40.4914 33.0428 41.4725 35.4812C40.4628 36.8719 39.8532 38.5578 39.8532 40.4057C39.8532 45.0444 43.6252 48.8164 48.2639 48.8164H48.4354C49.1974 54.1124 52.7788 58.494 57.6081 60.4085L57.208 61.5992L46.8828 62.7517C30.8805 64.5234 18.8121 78.011 18.8121 94.1085V105.615C18.8121 111.416 23.5271 116.131 29.3279 116.131H31.433V124.541C31.433 126.866 33.3189 128.751 35.6431 128.751H53.9314C52.2264 127.551 50.6833 126.142 49.3593 124.541H35.6431V115.74C38.0815 114.873 39.8532 112.559 39.8532 109.815V101.405C39.8532 98.6615 38.091 96.3565 35.6431 95.4801V82.4688H56.6746V89.2316C58.0081 88.5458 59.4179 87.9934 60.8847 87.5743V82.4688H65.0949V86.7837C65.7807 86.717 66.4855 86.6789 67.1904 86.6789C67.9048 86.6789 68.6001 86.7265 69.2955 86.7837V82.4688H73.5056V87.5743C74.9724 87.9934 76.3822 88.5458 77.7157 89.2316V82.4688H98.7472V95.4801C96.3088 96.3469 94.5371 98.6615 94.5371 101.405V109.815C94.5371 112.559 96.2993 114.864 98.7472 115.74V124.541H85.031C83.707 126.142 82.1639 127.551 80.4589 128.751H98.7472C101.071 128.751 102.957 126.866 102.957 124.541V116.131H105.062C110.863 116.131 115.578 111.416 115.578 105.615V94.1085C115.569 78.0015 103.51 64.5234 87.5075 62.7422ZM58.3987 65.695L62.0659 67.5333L58.132 69.105L57.2938 65.8188L58.3987 65.695ZM75.9916 65.695L77.0966 65.8188L76.2583 69.105L72.3245 67.5333L75.9916 65.695ZM86.1264 44.6063V36.1956C88.4505 36.1956 90.3365 38.0816 90.3365 40.4057C90.327 42.7203 88.441 44.6063 86.1264 44.6063ZM89.4697 32.6903C88.441 32.2426 87.317 31.9855 86.1264 31.9855V27.7753H90.3079C90.2603 29.4422 89.9746 31.0996 89.4697 32.6903ZM98.7472 19.3646V23.5748H65.0949V19.3646H98.7472ZM62.9898 6.74381H71.4005C77.7919 6.74381 83.6784 9.96331 87.1456 15.1545H65.0949C62.7707 15.1545 60.8847 17.0405 60.8847 19.3646V23.5748H44.1776C45.2254 14.1258 53.2551 6.74381 62.9898 6.74381ZM48.2639 27.7849V31.995C47.0733 31.995 45.9493 32.2522 44.9206 32.6999C44.4157 31.1091 44.13 29.4518 44.0919 27.7944H48.2639V27.7849ZM44.0538 40.4057C44.0538 38.0816 45.9398 36.1956 48.2639 36.1956V44.6063C45.9398 44.6063 44.0538 42.7203 44.0538 40.4057ZM52.474 46.7114V27.7849H81.9163V46.7114C81.9163 52.5122 77.2013 57.2271 71.4005 57.2271H62.9898C57.189 57.2271 52.474 52.5122 52.474 46.7114ZM62.9898 61.4372H71.4005C71.8291 61.4372 72.2482 61.4087 72.6674 61.3706L73.0388 62.4755L67.1999 65.3997L61.361 62.4755L61.7325 61.3706C62.1325 61.4087 62.5612 61.4372 62.9898 61.4372ZM35.6431 109.815C35.6431 110.978 34.7001 111.921 33.538 111.921H29.3279C25.8512 111.921 23.0223 109.092 23.0223 105.615C23.0223 102.138 25.8512 99.3092 29.3279 99.3092H33.538C34.7001 99.3092 35.6431 100.252 35.6431 101.414V109.815ZM35.6431 78.2587C33.3189 78.2587 31.433 80.1446 31.433 82.4688V95.0896H29.3279C26.9466 95.0896 24.7844 95.9088 23.0223 97.2518V94.1085C23.0223 80.1542 33.4809 68.4763 47.3495 66.9333L53.0741 66.2951L55.2363 74.801L67.1999 70.0099L79.1635 74.7915L81.3257 66.2855L87.0503 66.9237C100.919 68.4668 111.378 80.1542 111.378 94.1085V97.2518C109.615 95.9183 107.444 95.0896 105.072 95.0896H102.967V82.4688C102.967 80.1446 101.081 78.2587 98.7568 78.2587H35.6431ZM105.053 111.921H100.843C99.6807 111.921 98.7377 110.978 98.7377 109.815V101.405C98.7377 100.243 99.6807 99.2997 100.843 99.2997H105.053C108.53 99.2997 111.359 102.129 111.359 105.605C111.368 109.092 108.539 111.921 105.053 111.921Z" fill="#085DA8"/>
</svg>
